Moderustic-Medium.ufo
<glyph name="ampersand" format="2">
  <advance width="664"/>
  <unicode hex="0026"/>
  <outline>
    <contour>
      <point x="272.106" y="415" type="line"/>
      <point x="221" y="469.632"/>
      <point x="203.5" y="504"/>
      <point x="203.5" y="543" type="curve" smooth="yes"/>
      <point x="203.5" y="590"/>
      <point x="237.403" y="620"/>
      <point x="291.249" y="620" type="curve" smooth="yes"/>
      <point x="344.097" y="620"/>
      <point x="373" y="590"/>
      <point x="373" y="548" type="curve" smooth="yes"/>
      <point x="373" y="481"/>
      <point x="301.638" y="440.808"/>
      <point x="235.638" y="406.808" type="curve"/>
    </contour>
    <contour>
      <point x="514" y="0" type="line"/>
      <point x="636" y="0" type="line"/>
      <point x="301.025" y="376.203" type="line"/>
      <point x="289.079" y="355.191" type="line"/>
      <point x="436.684" y="419.809"/>
      <point x="490" y="469.632"/>
      <point x="490" y="555" type="curve" smooth="yes"/>
      <point x="490" y="656"/>
      <point x="413.906" y="720"/>
      <point x="291.754" y="720" type="curve" smooth="yes"/>
      <point x="170.604" y="720"/>
      <point x="86.5" y="657"/>
      <point x="86.5" y="557" type="curve" smooth="yes"/>
      <point x="86.5" y="500"/>
      <point x="114.657" y="429"/>
      <point x="176" y="377" type="curve"/>
      <point x="90" y="343"/>
      <point x="37" y="274"/>
      <point x="37" y="183" type="curve" smooth="yes"/>
      <point x="37" y="59"/>
      <point x="134" y="-20"/>
      <point x="280" y="-20" type="curve" smooth="yes"/>
      <point x="425" y="-20"/>
      <point x="543" y="58"/>
      <point x="642" y="206" type="curve"/>
      <point x="575.111" y="272.889" type="line"/>
      <point x="493.111" y="150.889"/>
      <point x="383" y="80"/>
      <point x="285" y="80" type="curve" smooth="yes"/>
      <point x="210" y="80"/>
      <point x="157" y="125"/>
      <point x="157" y="205" type="curve" smooth="yes"/>
      <point x="157" y="253"/>
      <point x="176" y="301"/>
      <point x="221" y="325" type="curve"/>
    </contour>
  </outline>
</glyph>
<glyph name="four" format="2">
  <advance width="685"/>
  <unicode hex="0034"/>
  <outline>
    <contour>
      <point x="49" y="161" type="line"/>
      <point x="392" y="161" type="line"/>
      <point x="392" y="0" type="line"/>
      <point x="512" y="0" type="line"/>
      <point x="512" y="161" type="line"/>
      <point x="644" y="161" type="line"/>
      <point x="644" y="262" type="line"/>
      <point x="512" y="262" type="line"/>
      <point x="512" y="700" type="line"/>
      <point x="375" y="700" type="line"/>
      <point x="49" y="217" type="line"/>
    </contour>
    <contour>
      <point x="202" y="262" type="line"/>
      <point x="392" y="544" type="line"/>
      <point x="392" y="262" type="line"/>
    </contour>
  </outline>
</glyph>
<glyph name="five" format="2">
  <advance width="605"/>
  <unicode hex="0035"/>
  <outline>
    <contour>
      <point x="37" y="102" type="line"/>
      <point x="113" y="17"/>
      <point x="191" y="-20"/>
      <point x="294" y="-20" type="curve" smooth="yes"/>
      <point x="460" y="-20"/>
      <point x="560" y="75.201"/>
      <point x="560" y="222.512" type="curve" smooth="yes"/>
      <point x="560" y="361.805"/>
      <point x="471" y="454"/>
      <point x="326" y="454" type="curve" smooth="yes"/>
      <point x="268" y="454"/>
      <point x="223" y="438.559"/>
      <point x="187" y="419" type="curve"/>
      <point x="214" y="600" type="line"/>
      <point x="528" y="600" type="line"/>
      <point x="528" y="700" type="line"/>
      <point x="126" y="700" type="line"/>
      <point x="63" y="280" type="line"/>
      <point x="151" y="335"/>
      <point x="217" y="364"/>
      <point x="297" y="364" type="curve" smooth="yes"/>
      <point x="398" y="364"/>
      <point x="440" y="318"/>
      <point x="440" y="236" type="curve" smooth="yes"/>
      <point x="440" y="136"/>
      <point x="377" y="80"/>
      <point x="283" y="80" type="curve" smooth="yes"/>
      <point x="206" y="80"/>
      <point x="163" y="117"/>
      <point x="113" y="178" type="curve"/>
    </contour>
  </outline>
</glyph>
<glyph name="six" format="2">
  <advance width="631"/>
  <unicode hex="0036"/>
  <outline>
    <contour>
      <point x="171" y="222" type="curve" smooth="yes"/>
      <point x="171" y="312"/>
      <point x="229" y="368"/>
      <point x="322" y="368" type="curve" smooth="yes"/>
      <point x="409" y="368"/>
      <point x="469" y="319"/>
      <point x="469" y="227" type="curve" smooth="yes"/>
      <point x="469" y="138"/>
      <point x="413" y="80"/>
      <point x="318" y="80" type="curve" smooth="yes"/>
      <point x="228" y="80"/>
      <point x="171" y="132"/>
    </contour>
    <contour>
      <point x="334.051" y="620" type="curve" smooth="yes"/>
      <point x="404.205" y="620"/>
      <point x="449.205" y="598"/>
      <point x="485.205" y="561" type="curve"/>
      <point x="561.205" y="637" type="line"/>
      <point x="514.205" y="685"/>
      <point x="425.205" y="720"/>
      <point x="331.205" y="720" type="curve" smooth="yes"/>
      <point x="150.205" y="720"/>
      <point x="38" y="581"/>
      <point x="38" y="330" type="curve" smooth="yes"/>
      <point x="38" y="97"/>
      <point x="134" y="-20"/>
      <point x="316" y="-20" type="curve" smooth="yes"/>
      <point x="492" y="-20"/>
      <point x="589" y="89"/>
      <point x="589" y="228" type="curve" smooth="yes"/>
      <point x="589" y="378"/>
      <point x="475" y="458"/>
      <point x="336" y="458" type="curve" smooth="yes"/>
      <point x="247" y="458"/>
      <point x="193" y="425"/>
      <point x="139" y="362" type="curve"/>
      <point x="139" y="531.658"/>
      <point x="229.205" y="620"/>
    </contour>
  </outline>
</glyph>
<glyph name="less" format="2">
  <advance width="544"/>
  <unicode hex="003C"/>
  <outline>
    <contour>
      <point x="50" y="239" type="line"/>
      <point x="509" y="6" type="line"/>
      <point x="509" y="26" type="line"/>
      <point x="98" y="263" type="line"/>
      <point x="509" y="490" type="line"/>
      <point x="509" y="510" type="line"/>
      <point x="50" y="287" type="line"/>
    </contour>
  </outline>
</glyph>
<glyph name="B" format="2">
  <advance width="634"/>
  <unicode hex="0042"/>
  <anchor x="298" y="719" name="top"/>
  <anchor x="328" y="-20" name="bottom"/>
  <outline>
    <contour>
      <point x="78" y="0" type="line" name="ab01"/>
      <point x="356" y="0" type="line" smooth="yes"/>
      <point x="495" y="0"/>
      <point x="594" y="83"/>
      <point x="594" y="201" type="curve" smooth="yes"/>
      <point x="594" y="311"/>
      <point x="509" y="372"/>
      <point x="355" y="372" type="curve" name="dv02"/>
      <point x="482" y="372"/>
      <point x="548" y="425"/>
      <point x="548" y="525" type="curve" smooth="yes"/>
      <point x="548" y="636"/>
      <point x="467" y="700"/>
      <point x="332" y="700" type="curve" smooth="yes" name="at01"/>
      <point x="78" y="700" type="line"/>
    </contour>
    <contour>
      <point x="198" y="100" type="line"/>
      <point x="198" y="600" type="line" name="sv02"/>
      <point x="306" y="600" type="line" smooth="yes"/>
      <point x="388" y="600"/>
      <point x="429" y="581"/>
      <point x="429" y="518" type="curve" smooth="yes" name="sv04"/>
      <point x="429" y="457"/>
      <point x="390" y="416"/>
      <point x="306" y="416" type="curve" smooth="yes" name="sv03"/>
      <point x="100" y="416" type="line"/>
      <point x="100" y="320" type="line"/>
      <point x="310" y="320" type="line" smooth="yes" name="dv01"/>
      <point x="429" y="320"/>
      <point x="475" y="282"/>
      <point x="475" y="210" type="curve" smooth="yes"/>
      <point x="475" y="140"/>
      <point x="432" y="100"/>
      <point x="324" y="100" type="curve" smooth="yes" name="sv01"/>
    </contour>
  </outline>
</glyph>
<glyph name="D" format="2">
  <advance width="722"/>
  <unicode hex="0044"/>
  <anchor x="318" y="719" name="top"/>
  <anchor x="318" y="-20" name="bottom"/>
  <outline>
    <contour>
      <point x="194" y="100" type="line" name="sv01"/>
      <point x="194" y="600" type="line" name="sv02"/>
      <point x="310.635" y="600" type="line" smooth="yes"/>
      <point x="457.056" y="600"/>
      <point x="555" y="499"/>
      <point x="555" y="349" type="curve" smooth="yes"/>
      <point x="555" y="197"/>
      <point x="454.088" y="100"/>
      <point x="310.635" y="100" type="curve" smooth="yes"/>
    </contour>
    <contour>
      <point x="74" y="0" type="line" name="ab01"/>
      <point x="331" y="0" type="line" smooth="yes"/>
      <point x="538" y="0"/>
      <point x="679" y="141"/>
      <point x="679" y="350" type="curve" smooth="yes"/>
      <point x="679" y="558"/>
      <point x="537" y="700"/>
      <point x="331" y="700" type="curve" smooth="yes" name="at01"/>
      <point x="74" y="700" type="line"/>
    </contour>
  </outline>
</glyph>
<glyph name="J" format="2">
  <advance width="540"/>
  <unicode hex="004A"/>
  <anchor x="248" y="-20" name="bottom"/>
  <anchor x="418" y="719" name="top"/>
  <outline>
    <contour>
      <point x="6" y="122" type="line"/>
      <point x="72" y="25"/>
      <point x="146" y="-20"/>
      <point x="251" y="-20" type="curve" smooth="yes" name="dv01"/>
      <point x="394" y="-20"/>
      <point x="476" y="64"/>
      <point x="476" y="222" type="curve" smooth="yes"/>
      <point x="476" y="700" type="line" name="at01"/>
      <point x="356" y="700" type="line"/>
      <point x="356" y="230" type="line" smooth="yes"/>
      <point x="356" y="127"/>
      <point x="322" y="80"/>
      <point x="251" y="80" type="curve" smooth="yes" name="dv02"/>
      <point x="191" y="80"/>
      <point x="127" y="114"/>
      <point x="77" y="193" type="curve"/>
    </contour>
  </outline>
</glyph>
<glyph name="K" format="2">
  <advance width="670"/>
  <unicode hex="004B"/>
  <anchor x="335" y="-20" name="bottom"/>
  <anchor x="335" y="719" name="top"/>
  <outline>
    <contour>
      <point x="198" y="0" type="line"/>
      <point x="198" y="700" type="line" name="av02"/>
      <point x="78" y="700" type="line"/>
      <point x="78" y="0" type="line" name="av01"/>
    </contour>
    <contour>
      <point x="320" y="312" type="line"/>
      <point x="493" y="0" type="line"/>
      <point x="633" y="0" type="line"/>
      <point x="421" y="367" type="line"/>
      <point x="629" y="700" type="line"/>
      <point x="488" y="700" type="line"/>
      <point x="327" y="410" type="line"/>
      <point x="101" y="410" type="line"/>
      <point x="110" y="312" type="line"/>
    </contour>
  </outline>
</glyph>
<glyph name="M" format="2">
  <advance width="908"/>
  <unicode hex="004D"/>
  <anchor x="454" y="719" name="top"/>
  <anchor x="454" y="-20" name="bottom"/>
  <outline>
    <contour>
      <point x="207" y="464" type="line" name="iv01"/>
      <point x="423" y="0" type="line" name="ab01"/>
      <point x="485" y="0" type="line"/>
      <point x="701" y="464" type="line" name="iv02"/>
      <point x="701" y="0" type="line" name="ab02"/>
      <point x="821" y="0" type="line"/>
      <point x="821" y="700" type="line" name="at01"/>
      <point x="701" y="700" type="line"/>
      <point x="454" y="170" type="line" name="iv03"/>
      <point x="207" y="700" type="line" name="at02"/>
      <point x="87" y="700" type="line"/>
      <point x="87" y="0" type="line" name="ab03"/>
      <point x="207" y="0" type="line"/>
    </contour>
  </outline>
</glyph>
<glyph name="a" format="2">
  <advance width="645"/>
  <unicode hex="0061"/>
  <anchor x="323" y="520" name="top"/>
  <anchor x="323" y="-20" name="bottom"/>
  <anchor x="556" y="-2" name="ogonek"/>
  <outline>
    <contour>
      <point x="442" y="0" type="line" name="ab01"/>
      <point x="562" y="0" type="line"/>
      <point x="562" y="500" type="line" name="av01"/>
      <point x="442" y="500" type="line"/>
    </contour>
    <contour>
      <point x="464" y="248" type="curve" smooth="yes"/>
      <point x="464" y="422"/>
      <point x="394" y="520"/>
      <point x="264" y="520" type="curve" smooth="yes" name="at01"/>
      <point x="127" y="520"/>
      <point x="50" y="411"/>
      <point x="50" y="259" type="curve" smooth="yes"/>
      <point x="50" y="99"/>
      <point x="136" y="-20"/>
      <point x="273" y="-20" type="curve" smooth="yes" name="dv01"/>
      <point x="397" y="-20"/>
      <point x="464" y="78"/>
    </contour>
    <contour>
      <point x="170" y="256.518" type="curve" smooth="yes"/>
      <point x="170" y="365.822"/>
      <point x="218" y="430"/>
      <point x="298" y="430" type="curve" smooth="yes" name="sv01"/>
      <point x="383" y="430"/>
      <point x="442" y="357.799"/>
      <point x="442" y="253.51" type="curve" smooth="yes"/>
      <point x="442" y="151.226"/>
      <point x="385" y="70"/>
      <point x="301" y="70" type="curve" smooth="yes" name="dv02"/>
      <point x="221" y="70"/>
      <point x="170" y="143.203"/>
    </contour>
  </outline>
</glyph>
<glyph name="b" format="2">
  <advance width="635"/>
  <unicode hex="0062"/>
  <anchor x="345" y="-20" name="bottom"/>
  <anchor x="353" y="750" name="top"/>
  <outline>
    <contour>
      <point x="203" y="0" type="line" name="ab02"/>
      <point x="203" y="750" type="line" name="ab01"/>
      <point x="83" y="750" type="line" name="sh01"/>
      <point x="83" y="0" type="line"/>
    </contour>
    <contour>
      <point x="181" y="255" type="curve" smooth="yes"/>
      <point x="181" y="78"/>
      <point x="246" y="-20"/>
      <point x="367.316" y="-20" type="curve" smooth="yes" name="dv01"/>
      <point x="501" y="-20"/>
      <point x="585" y="99"/>
      <point x="585" y="255" type="curve" smooth="yes"/>
      <point x="585" y="411"/>
      <point x="510" y="520"/>
      <point x="376.03" y="520" type="curve" smooth="yes" name="at01"/>
      <point x="249" y="520"/>
      <point x="181" y="422"/>
    </contour>
    <contour>
      <point x="465" y="255.515" type="curve" smooth="yes"/>
      <point x="465" y="144.206"/>
      <point x="415" y="70"/>
      <point x="338" y="70" type="curve" smooth="yes" name="dv02"/>
      <point x="258" y="70"/>
      <point x="203" y="151.226"/>
      <point x="203" y="256.518" type="curve" smooth="yes"/>
      <point x="203" y="357.799"/>
      <point x="260" y="430"/>
      <point x="339" y="430" type="curve" smooth="yes" name="sv01"/>
      <point x="418" y="430"/>
      <point x="465" y="364.819"/>
    </contour>
  </outline>
</glyph>
<glyph name="c" format="2">
  <advance width="563"/>
  <unicode hex="0063"/>
  <anchor x="303" y="520" name="top"/>
  <anchor x="303" y="-20" name="bottom"/>
  <outline>
    <contour>
      <point x="448" y="138" type="line"/>
      <point x="418" y="95.3731"/>
      <point x="350" y="70"/>
      <point x="299" y="70" type="curve" smooth="yes" name="dv02"/>
      <point x="191" y="68.9972"/>
      <point x="170" y="167.544"/>
      <point x="170" y="255.029" type="curve" smooth="yes"/>
      <point x="170" y="373.688"/>
      <point x="211" y="430"/>
      <point x="297" y="430" type="curve" smooth="yes" name="sv01"/>
      <point x="352" y="430"/>
      <point x="410" y="406.657"/>
      <point x="442" y="362" type="curve"/>
      <point x="510" y="430" type="line"/>
      <point x="468" y="483"/>
      <point x="392" y="520"/>
      <point x="294" y="520" type="curve" smooth="yes"/>
      <point x="138" y="520"/>
      <point x="50" y="421"/>
      <point x="50" y="255" type="curve" smooth="yes"/>
      <point x="50" y="79"/>
      <point x="138" y="-20"/>
      <point x="293" y="-20" type="curve" smooth="yes" name="dv01"/>
      <point x="393" y="-20"/>
      <point x="474" y="17"/>
      <point x="516" y="70" type="curve"/>
    </contour>
  </outline>
</glyph>
<glyph name="d" format="2">
  <advance width="635"/>
  <unicode hex="0064"/>
  <anchor x="295" y="-20" name="bottom"/>
  <anchor x="291" y="750" name="top"/>
  <anchor x="590" y="750" name="topright"/>
  <outline>
    <contour>
      <point x="432" y="0" type="line" name="ab02"/>
      <point x="552" y="0" type="line"/>
      <point x="552" y="750" type="line" name="ab01"/>
      <point x="432" y="750" type="line"/>
    </contour>
    <contour>
      <point x="454" y="255" type="curve" smooth="yes"/>
      <point x="454" y="422"/>
      <point x="386" y="520"/>
      <point x="266" y="520" type="curve" smooth="yes" name="at01"/>
      <point x="125" y="520"/>
      <point x="50" y="411"/>
      <point x="50" y="255" type="curve" smooth="yes"/>
      <point x="50" y="99"/>
      <point x="134" y="-20"/>
      <point x="272" y="-20" type="curve" smooth="yes" name="dv01"/>
      <point x="389" y="-20"/>
      <point x="454" y="78"/>
    </contour>
    <contour>
      <point x="170" y="255.515" type="curve" smooth="yes"/>
      <point x="170" y="366.825"/>
      <point x="215" y="430"/>
      <point x="296" y="430" type="curve" smooth="yes" name="sv01"/>
      <point x="375" y="430"/>
      <point x="432" y="357.799"/>
      <point x="432" y="256.518" type="curve" smooth="yes"/>
      <point x="432" y="151.226"/>
      <point x="377" y="70"/>
      <point x="297" y="70" type="curve" smooth="yes" name="dv02"/>
      <point x="219" y="70"/>
      <point x="170" y="142.201"/>
    </contour>
  </outline>
</glyph>
<glyph name="f" format="2">
  <advance width="413"/>
  <unicode hex="0066"/>
  <anchor x="240" y="750" name="top"/>
  <anchor x="173" y="-20" name="bottom"/>
  <outline>
    <contour>
      <point x="114" y="0" type="line" name="ab01"/>
      <point x="234" y="0" type="line"/>
      <point x="234" y="410" type="line" name="sv01"/>
      <point x="380" y="410" type="line"/>
      <point x="380" y="500" type="line" name="sv02"/>
      <point x="234" y="500" type="line"/>
      <point x="234" y="579" type="line" smooth="yes"/>
      <point x="234" y="633"/>
      <point x="252" y="660"/>
      <point x="290" y="660" type="curve" smooth="yes" name="dv01"/>
      <point x="304" y="660"/>
      <point x="338" y="656"/>
      <point x="361" y="648" type="curve"/>
      <point x="376" y="728" type="line"/>
      <point x="321" y="745.217"/>
      <point x="293" y="750"/>
      <point x="264" y="750" type="curve" smooth="yes" name="dv02"/>
      <point x="169" y="750"/>
      <point x="114" y="698.207"/>
      <point x="114" y="607.57" type="curve" smooth="yes"/>
      <point x="114" y="500" type="line" name="dv04"/>
      <point x="22" y="500" type="line"/>
      <point x="22" y="410" type="line"/>
      <point x="114" y="410" type="line" name="dv03"/>
    </contour>
  </outline>
</glyph>
<glyph name="h" format="2">
  <advance width="635"/>
  <unicode hex="0068"/>
  <anchor x="318" y="-20" name="bottom"/>
  <anchor x="144" y="750" name="top"/>
  <outline>
    <contour>
      <point x="84" y="0" type="line" name="ab03"/>
      <point x="204" y="0" type="line"/>
      <point x="204" y="750" type="line" name="ab01"/>
      <point x="84" y="750" type="line"/>
    </contour>
    <contour>
      <point x="431" y="0" type="line" name="ab01"/>
      <point x="551" y="0" type="line"/>
      <point x="551" y="314" type="line" smooth="yes"/>
      <point x="551" y="458"/>
      <point x="484" y="520"/>
      <point x="380" y="520" type="curve" smooth="yes" name="at01"/>
      <point x="287" y="520"/>
      <point x="210" y="452"/>
      <point x="196" y="355" type="curve"/>
      <point x="197" y="280" type="line"/>
      <point x="204" y="217" type="line" name="iv01"/>
      <point x="204" y="345.204"/>
      <point x="252" y="430"/>
      <point x="340" y="430" type="curve" smooth="yes" name="sv01"/>
      <point x="399" y="430"/>
      <point x="431" y="399.86"/>
      <point x="431" y="291.355" type="curve" smooth="yes"/>
    </contour>
  </outline>
</glyph>
<glyph name="l" format="2">
  <advance width="350"/>
  <unicode hex="006C"/>
  <anchor x="148" y="750" name="top"/>
  <anchor x="200" y="-20" name="bottom"/>
  <anchor x="250" y="750" name="topright"/>
  <outline>
    <contour>
      <point x="314" y="88" type="line"/>
      <point x="296" y="79"/>
      <point x="273" y="73"/>
      <point x="252" y="73" type="curve" smooth="yes" name="dv02"/>
      <point x="216" y="73"/>
      <point x="204" y="90"/>
      <point x="204" y="161" type="curve" smooth="yes"/>
      <point x="204" y="750" type="line" name="ab01"/>
      <point x="84" y="750" type="line"/>
      <point x="84" y="132" type="line" smooth="yes"/>
      <point x="84" y="30"/>
      <point x="126" y="-20"/>
      <point x="233" y="-20" type="curve" smooth="yes" name="dv01"/>
      <point x="263" y="-20"/>
      <point x="284" y="-16"/>
      <point x="330" y="2" type="curve"/>
    </contour>
  </outline>
</glyph>
<glyph name="x" format="2">
  <advance width="574"/>
  <unicode hex="0078"/>
  <anchor x="287" y="520" name="top"/>
  <anchor x="287" y="-20" name="bottom"/>
  <outline>
    <contour>
      <point x="42" y="0" type="line" name="ab01"/>
      <point x="179" y="0" type="line"/>
      <point x="287" y="203" type="line" name="iv01"/>
      <point x="395" y="0" type="line" name="ab02"/>
      <point x="534" y="0" type="line"/>
      <point x="382.491" y="261.985" type="line"/>
      <point x="372.497" y="236.012" type="line"/>
      <point x="525" y="500" type="line" name="av02"/>
      <point x="386" y="500" type="line"/>
      <point x="270.955" y="283.757" type="line" name="iv02"/>
      <point x="305.045" y="283.757" type="line"/>
      <point x="190" y="500" type="line"/>
      <point x="51" y="500" type="line" name="av01"/>
      <point x="203.503" y="236.012" type="line"/>
      <point x="193.509" y="261.985" type="line"/>
    </contour>
  </outline>
</glyph>
<glyph name="cent" format="2">
  <advance width="563"/>
  <unicode hex="00A2"/>
  <outline>
    <contour>
      <point x="277" y="610" type="line"/>
      <point x="327" y="610" type="line"/>
      <point x="327" y="730" type="line"/>
      <point x="277" y="730" type="line"/>
    </contour>
    <contour>
      <point x="278" y="-31" type="line"/>
      <point x="326" y="-31" type="line"/>
      <point x="326" y="90" type="line"/>
      <point x="278" y="89" type="line"/>
    </contour>
    <contour>
      <point x="448" y="238" type="line"/>
      <point x="418" y="195.373"/>
      <point x="350" y="170"/>
      <point x="299" y="170" type="curve" name="dv02"/>
      <point x="191" y="168.997"/>
      <point x="170" y="267.544"/>
      <point x="170" y="355.029" type="curve" smooth="yes"/>
      <point x="170" y="473.688"/>
      <point x="211" y="530"/>
      <point x="297" y="530" type="curve" smooth="yes" name="sv01"/>
      <point x="352" y="530"/>
      <point x="410" y="506.657"/>
      <point x="442" y="462" type="curve"/>
      <point x="510" y="530" type="line"/>
      <point x="468" y="583"/>
      <point x="392" y="620"/>
      <point x="294" y="620" type="curve" smooth="yes" name="at01"/>
      <point x="138" y="620"/>
      <point x="50" y="521"/>
      <point x="50" y="355" type="curve" smooth="yes"/>
      <point x="50" y="179"/>
      <point x="138" y="80"/>
      <point x="293" y="80" type="curve" smooth="yes" name="dv01"/>
      <point x="393" y="80"/>
      <point x="474" y="117"/>
      <point x="516" y="170" type="curve"/>
    </contour>
  </outline>
</glyph>
<glyph name="paragraph" format="2">
  <advance width="590"/>
  <unicode hex="00B6"/>
  <outline>
    <contour>
      <point x="338" y="-132" type="line"/>
      <point x="386" y="-132" type="line"/>
      <point x="386" y="731" type="line"/>
      <point x="476" y="731" type="line"/>
      <point x="476" y="-132" type="line"/>
      <point x="524" y="-132" type="line"/>
      <point x="524" y="751" type="line"/>
      <point x="308" y="751" type="line" smooth="yes"/>
      <point x="129" y="751"/>
      <point x="50" y="663"/>
      <point x="50" y="523" type="curve" smooth="yes"/>
      <point x="50" y="383"/>
      <point x="108" y="282"/>
      <point x="308" y="282" type="curve" smooth="yes"/>
      <point x="338" y="282" type="line"/>
    </contour>
  </outline>
</glyph>
<glyph name="onesuperior" format="2">
  <advance width="333"/>
  <unicode hex="00B9"/>
  <outline>
    <contour>
      <point x="199" y="343" type="line"/>
      <point x="292" y="343" type="line"/>
      <point x="292" y="828" type="line"/>
      <point x="218" y="828" type="line"/>
      <point x="183" y="765"/>
      <point x="98" y="714"/>
      <point x="27" y="700" type="curve"/>
      <point x="27" y="623" type="line"/>
      <point x="117" y="644"/>
      <point x="167" y="665"/>
      <point x="199" y="702" type="curve"/>
    </contour>
  </outline>
</glyph>
<glyph name="germandbls" format="2">
  <advance width="725"/>
  <unicode hex="00DF"/>
  <outline>
    <contour>
      <point x="192" y="0" type="line"/>
      <point x="192" y="515" type="line" smooth="yes"/>
      <point x="192" y="607"/>
      <point x="242.41" y="659"/>
      <point x="334.828" y="659" type="curve" smooth="yes"/>
      <point x="393.64" y="659"/>
      <point x="443" y="637.964"/>
      <point x="443" y="581.869" type="curve" smooth="yes"/>
      <point x="443" y="495.723"/>
      <point x="361" y="465.655"/>
      <point x="361" y="367.505" type="curve" smooth="yes"/>
      <point x="361" y="244.296"/>
      <point x="550" y="249.304"/>
      <point x="550" y="140.119" type="curve" smooth="yes"/>
      <point x="550" y="91.036"/>
      <point x="507" y="70"/>
      <point x="454" y="70" type="curve" smooth="yes"/>
      <point x="400" y="70"/>
      <point x="369" y="92.328"/>
      <point x="332" y="138" type="curve"/>
      <point x="268" y="74" type="line"/>
      <point x="312" y="11"/>
      <point x="385" y="-20"/>
      <point x="466" y="-20" type="curve" smooth="yes"/>
      <point x="586" y="-20"/>
      <point x="667" y="48"/>
      <point x="667" y="146" type="curve" smooth="yes"/>
      <point x="667" y="306"/>
      <point x="481" y="297"/>
      <point x="481" y="383" type="curve" smooth="yes"/>
      <point x="481" y="445"/>
      <point x="563" y="472"/>
      <point x="563" y="585" type="curve" smooth="yes"/>
      <point x="563" y="687"/>
      <point x="469.72" y="749"/>
      <point x="329.288" y="749" type="curve" smooth="yes"/>
      <point x="181.681" y="749"/>
      <point x="72" y="680"/>
      <point x="72" y="545" type="curve" smooth="yes"/>
      <point x="72" y="0" type="line"/>
    </contour>
  </outline>
</glyph>
<glyph name="eth" format="2">
  <advance width="636"/>
  <unicode hex="00F0"/>
  <outline>
    <contour>
      <point x="152" y="631" type="line"/>
      <point x="266" y="581"/>
      <point x="422" y="469"/>
      <point x="473" y="381" type="curve"/>
      <point x="443" y="433"/>
      <point x="383" y="471"/>
      <point x="298" y="471" type="curve" smooth="yes"/>
      <point x="167" y="471"/>
      <point x="59" y="377"/>
      <point x="59" y="230" type="curve" smooth="yes"/>
      <point x="59" y="85"/>
      <point x="163" y="-20"/>
      <point x="318" y="-20" type="curve" smooth="yes"/>
      <point x="470" y="-20"/>
      <point x="577" y="82"/>
      <point x="577" y="257" type="curve" smooth="yes"/>
      <point x="577" y="415"/>
      <point x="511" y="553"/>
      <point x="193" y="708" type="curve"/>
    </contour>
    <contour>
      <point x="318" y="381" type="curve" smooth="yes"/>
      <point x="400" y="381"/>
      <point x="457" y="327"/>
      <point x="457" y="231" type="curve" smooth="yes"/>
      <point x="457" y="138"/>
      <point x="403" y="71"/>
      <point x="315" y="71" type="curve" smooth="yes"/>
      <point x="234" y="71"/>
      <point x="179" y="127"/>
      <point x="179" y="225" type="curve" smooth="yes"/>
      <point x="179" y="321"/>
      <point x="231" y="381"/>
    </contour>
    <contour>
      <point x="315" y="600" type="line"/>
      <point x="156" y="539" type="line"/>
      <point x="174" y="497" type="line"/>
      <point x="349" y="574" type="line"/>
    </contour>
    <contour>
      <point x="349" y="574" type="line"/>
      <point x="506" y="634" type="line"/>
      <point x="488" y="677" type="line"/>
      <point x="315" y="600" type="line"/>
    </contour>
  </outline>
</glyph>
<glyph name="Eogonek" format="2">
  <advance width="550"/>
  <unicode hex="0118"/>
  <anchor x="275" y="719" name="top"/>
  <anchor x="275" y="-20" name="bottom"/>
  <anchor x="-28" y="500" name="topgr"/>
  <outline>
    <contour>
      <point x="74" y="0" type="line"/>
      <point x="495" y="0" type="line" name="ab01"/>
      <point x="495" y="100" type="line" name="sv01"/>
      <point x="194" y="100" type="line"/>
      <point x="194" y="315" type="line" name="dv01"/>
      <point x="455" y="315" type="line"/>
      <point x="455" y="415" type="line"/>
      <point x="194" y="415" type="line" name="dv02"/>
      <point x="194" y="600" type="line" name="sv02"/>
      <point x="480" y="600" type="line"/>
      <point x="480" y="700" type="line" name="at01"/>
      <point x="74" y="700" type="line"/>
    </contour>
    <contour>
      <point x="496" y="-182" type="line"/>
      <point x="452" y="-168"/>
      <point x="430" y="-137"/>
      <point x="430" y="-103" type="curve" smooth="yes"/>
      <point x="430" y="-66"/>
      <point x="455" y="-24"/>
      <point x="495" y="0" type="curve"/>
      <point x="472" y="3" type="line"/>
      <point x="389" y="-13"/>
      <point x="337" y="-55"/>
      <point x="337" y="-109" type="curve" smooth="yes"/>
      <point x="337" y="-158"/>
      <point x="381" y="-195"/>
      <point x="449" y="-205" type="curve"/>
    </contour>
  </outline>
</glyph>
<glyph name="hbar" format="2">
  <advance width="641"/>
  <unicode hex="0127"/>
  <outline>
    <contour>
      <point x="90" y="0" type="line" name="ab03"/>
      <point x="210" y="0" type="line"/>
      <point x="210" y="750" type="line" name="ab01"/>
      <point x="90" y="750" type="line"/>
    </contour>
    <contour>
      <point x="203" y="260" type="line"/>
      <point x="210" y="197" type="line" name="iv01"/>
      <point x="210" y="325.204"/>
      <point x="258" y="410"/>
      <point x="346" y="410" type="curve" smooth="yes" name="sv01"/>
      <point x="405" y="410"/>
      <point x="437" y="379.86"/>
      <point x="437" y="271.355" type="curve" smooth="yes"/>
      <point x="437" y="0" type="line" name="ab01"/>
      <point x="557" y="0" type="line"/>
      <point x="557" y="294" type="line" smooth="yes"/>
      <point x="557" y="438"/>
      <point x="490" y="500"/>
      <point x="386" y="500" type="curve" smooth="yes" name="at01"/>
      <point x="293" y="500"/>
      <point x="216" y="432"/>
      <point x="202" y="335" type="curve"/>
    </contour>
    <contour>
      <point x="15.8" y="631" type="line"/>
      <point x="407.464" y="631" type="line"/>
      <point x="407.464" y="665" type="line"/>
      <point x="15.8" y="665" type="line"/>
    </contour>
  </outline>
</glyph>
<glyph name="lslash" format="2">
  <advance width="350"/>
  <unicode hex="0142"/>
  <outline>
    <contour>
      <point x="314" y="88" type="line"/>
      <point x="296" y="79"/>
      <point x="273" y="73"/>
      <point x="252" y="73" type="curve" smooth="yes" name="dv02"/>
      <point x="216" y="73"/>
      <point x="204" y="90"/>
      <point x="204" y="161" type="curve" smooth="yes"/>
      <point x="204" y="750" type="line" name="ab01"/>
      <point x="84" y="750" type="line"/>
      <point x="84" y="132" type="line" smooth="yes"/>
      <point x="84" y="30"/>
      <point x="126" y="-20"/>
      <point x="233" y="-20" type="curve" smooth="yes" name="dv01"/>
      <point x="263" y="-20"/>
      <point x="284" y="-16"/>
      <point x="330" y="2" type="curve"/>
    </contour>
    <contour>
      <point x="6" y="250" type="line"/>
      <point x="307" y="456" type="line"/>
      <point x="307" y="497" type="line"/>
      <point x="6" y="291" type="line"/>
    </contour>
  </outline>
</glyph>
<glyph name="Eng" format="2">
  <advance width="752"/>
  <unicode hex="014A"/>
  <anchor x="376" y="719" name="top"/>
  <anchor x="384" y="-190" name="bottom"/>
  <outline>
    <contour>
      <point x="207" y="0" type="line" name="ab01"/>
      <point x="207" y="515" type="line" name="iv01"/>
      <point x="555" y="0" type="line" name="ab02"/>
      <point x="665" y="24.9984" type="line"/>
      <point x="665" y="700" type="line" name="at01"/>
      <point x="545" y="700" type="line"/>
      <point x="545" y="185" type="line" name="iv02"/>
      <point x="197" y="700" type="line" name="at02"/>
      <point x="87" y="700" type="line"/>
      <point x="87" y="0" type="line"/>
    </contour>
    <contour>
      <point x="195" y="-78" type="line"/>
      <point x="261" y="-175"/>
      <point x="335" y="-220"/>
      <point x="440" y="-220" type="curve" smooth="yes" name="dv01"/>
      <point x="583" y="-220"/>
      <point x="665" y="-136"/>
      <point x="665" y="22" type="curve" smooth="yes"/>
      <point x="665" y="500" type="line" name="at01"/>
      <point x="545" y="500" type="line"/>
      <point x="545" y="30" type="line" smooth="yes"/>
      <point x="545" y="-73"/>
      <point x="511" y="-120"/>
      <point x="440" y="-120" type="curve" smooth="yes" name="dv02"/>
      <point x="380" y="-120"/>
      <point x="316" y="-86"/>
      <point x="266" y="-7" type="curve"/>
    </contour>
  </outline>
</glyph>
<glyph name="Tbar" format="2">
  <advance width="648"/>
  <unicode hex="0166"/>
  <anchor x="324" y="719" name="top"/>
  <anchor x="324" y="-20" name="bottom"/>
  <outline>
    <contour>
      <point x="264" y="0" type="line" name="ab01"/>
      <point x="384" y="0" type="line"/>
      <point x="384" y="600" type="line" name="sv02"/>
      <point x="617" y="600" type="line" name="sv03"/>
      <point x="617" y="700" type="line"/>
      <point x="31" y="700" type="line" name="at01"/>
      <point x="31" y="600" type="line" name="sv01"/>
      <point x="264" y="600" type="line"/>
    </contour>
    <contour>
      <point x="74" y="338" type="line"/>
      <point x="574" y="338" type="line"/>
      <point x="574" y="374" type="line"/>
      <point x="74" y="374" type="line"/>
    </contour>
  </outline>
</glyph>
<glyph name="tbar" format="2">
  <advance width="365"/>
  <unicode hex="0167"/>
  <outline>
    <contour>
      <point x="15" y="410" type="line" name="dv03"/>
      <point x="325" y="410" type="line"/>
      <point x="325" y="500" type="line"/>
      <point x="15" y="500" type="line" name="dv04"/>
    </contour>
    <contour>
      <point x="329" y="89" type="line"/>
      <point x="297" y="74.2632"/>
      <point x="282" y="69"/>
      <point x="266" y="69" type="curve" smooth="yes" name="dv02"/>
      <point x="235" y="69"/>
      <point x="225" y="88.0339"/>
      <point x="225" y="148.141" type="curve" smooth="yes"/>
      <point x="225" y="620" type="line" name="av01"/>
      <point x="105" y="620" type="line"/>
      <point x="105" y="132" type="line" smooth="yes"/>
      <point x="105" y="29"/>
      <point x="146" y="-21"/>
      <point x="228" y="-21" type="curve" smooth="yes" name="dv01"/>
      <point x="263" y="-21"/>
      <point x="298" y="-12"/>
      <point x="348" y="7" type="curve"/>
    </contour>
    <contour>
      <point x="15.27" y="209.7" type="line"/>
      <point x="315.13" y="209.7" type="line"/>
      <point x="315.13" y="289.24" type="line"/>
      <point x="15.27" y="289.24" type="line"/>
    </contour>
  </outline>
</glyph>
<glyph name="Schwa" format="2">
  <advance width="779"/>
  <unicode hex="018F"/>
  <anchor x="390" y="719" name="top"/>
  <anchor x="390" y="-20" name="bottom"/>
  <outline>
    <contour>
      <point x="619" y="308" type="line" name="dv05"/>
      <point x="618" y="408" type="line" name="dv06"/>
      <point x="57" y="408" type="line" name="sh04"/>
      <point x="55.25" y="393" name=".dv02"/>
      <point x="53.5" y="371"/>
      <point x="53.5" y="345" type="curve" smooth="yes" name="sh01"/>
      <point x="53.5" y="129"/>
      <point x="187.4" y="-20"/>
      <point x="390.25" y="-20" type="curve" smooth="yes" name="dv01"/>
      <point x="593.099" y="-20"/>
      <point x="726" y="129"/>
      <point x="726" y="356" type="curve" smooth="yes" name="sh03"/>
      <point x="726" y="582"/>
      <point x="595" y="720"/>
      <point x="379" y="720" type="curve" smooth="yes"/>
      <point x="264" y="720"/>
      <point x="175" y="681"/>
      <point x="109" y="599" type="curve"/>
      <point x="180" y="528" type="line"/>
      <point x="233" y="589.67" name=".sh02"/>
      <point x="295" y="620"/>
      <point x="379" y="620" type="curve" smooth="yes"/>
      <point x="525" y="620" name=".dv01"/>
      <point x="607" y="527.658"/>
      <point x="607" y="352.007" type="curve" smooth="yes"/>
      <point x="607" y="178.364" name=".sh01"/>
      <point x="526.908" y="80"/>
      <point x="390.751" y="80" type="curve" smooth="yes" name="dv02"/>
      <point x="264.605" y="80" name=".sh03"/>
      <point x="183.512" y="165.374" name=".dv03"/>
      <point x="173.5" y="308" type="curve" name="sh02"/>
    </contour>
  </outline>
</glyph>
<glyph name="dotlessj" format="2">
  <advance width="290"/>
  <unicode hex="0237"/>
  <anchor x="162" y="520" name="top"/>
  <anchor x="100" y="-217" name="bottom"/>
  <outline>
    <contour>
      <point x="-22" y="-198" type="line"/>
      <point x="23" y="-212"/>
      <point x="35.486" y="-221"/>
      <point x="93.459" y="-221" type="curve" smooth="yes" name="dv01"/>
      <point x="175.514" y="-221"/>
      <point x="221" y="-174"/>
      <point x="221" y="-68" type="curve" smooth="yes"/>
      <point x="221" y="500" type="line"/>
      <point x="101" y="500" type="line" name="av01"/>
      <point x="101" y="-39" type="line" smooth="yes"/>
      <point x="101" y="-106"/>
      <point x="94.9" y="-128"/>
      <point x="60.59" y="-128" type="curve" smooth="yes" name="dv02"/>
      <point x="47.628" y="-128"/>
      <point x="25" y="-123"/>
      <point x="3" y="-114" type="curve"/>
    </contour>
  </outline>
</glyph>
<glyph name="caron" format="2">
  <advance width="346"/>
  <unicode hex="02C7"/>
  <outline>
    <contour>
      <point x="129" y="550" type="line"/>
      <point x="217" y="550" type="line"/>
      <point x="319" y="701" type="line"/>
      <point x="234" y="701" type="line"/>
      <point x="173" y="595" type="line"/>
      <point x="112" y="701" type="line"/>
      <point x="27" y="701" type="line"/>
    </contour>
  </outline>
</glyph>
<glyph name="dotaccent" format="2">
  <advance width="211"/>
  <unicode hex="02D9"/>
  <outline>
    <contour>
      <point x="41" y="617" type="curve" smooth="yes"/>
      <point x="41" y="589"/>
      <point x="63" y="554"/>
      <point x="107" y="554" type="curve" smooth="yes" name="dv01"/>
      <point x="149" y="554"/>
      <point x="170" y="585"/>
      <point x="170" y="617" type="curve" smooth="yes"/>
      <point x="170" y="649"/>
      <point x="149" y="678"/>
      <point x="107" y="678" type="curve" smooth="yes" name="dv02"/>
      <point x="63" y="678"/>
      <point x="41" y="645"/>
    </contour>
  </outline>
</glyph>
<glyph name="ring" format="2">
  <advance width="270"/>
  <unicode hex="02DA"/>
  <outline>
    <contour>
      <point x="27" y="622" type="curve" smooth="yes"/>
      <point x="27" y="559.829"/>
      <point x="70" y="520"/>
      <point x="135" y="520" type="curve" smooth="yes"/>
      <point x="200" y="520"/>
      <point x="243" y="559.829"/>
      <point x="243" y="622" type="curve" smooth="yes"/>
      <point x="243" y="683.2"/>
      <point x="200" y="724"/>
      <point x="135" y="724" type="curve" smooth="yes"/>
      <point x="70" y="724"/>
      <point x="27" y="683.2"/>
    </contour>
    <contour>
      <point x="80" y="622" type="curve" smooth="yes"/>
      <point x="80" y="654.179"/>
      <point x="102" y="675"/>
      <point x="135" y="675" type="curve" smooth="yes"/>
      <point x="168" y="675"/>
      <point x="190" y="654.179"/>
      <point x="190" y="622" type="curve" smooth="yes"/>
      <point x="190" y="589.821"/>
      <point x="168" y="569"/>
      <point x="135" y="569" type="curve" smooth="yes"/>
      <point x="102" y="569"/>
      <point x="80" y="588.875"/>
    </contour>
  </outline>
</glyph>
<glyph name="questiongreek" format="2">
  <advance width="277"/>
  <unicode hex="037E"/>
  <outline>
    <component base="period" xOffset="7" yOffset="381"/>
    <contour>
      <point x="168" y="119" type="line"/>
      <point x="100" y="119" type="line"/>
      <point x="-9" y="-149" type="line"/>
      <point x="96" y="-149" type="line"/>
    </contour>
  </outline>
</glyph>
<glyph name="anoteleia" format="2">
  <advance width="262"/>
  <unicode hex="0387"/>
  <outline>
    <contour>
      <point x="131" y="361" type="curve" smooth="yes"/>
      <point x="169" y="361"/>
      <point x="199" y="392"/>
      <point x="199" y="430" type="curve" smooth="yes"/>
      <point x="199" y="467"/>
      <point x="169" y="496"/>
      <point x="131" y="496" type="curve" smooth="yes"/>
      <point x="92" y="496"/>
      <point x="63" y="467"/>
      <point x="63" y="430" type="curve" smooth="yes"/>
      <point x="63" y="392"/>
      <point x="92" y="361"/>
    </contour>
  </outline>
</glyph>
<glyph name="alpha" format="2">
  <advance width="673"/>
  <unicode hex="03B1"/>
  <anchor x="310" y="520" name="topgr"/>
  <outline>
    <contour>
      <point x="471" y="0" type="line"/>
      <point x="471" y="89.6141"/>
      <point x="471.275" y="203.396"/>
      <point x="447.356" y="291.404" type="curve" smooth="yes"/>
      <point x="425.634" y="371.331"/>
      <point x="383.958" y="430"/>
      <point x="304" y="430" type="curve" smooth="yes"/>
      <point x="219" y="430"/>
      <point x="170" y="363"/>
      <point x="170" y="253" type="curve" smooth="yes"/>
      <point x="170" y="140"/>
      <point x="222" y="70"/>
      <point x="308" y="70" type="curve" smooth="yes"/>
      <point x="405.848" y="70"/>
      <point x="444.605" y="161.841"/>
      <point x="459.951" y="272.463" type="curve" smooth="yes"/>
      <point x="470.325" y="347.25"/>
      <point x="470" y="430.621"/>
      <point x="470" y="500" type="curve"/>
      <point x="590" y="500" type="line"/>
      <point x="590" y="416.598"/>
      <point x="575.445" y="331.902"/>
      <point x="549.096" y="255.754" type="curve" smooth="yes"/>
      <point x="495.199" y="99.9945"/>
      <point x="391.956" y="-20"/>
      <point x="263" y="-20" type="curve" smooth="yes"/>
      <point x="140" y="-20"/>
      <point x="50" y="90"/>
      <point x="50" y="255" type="curve" smooth="yes"/>
      <point x="50" y="423"/>
      <point x="144" y="520"/>
      <point x="273" y="520" type="curve" smooth="yes"/>
      <point x="392.226" y="520"/>
      <point x="480.369" y="436.657"/>
      <point x="533.037" y="312.292" type="curve" smooth="yes"/>
      <point x="570.486" y="223.863"/>
      <point x="590" y="114.695"/>
      <point x="590" y="0" type="curve"/>
    </contour>
  </outline>
</glyph>
<glyph name="delta" format="2">
  <advance width="616"/>
  <unicode hex="03B4"/>
  <anchor x="308" y="721" name="topgr"/>
  <outline>
    <contour>
      <point x="437" y="219" type="curve" smooth="yes"/>
      <point x="437" y="129"/>
      <point x="396" y="70"/>
      <point x="306" y="70" type="curve" smooth="yes"/>
      <point x="220" y="70"/>
      <point x="179" y="123"/>
      <point x="179" y="224" type="curve" smooth="yes"/>
      <point x="179" y="326"/>
      <point x="221" y="377"/>
      <point x="303" y="377" type="curve" smooth="yes"/>
      <point x="398" y="377"/>
      <point x="437" y="307"/>
    </contour>
    <contour>
      <point x="59" y="226" type="curve" smooth="yes"/>
      <point x="59" y="82"/>
      <point x="149" y="-20"/>
      <point x="309" y="-20" type="curve" smooth="yes"/>
      <point x="464" y="-20"/>
      <point x="557" y="75"/>
      <point x="557" y="226" type="curve" smooth="yes"/>
      <point x="557" y="376"/>
      <point x="465" y="467"/>
      <point x="309" y="467" type="curve" smooth="yes"/>
      <point x="148" y="467"/>
      <point x="59" y="369"/>
    </contour>
    <contour>
      <point x="241" y="566.636" type="curve" smooth="yes"/>
      <point x="241" y="604.856"/>
      <point x="266" y="630"/>
      <point x="312" y="630" type="curve" smooth="yes"/>
      <point x="357" y="630"/>
      <point x="401" y="604.561"/>
      <point x="433" y="572" type="curve"/>
      <point x="501" y="640" type="line"/>
      <point x="457" y="683"/>
      <point x="391" y="720"/>
      <point x="306" y="720" type="curve" smooth="yes"/>
      <point x="193" y="720"/>
      <point x="121" y="655"/>
      <point x="121" y="572" type="curve" smooth="yes"/>
      <point x="121" y="489"/>
      <point x="193" y="446"/>
      <point x="307" y="438" type="curve"/>
      <point x="390" y="457" type="line"/>
      <point x="266" y="493.208"/>
      <point x="241" y="528.416"/>
    </contour>
  </outline>
</glyph>
<glyph name="epsilon" format="2">
  <advance width="495"/>
  <unicode hex="03B5"/>
  <anchor x="253" y="520" name="topgr"/>
  <outline>
    <contour>
      <point x="385" y="155" type="line"/>
      <point x="359" y="106"/>
      <point x="315" y="70"/>
      <point x="257" y="70" type="curve" smooth="yes"/>
      <point x="209" y="70"/>
      <point x="170" y="94"/>
      <point x="170" y="133" type="curve" smooth="yes"/>
      <point x="170" y="181"/>
      <point x="225" y="213"/>
      <point x="362" y="213" type="curve"/>
      <point x="362" y="293" type="line"/>
      <point x="224" y="293"/>
      <point x="189" y="322.213"/>
      <point x="189" y="366.537" type="curve" smooth="yes"/>
      <point x="189" y="407.838"/>
      <point x="221" y="430"/>
      <point x="261" y="430" type="curve" smooth="yes"/>
      <point x="300" y="430"/>
      <point x="338" y="407.694"/>
      <point x="377" y="357" type="curve"/>
      <point x="450" y="430" type="line"/>
      <point x="398" y="489"/>
      <point x="330" y="520"/>
      <point x="244" y="520" type="curve" smooth="yes"/>
      <point x="137" y="520"/>
      <point x="69" y="470.79"/>
      <point x="69" y="384.672" type="curve" smooth="yes"/>
      <point x="69" y="312.908"/>
      <point x="106" y="266"/>
      <point x="235" y="254" type="curve"/>
      <point x="102" y="248"/>
      <point x="50" y="198.909"/>
      <point x="50" y="126.591" type="curve" smooth="yes"/>
      <point x="50" y="34.727"/>
      <point x="135" y="-20"/>
      <point x="250" y="-20" type="curve" smooth="yes"/>
      <point x="345" y="-20"/>
      <point x="408" y="17"/>
      <point x="458" y="82" type="curve"/>
    </contour>
  </outline>
</glyph>
<glyph name="zeta" format="2">
  <advance width="560"/>
  <unicode hex="03B6"/>
  <anchor x="280" y="721" name="topgr"/>
  <outline>
    <contour>
      <point x="461.852" y="-200" type="line"/>
      <point x="480.494" y="-181.07"/>
      <point x="501" y="-143.21"/>
      <point x="501" y="-93.395" type="curve" smooth="yes"/>
      <point x="501" y="0.258"/>
      <point x="428" y="70"/>
      <point x="322" y="70" type="curve" smooth="yes"/>
      <point x="220" y="70"/>
      <point x="194" y="135.103"/>
      <point x="194" y="222.242" type="curve" smooth="yes"/>
      <point x="194" y="363.466"/>
      <point x="263" y="460.62"/>
      <point x="482" y="616.868" type="curve"/>
      <point x="482" y="700" type="line"/>
      <point x="59" y="700" type="line"/>
      <point x="59" y="610" type="line"/>
      <point x="359" y="610" type="line"/>
      <point x="155" y="477"/>
      <point x="74" y="356"/>
      <point x="74" y="219" type="curve" smooth="yes"/>
      <point x="74" y="83"/>
      <point x="146.508" y="-20"/>
      <point x="284.274" y="-20" type="curve" smooth="yes"/>
      <point x="362.997" y="-20"/>
      <point x="392" y="-53"/>
      <point x="392" y="-105" type="curve" smooth="yes"/>
      <point x="392" y="-143"/>
      <point x="375" y="-166"/>
      <point x="350" y="-200" type="curve"/>
    </contour>
  </outline>
</glyph>
<glyph name="eta" format="2">
  <advance width="630"/>
  <unicode hex="03B7"/>
  <anchor x="300" y="520" name="topgr"/>
  <outline>
    <contour>
      <point x="89" y="0" type="line"/>
      <point x="209" y="0" type="line"/>
      <point x="209" y="384" type="line" smooth="yes"/>
      <point x="209" y="482"/>
      <point x="160" y="520"/>
      <point x="23" y="520" type="curve"/>
      <point x="23" y="430" type="line"/>
      <point x="60" y="430"/>
      <point x="89" y="416"/>
      <point x="89" y="356" type="curve" smooth="yes"/>
    </contour>
    <contour>
      <point x="426" y="-200" type="line" name="ab01"/>
      <point x="546" y="-200" type="line"/>
      <point x="546" y="304" type="line" smooth="yes"/>
      <point x="546" y="448"/>
      <point x="496" y="520"/>
      <point x="388" y="520" type="curve" smooth="yes" name="at01"/>
      <point x="288" y="520"/>
      <point x="221" y="459"/>
      <point x="201" y="370" type="curve"/>
      <point x="202" y="287" type="line"/>
      <point x="209" y="217" type="line" name="iv01"/>
      <point x="209" y="345.204"/>
      <point x="255" y="430"/>
      <point x="343" y="430" type="curve" smooth="yes" name="sv01"/>
      <point x="405" y="430"/>
      <point x="426" y="388.869"/>
      <point x="426" y="279.522" type="curve" smooth="yes"/>
    </contour>
  </outline>
</glyph>
<glyph name="lambda" format="2">
  <advance width="600"/>
  <unicode hex="03BB"/>
  <anchor x="300" y="721" name="topgr"/>
  <outline>
    <contour>
      <point x="289" y="330" type="line"/>
      <point x="226" y="500" type="line"/>
      <point x="34" y="0" type="line"/>
      <point x="162" y="0" type="line"/>
    </contour>
    <contour>
      <point x="480" y="-20" type="curve" smooth="yes" name="dv01"/>
      <point x="507" y="-20"/>
      <point x="528" y="-16"/>
      <point x="574" y="2" type="curve"/>
      <point x="558" y="88" type="line"/>
      <point x="540" y="79"/>
      <point x="517" y="73"/>
      <point x="503" y="73" type="curve" smooth="yes" name="dv02"/>
      <point x="485" y="73"/>
      <point x="454.533" y="82.8581"/>
      <point x="433" y="162.867" type="curve" smooth="yes"/>
      <point x="329" y="549.296" type="line" smooth="yes"/>
      <point x="289.212" y="697.135"/>
      <point x="239" y="750"/>
      <point x="147" y="750" type="curve" smooth="yes" name="dv02"/>
      <point x="119" y="750"/>
      <point x="91" y="745.217"/>
      <point x="36" y="728" type="curve"/>
      <point x="51" y="648" type="line"/>
      <point x="74" y="656"/>
      <point x="108" y="660"/>
      <point x="121" y="660" type="curve" smooth="yes" name="dv01"/>
      <point x="175" y="660"/>
      <point x="194" y="589"/>
      <point x="216" y="508" type="curve" smooth="yes"/>
      <point x="298" y="203" type="line" smooth="yes"/>
      <point x="350" y="11"/>
      <point x="404" y="-20"/>
    </contour>
  </outline>
</glyph>
<glyph name="nu" format="2">
  <advance width="566"/>
  <unicode hex="03BD"/>
  <outline>
    <contour>
      <point x="287" y="-19" type="line" smooth="yes"/>
      <point x="444" y="-19"/>
      <point x="526" y="78"/>
      <point x="526" y="259" type="curve" smooth="yes"/>
      <point x="526" y="352"/>
      <point x="504" y="444"/>
      <point x="472" y="500" type="curve"/>
      <point x="342" y="500" type="line"/>
      <point x="376" y="435"/>
      <point x="405" y="352"/>
      <point x="405" y="256" type="curve" smooth="yes"/>
      <point x="405" y="137"/>
      <point x="361" y="71"/>
      <point x="291" y="71" type="curve"/>
      <point x="143" y="500" type="line"/>
      <point x="15" y="500" type="line"/>
      <point x="204" y="-19" type="line"/>
    </contour>
  </outline>
</glyph>
<glyph name="pi" format="2">
  <advance width="645"/>
  <unicode hex="03C0"/>
  <anchor x="322" y="520" name="topgr"/>
  <outline>
    <contour>
      <point x="105" y="0" type="line"/>
      <point x="225" y="0" type="line"/>
      <point x="225" y="410" type="line"/>
      <point x="408" y="410" type="line"/>
      <point x="408" y="148.744" type="line" smooth="yes"/>
      <point x="408" y="18.628"/>
      <point x="460" y="0"/>
      <point x="595" y="0" type="curve"/>
      <point x="595" y="90" type="line"/>
      <point x="545" y="90"/>
      <point x="528" y="106.941"/>
      <point x="528" y="157.765" type="curve" smooth="yes"/>
      <point x="528" y="410" type="line"/>
      <point x="596" y="410" type="line"/>
      <point x="596" y="500" type="line"/>
      <point x="39" y="500" type="line"/>
      <point x="39" y="410" type="line"/>
      <point x="105" y="410" type="line"/>
    </contour>
  </outline>
</glyph>
<glyph name="sigma" format="2">
  <advance width="629"/>
  <unicode hex="03C3"/>
  <anchor x="391" y="-3" name="ogonek"/>
  <anchor x="286" y="-20" name="bottom"/>
  <anchor x="286" y="520" name="topgr"/>
  <outline>
    <contour>
      <point x="37" y="244.815" type="curve" smooth="yes"/>
      <point x="37" y="75.333"/>
      <point x="132.133" y="-20"/>
      <point x="289" y="-20" type="curve" smooth="yes" name="dv01"/>
      <point x="459.024" y="-20"/>
      <point x="541" y="75.333"/>
      <point x="541" y="244.815" type="curve" smooth="yes"/>
      <point x="541" y="404.667"/>
      <point x="458.012" y="500"/>
      <point x="289" y="500" type="curve" smooth="yes" name="at01"/>
      <point x="131.12" y="500"/>
      <point x="37" y="404.667"/>
    </contour>
    <contour>
      <point x="289" y="66.667" type="curve" smooth="yes" name="dv02"/>
      <point x="204.07" y="66.667"/>
      <point x="157" y="126.704"/>
      <point x="157" y="244.842" type="curve" smooth="yes"/>
      <point x="157" y="359.106"/>
      <point x="201" y="413.333"/>
      <point x="289" y="413.333" type="curve" smooth="yes" name="sv01"/>
      <point x="378.023" y="413.333"/>
      <point x="421" y="355.233"/>
      <point x="421" y="242.905" type="curve" smooth="yes"/>
      <point x="421" y="129.609"/>
      <point x="377" y="66.667"/>
    </contour>
    <contour>
      <point x="328" y="410" type="line"/>
      <point x="593" y="410" type="line"/>
      <point x="593" y="500" type="line"/>
      <point x="279" y="500" type="line"/>
    </contour>
  </outline>
</glyph>
<glyph name="phi" format="2">
  <advance width="750"/>
  <unicode hex="03C6"/>
  <anchor x="375" y="520" name="topgr"/>
  <outline>
    <contour>
      <point x="313" y="-200" type="line"/>
      <point x="433" y="-200" type="line"/>
      <point x="433" y="-20" type="line"/>
      <point x="605" y="-20"/>
      <point x="690.5" y="84"/>
      <point x="690.5" y="250" type="curve" smooth="yes"/>
      <point x="690.5" y="421"/>
      <point x="598.622" y="520"/>
      <point x="442.828" y="520" type="curve" smooth="yes"/>
      <point x="360.937" y="520"/>
      <point x="313" y="475.902"/>
      <point x="313" y="399.733" type="curve" smooth="yes"/>
      <point x="313" y="70" type="line"/>
      <point x="204" y="70"/>
      <point x="179" y="155.243"/>
      <point x="179" y="253.523" type="curve" smooth="yes"/>
      <point x="179" y="328.737"/>
      <point x="190" y="390.914"/>
      <point x="254" y="421" type="curve"/>
      <point x="175" y="500" type="line"/>
      <point x="109" y="460"/>
      <point x="59" y="382"/>
      <point x="59" y="251" type="curve" smooth="yes"/>
      <point x="59" y="94"/>
      <point x="130" y="-20"/>
      <point x="313" y="-20" type="curve"/>
    </contour>
    <contour>
      <point x="433" y="70" type="curve"/>
      <point x="433" y="392.793" type="line" smooth="yes"/>
      <point x="433" y="421.955"/>
      <point x="439.022" y="430"/>
      <point x="460.099" y="430" type="curve" smooth="yes"/>
      <point x="542.398" y="430"/>
      <point x="570.5" y="337.486"/>
      <point x="570.5" y="252.011" type="curve" smooth="yes"/>
      <point x="570.5" y="131.341"/>
      <point x="524.332" y="70"/>
    </contour>
  </outline>
</glyph>
<glyph name="Kaisymbol" format="2">
  <advance width="670"/>
  <unicode hex="03CF"/>
  <outline>
    <contour>
      <point x="78" y="-120" type="line"/>
      <point x="132" y="-182"/>
      <point x="225" y="-221"/>
      <point x="342" y="-221" type="curve" smooth="yes"/>
      <point x="512" y="-221"/>
      <point x="633" y="-138"/>
      <point x="633" y="0" type="curve"/>
      <point x="527" y="17" type="line"/>
      <point x="493" y="0" type="line"/>
      <point x="493" y="-87"/>
      <point x="441" y="-121"/>
      <point x="333" y="-121" type="curve" smooth="yes"/>
      <point x="230" y="-121"/>
      <point x="146" y="-90"/>
      <point x="78" y="-20" type="curve"/>
    </contour>
    <contour>
      <point x="78" y="0" type="line" name="ab01"/>
      <point x="198" y="0" type="line"/>
      <point x="198" y="700" type="line"/>
      <point x="78" y="700" type="line" name="at01"/>
    </contour>
    <contour>
      <point x="110" y="312" type="line"/>
      <point x="320" y="312" type="line"/>
      <point x="493" y="0" type="line"/>
      <point x="633" y="0" type="line"/>
      <point x="421" y="367" type="line"/>
      <point x="629" y="700" type="line"/>
      <point x="488" y="700" type="line"/>
      <point x="327" y="410" type="line"/>
      <point x="101" y="410" type="line"/>
    </contour>
  </outline>
</glyph>
<glyph name="kaisymbol" format="2">
  <advance width="594"/>
  <unicode hex="03D7"/>
  <outline>
    <contour>
      <point x="74" y="0" type="line" name="ab01"/>
      <point x="194" y="0" type="line"/>
      <point x="194" y="500" type="line"/>
      <point x="74" y="500" type="line" name="av01"/>
    </contour>
    <contour>
      <point x="95" y="222" type="line"/>
      <point x="323" y="222" type="line" name="iv01"/>
      <point x="422" y="0" type="line" name="ab02"/>
      <point x="558" y="0" type="line"/>
      <point x="418" y="263" type="line"/>
      <point x="544" y="500" type="line" name="av02"/>
      <point x="429" y="500" type="line"/>
      <point x="341" y="311" type="line" name="iv02"/>
      <point x="88" y="311" type="line"/>
    </contour>
    <contour>
      <point x="205" y="-187" type="line"/>
      <point x="432.69" y="-187"/>
      <point x="535" y="-120"/>
      <point x="558" y="0" type="curve"/>
      <point x="422" y="1" type="line"/>
      <point x="422" y="-58"/>
      <point x="339" y="-97"/>
      <point x="205" y="-97" type="curve"/>
    </contour>
  </outline>
</glyph>
<glyph name="Hardcyr" format="2">
  <advance width="735"/>
  <unicode hex="042A"/>
  <outline>
    <contour>
      <point x="31" y="600" type="line"/>
      <point x="204" y="600" type="line"/>
      <point x="237" y="693" type="line"/>
      <point x="237" y="700" type="line"/>
      <point x="31" y="700" type="line"/>
    </contour>
    <contour>
      <point x="189" y="0" type="line"/>
      <point x="445" y="0" type="line" smooth="yes"/>
      <point x="592" y="0"/>
      <point x="686" y="88.963"/>
      <point x="686" y="227.117" type="curve" smooth="yes"/>
      <point x="686" y="365.27"/>
      <point x="592" y="449"/>
      <point x="445" y="449" type="curve" smooth="yes"/>
      <point x="309" y="449" type="line"/>
      <point x="309" y="700" type="line"/>
      <point x="189" y="700" type="line"/>
    </contour>
    <contour>
      <point x="309" y="100" type="line"/>
      <point x="309" y="349" type="line"/>
      <point x="443" y="349" type="line" smooth="yes"/>
      <point x="533" y="349"/>
      <point x="566" y="305.507"/>
      <point x="566" y="227.218" type="curve" smooth="yes"/>
      <point x="566" y="148.93"/>
      <point x="533" y="100"/>
      <point x="443" y="100" type="curve" smooth="yes"/>
    </contour>
  </outline>
</glyph>
<glyph name="Softcyr" format="2">
  <advance width="613"/>
  <unicode hex="042C"/>
  <outline>
    <contour>
      <point x="77" y="0" type="line"/>
      <point x="333" y="0" type="line" smooth="yes"/>
      <point x="480" y="0"/>
      <point x="574" y="88.963"/>
      <point x="574" y="227.117" type="curve" smooth="yes"/>
      <point x="574" y="365.27"/>
      <point x="480" y="449"/>
      <point x="333" y="449" type="curve" smooth="yes"/>
      <point x="197" y="449" type="line"/>
      <point x="197" y="700" type="line"/>
      <point x="77" y="700" type="line"/>
    </contour>
    <contour>
      <point x="197" y="100" type="line"/>
      <point x="197" y="349" type="line"/>
      <point x="331" y="349" type="line" smooth="yes"/>
      <point x="421" y="349"/>
      <point x="454" y="305.507"/>
      <point x="454" y="227.218" type="curve" smooth="yes"/>
      <point x="454" y="148.93"/>
      <point x="421" y="100"/>
      <point x="331" y="100" type="curve" smooth="yes"/>
    </contour>
  </outline>
</glyph>
<glyph name="Ereversedcyr" format="2">
  <advance width="694"/>
  <unicode hex="042D"/>
  <anchor x="330" y="719" name="top"/>
  <outline>
    <contour>
      <point x="541" y="308" type="line"/>
      <point x="216" y="308" type="line"/>
      <point x="216" y="408" type="line"/>
      <point x="541" y="408" type="line"/>
    </contour>
    <contour>
      <point x="303" y="-20" type="curve" smooth="yes" name="dv01"/>
      <point x="202" y="-20"/>
      <point x="118" y="18"/>
      <point x="43" y="102" type="curve"/>
      <point x="114" y="173" type="line"/>
      <point x="155.593" y="117.495"/>
      <point x="216.993" y="84"/>
      <point x="295.228" y="84" type="curve" smooth="yes" name="dv02"/>
      <point x="423.969" y="84"/>
      <point x="523" y="188.623"/>
      <point x="523" y="365.299" type="curve" smooth="yes"/>
      <point x="523" y="524.208"/>
      <point x="443.775" y="616"/>
      <point x="303.15" y="616" type="curve" smooth="yes" name="dv03"/>
      <point x="227.886" y="616"/>
      <point x="166.487" y="586.989"/>
      <point x="114" y="528" type="curve"/>
      <point x="43" y="599" type="line"/>
      <point x="109" y="681"/>
      <point x="198" y="720"/>
      <point x="311" y="720" type="curve" smooth="yes" name="dv04"/>
      <point x="524" y="720"/>
      <point x="647" y="581"/>
      <point x="647" y="365" type="curve" smooth="yes"/>
      <point x="647" y="135"/>
      <point x="508" y="-20"/>
    </contour>
  </outline>
</glyph>
<glyph name="Yucyr" format="2">
  <advance width="1090"/>
  <unicode hex="042E"/>
  <anchor x="545" y="719" name="top"/>
  <outline>
    <component base="O" xOffset="295"/>
    <component base="I" xOffset="-16"/>
    <contour>
      <point x="180" y="321" type="line"/>
      <point x="370" y="321" type="line"/>
      <point x="370" y="421" type="line"/>
      <point x="180" y="421" type="line"/>
    </contour>
  </outline>
</glyph>
<glyph name="zhecyr" format="2">
  <advance width="800"/>
  <unicode hex="0436"/>
  <anchor x="398" y="-20" name="bottom"/>
  <anchor x="400" y="520" name="top"/>
  <outline>
    <contour>
      <point x="64" y="500" type="line" name="av02"/>
      <point x="82" y="343" type="line"/>
      <point x="88.29" y="296.66"/>
      <point x="105.72" y="263.43"/>
      <point x="134.63" y="243.46" type="curve"/>
      <point x="26" y="0" type="line"/>
      <point x="157" y="0" type="line" name="ab02"/>
      <point x="255.53" y="221" type="line" name="iv01"/>
      <point x="342" y="221" type="line"/>
      <point x="342" y="0" type="line"/>
      <point x="462" y="0" type="line" name="ab01"/>
      <point x="462" y="221" type="line"/>
      <point x="544.47" y="221" type="line" name="iv01"/>
      <point x="643" y="0" type="line" name="ab02"/>
      <point x="774" y="0" type="line"/>
      <point x="665.36" y="243.46" type="line"/>
      <point x="694.28" y="263.43"/>
      <point x="711.71" y="296.66"/>
      <point x="718" y="343" type="curve"/>
      <point x="736" y="500" type="line" name="av02"/>
      <point x="615" y="500" type="line"/>
      <point x="603" y="391" type="line"/>
      <point x="596" y="338"/>
      <point x="581" y="311"/>
      <point x="523" y="311" type="curve" smooth="yes"/>
      <point x="462" y="311" type="line"/>
      <point x="462" y="500" type="line" name="av01"/>
      <point x="342" y="500" type="line"/>
      <point x="342" y="311" type="line"/>
      <point x="277" y="311" type="line" smooth="yes"/>
      <point x="219" y="311"/>
      <point x="204" y="338"/>
      <point x="197" y="391" type="curve"/>
      <point x="185" y="500" type="line"/>
    </contour>
  </outline>
</glyph>
<glyph name="icyr" format="2">
  <advance width="609"/>
  <unicode hex="0438"/>
  <anchor x="305" y="520" name="top"/>
  <anchor x="305" y="-20" name="bottom"/>
  <outline>
    <contour>
      <point x="70" y="0" type="line"/>
      <point x="175" y="0" type="line"/>
      <point x="419" y="324" type="line"/>
      <point x="419" y="0" type="line"/>
      <point x="539" y="0" type="line"/>
      <point x="539" y="500" type="line"/>
      <point x="434" y="500" type="line"/>
      <point x="190" y="176" type="line"/>
      <point x="190" y="500" type="line"/>
      <point x="70" y="500" type="line"/>
    </contour>
  </outline>
</glyph>
<glyph name="kacyr" format="2">
  <advance width="588"/>
  <unicode hex="043A"/>
  <anchor x="288" y="520" name="top"/>
  <anchor x="288" y="-20" name="bottom"/>
  <outline>
    <contour>
      <point x="74" y="500" type="line" name="av01"/>
      <point x="74" y="0" type="line" name="ab01"/>
      <point x="194" y="0" type="line"/>
      <point x="194" y="500" type="line"/>
    </contour>
    <contour>
      <point x="181" y="221" type="line" name="dv01"/>
      <point x="359" y="221" type="line" smooth="yes"/>
      <point x="440" y="221"/>
      <point x="485" y="257"/>
      <point x="496" y="338" type="curve"/>
      <point x="514" y="500" type="line" name="av02"/>
      <point x="396" y="500" type="line"/>
      <point x="384" y="391" type="line"/>
      <point x="377" y="338"/>
      <point x="362" y="311"/>
      <point x="303" y="311" type="curve" smooth="yes"/>
      <point x="181" y="311" type="line" name="dv02"/>
    </contour>
    <contour>
      <point x="314" y="240" type="line" name="iv01"/>
      <point x="421" y="0" type="line" name="ab02"/>
      <point x="552" y="0" type="line"/>
      <point x="440" y="251" type="line"/>
    </contour>
  </outline>
</glyph>
<glyph name="emcyr" format="2">
  <advance width="689"/>
  <unicode hex="043C"/>
  <outline>
    <contour>
      <point x="80" y="0" type="line"/>
      <point x="200" y="0" type="line"/>
      <point x="200" y="280" type="line"/>
      <point x="304" y="100" type="line"/>
      <point x="385" y="100" type="line"/>
      <point x="489" y="280" type="line"/>
      <point x="489" y="0" type="line"/>
      <point x="609" y="0" type="line"/>
      <point x="609" y="500" type="line"/>
      <point x="503" y="500" type="line"/>
      <point x="344" y="225" type="line"/>
      <point x="185" y="500" type="line"/>
      <point x="80" y="500" type="line"/>
    </contour>
  </outline>
</glyph>
<glyph name="encyr" format="2">
  <advance width="593"/>
  <unicode hex="043D"/>
  <anchor x="296" y="-20" name="bottom"/>
  <anchor x="296" y="520" name="top"/>
  <outline>
    <contour>
      <point x="70" y="0" type="line"/>
      <point x="190" y="0" type="line"/>
      <point x="190" y="205" type="line"/>
      <point x="403" y="205" type="line"/>
      <point x="403" y="0" type="line"/>
      <point x="523" y="0" type="line"/>
      <point x="523" y="500" type="line"/>
      <point x="403" y="500" type="line"/>
      <point x="403" y="305" type="line"/>
      <point x="190" y="305" type="line"/>
      <point x="190" y="500" type="line"/>
      <point x="70" y="500" type="line"/>
    </contour>
  </outline>
</glyph>
<glyph name="tsecyr" format="2">
  <advance width="676"/>
  <unicode hex="0446"/>
  <outline>
    <contour>
      <point x="70" y="0" type="line"/>
      <point x="511" y="0" type="line" smooth="yes"/>
      <point x="578" y="0"/>
      <point x="564" y="-72"/>
      <point x="564" y="-140" type="curve"/>
      <point x="650" y="-140" type="line"/>
      <point x="650" y="52"/>
      <point x="629" y="98"/>
      <point x="529" y="98" type="curve"/>
      <point x="529" y="500" type="line"/>
      <point x="409" y="500" type="line"/>
      <point x="409" y="100" type="line"/>
      <point x="190" y="100" type="line"/>
      <point x="190" y="500" type="line"/>
      <point x="70" y="500" type="line"/>
    </contour>
  </outline>
</glyph>
<glyph name="checyr" format="2">
  <advance width="595"/>
  <unicode hex="0447"/>
  <anchor x="298" y="-20" name="bottom"/>
  <anchor x="298" y="520" name="top"/>
  <outline>
    <contour>
      <point x="395" y="0" type="line"/>
      <point x="515" y="0" type="line"/>
      <point x="515" y="500" type="line"/>
      <point x="395" y="500" type="line"/>
      <point x="395" y="343" type="line" smooth="yes"/>
      <point x="395" y="284.45"/>
      <point x="331" y="244"/>
      <point x="273.91" y="244" type="curve" smooth="yes"/>
      <point x="225.44" y="244"/>
      <point x="196" y="273.16"/>
      <point x="196" y="340.41" type="curve" smooth="yes"/>
      <point x="196" y="500" type="line"/>
      <point x="76" y="500" type="line"/>
      <point x="76" y="340" type="line" smooth="yes"/>
      <point x="76" y="216.77"/>
      <point x="140.41" y="154"/>
      <point x="242.25" y="154" type="curve" smooth="yes"/>
      <point x="306.47" y="154"/>
      <point x="365.8" y="182.56"/>
      <point x="395" y="237.17" type="curve"/>
    </contour>
  </outline>
</glyph>
<glyph name="softcyr" format="2">
  <advance width="536"/>
  <unicode hex="044C"/>
  <anchor x="268" y="-20" name="bottom"/>
  <anchor x="268" y="520" name="top"/>
  <outline>
    <contour>
      <point x="115" y="325" type="line"/>
      <point x="115" y="235" type="line"/>
      <point x="282" y="235" type="line" smooth="yes"/>
      <point x="341" y="235"/>
      <point x="366" y="207.812"/>
      <point x="366" y="162.5" type="curve" smooth="yes"/>
      <point x="366" y="117.188"/>
      <point x="340" y="90"/>
      <point x="281" y="90" type="curve" smooth="yes"/>
      <point x="200" y="90" type="line"/>
      <point x="200" y="500" type="line"/>
      <point x="80" y="500" type="line"/>
      <point x="80" y="0" type="line"/>
      <point x="300" y="0" type="line" smooth="yes"/>
      <point x="415" y="0"/>
      <point x="486" y="65"/>
      <point x="486" y="167" type="curve" smooth="yes"/>
      <point x="486" y="266"/>
      <point x="415" y="325"/>
      <point x="297" y="325" type="curve" smooth="yes"/>
    </contour>
  </outline>
</glyph>
<glyph name="ljecyr" format="2">
  <advance width="820"/>
  <unicode hex="0459"/>
  <outline>
    <contour>
      <point x="15" y="-16" type="line"/>
      <point x="32" y="-18"/>
      <point x="49" y="-20"/>
      <point x="61" y="-20" type="curve" smooth="yes"/>
      <point x="169.125" y="-20"/>
      <point x="221.385" y="46.9144"/>
      <point x="238.945" y="230.286" type="curve" smooth="yes"/>
      <point x="243.797" y="280.951"/>
      <point x="246" y="340.508"/>
      <point x="246" y="410" type="curve"/>
      <point x="377" y="410" type="line"/>
      <point x="377" y="0" type="line"/>
      <point x="592" y="0" type="line" smooth="yes"/>
      <point x="702" y="0"/>
      <point x="770" y="61"/>
      <point x="770" y="159.22" type="curve" smooth="yes"/>
      <point x="770" y="253.3"/>
      <point x="708" y="305"/>
      <point x="592" y="305" type="curve" smooth="yes"/>
      <point x="497" y="305" type="line"/>
      <point x="497" y="500" type="line"/>
      <point x="126" y="500" type="line"/>
      <point x="126" y="394.835"/>
      <point x="125.305" y="311.446"/>
      <point x="122.023" y="247.193" type="curve" smooth="yes"/>
      <point x="115.661" y="122.653"/>
      <point x="99.5796" y="70"/>
      <point x="60" y="70" type="curve" smooth="yes"/>
      <point x="52" y="70"/>
      <point x="44" y="71"/>
      <point x="34" y="73" type="curve"/>
    </contour>
    <contour>
      <point x="497" y="90" type="line"/>
      <point x="497" y="215" type="line"/>
      <point x="588" y="215" type="line" smooth="yes"/>
      <point x="629" y="215"/>
      <point x="650" y="194.34"/>
      <point x="650" y="155.21" type="curve" smooth="yes"/>
      <point x="650" y="113.91"/>
      <point x="621" y="90"/>
      <point x="573" y="90" type="curve" smooth="yes"/>
    </contour>
  </outline>
</glyph>
<glyph name="tshecyr" format="2">
  <advance width="665"/>
  <unicode hex="045B"/>
  <outline>
    <contour>
      <point x="114" y="0" type="line" name="ab03"/>
      <point x="234" y="0" type="line"/>
      <point x="234" y="197" type="line" smooth="yes" name="iv01"/>
      <point x="234" y="324"/>
      <point x="282" y="408"/>
      <point x="370" y="408" type="curve" smooth="yes" name="sv01"/>
      <point x="429" y="408"/>
      <point x="461" y="378"/>
      <point x="461" y="270" type="curve" smooth="yes"/>
      <point x="461" y="0" type="line" name="ab01"/>
      <point x="581" y="0" type="line"/>
      <point x="581" y="294" type="line" smooth="yes"/>
      <point x="581" y="438"/>
      <point x="514" y="500"/>
      <point x="410" y="500" type="curve" smooth="yes" name="at01"/>
      <point x="328.49" y="500"/>
      <point x="259.29" y="447.76"/>
      <point x="234" y="369.55" type="curve"/>
      <point x="234" y="590" type="line"/>
      <point x="415" y="590" type="line"/>
      <point x="415" y="626" type="line"/>
      <point x="234" y="626" type="line"/>
      <point x="234" y="750" type="line" name="ab01"/>
      <point x="114" y="750" type="line"/>
      <point x="114" y="626" type="line"/>
      <point x="15" y="626" type="line"/>
      <point x="15" y="590" type="line"/>
      <point x="114" y="590" type="line"/>
    </contour>
  </outline>
</glyph>
<glyph name="daggerdbl" format="2">
  <advance width="722"/>
  <unicode hex="2021"/>
  <outline>
    <contour>
      <point x="50" y="1" type="line"/>
      <point x="298" y="15" type="line"/>
      <point x="289" y="-222" type="line"/>
      <point x="415" y="-222" type="line"/>
      <point x="407" y="15" type="line"/>
      <point x="650" y="1" type="line"/>
      <point x="650" y="76" type="line"/>
      <point x="405" y="62" type="line"/>
      <point x="380" y="237" type="line"/>
      <point x="405" y="412" type="line"/>
      <point x="650" y="398" type="line"/>
      <point x="650" y="473" type="line"/>
      <point x="407" y="459" type="line"/>
      <point x="415" y="696" type="line"/>
      <point x="289" y="696" type="line"/>
      <point x="298" y="459" type="line"/>
      <point x="50" y="473" type="line"/>
      <point x="50" y="398" type="line"/>
      <point x="300" y="412" type="line"/>
      <point x="325" y="237" type="line"/>
      <point x="300" y="62" type="line"/>
      <point x="50" y="76" type="line"/>
    </contour>
  </outline>
</glyph>
<glyph name="guilsinglright" format="2">
  <advance width="305"/>
  <unicode hex="203A"/>
  <outline>
    <contour>
      <point x="30" y="20" type="line"/>
      <point x="40" y="2" type="line"/>
      <point x="255" y="236" type="line"/>
      <point x="255" y="284" type="line"/>
      <point x="40" y="518" type="line"/>
      <point x="30" y="500" type="line"/>
      <point x="208" y="266" type="line"/>
      <point x="208" y="254" type="line"/>
    </contour>
  </outline>
</glyph>
<glyph name="six.superior" format="2">
  <advance width="450"/>
  <unicode hex="2076"/>
  <outline>
    <contour>
      <point x="142" y="500" type="curve" smooth="yes"/>
      <point x="142" y="555"/>
      <point x="175" y="589"/>
      <point x="230" y="589" type="curve" smooth="yes"/>
      <point x="282" y="589"/>
      <point x="317" y="559"/>
      <point x="317" y="503" type="curve" smooth="yes"/>
      <point x="317" y="449"/>
      <point x="285" y="414"/>
      <point x="229" y="414" type="curve" smooth="yes"/>
      <point x="176" y="414"/>
      <point x="142" y="445"/>
    </contour>
    <contour>
      <point x="386" y="779" type="line"/>
      <point x="358" y="811"/>
      <point x="298" y="835"/>
      <point x="237" y="835" type="curve" smooth="yes"/>
      <point x="117" y="835"/>
      <point x="41" y="741"/>
      <point x="41" y="577" type="curve" smooth="yes"/>
      <point x="41" y="405"/>
      <point x="124" y="339"/>
      <point x="232" y="339" type="curve" smooth="yes"/>
      <point x="346" y="339"/>
      <point x="411" y="412"/>
      <point x="411" y="504" type="curve" smooth="yes"/>
      <point x="411" y="605"/>
      <point x="332" y="659"/>
      <point x="248" y="659" type="curve" smooth="yes"/>
      <point x="194" y="659"/>
      <point x="153" y="637"/>
      <point x="119" y="595" type="curve"/>
      <point x="119" y="703"/>
      <point x="169" y="759"/>
      <point x="240" y="759" type="curve" smooth="yes"/>
      <point x="277" y="759"/>
      <point x="304" y="744"/>
      <point x="326" y="719" type="curve"/>
    </contour>
  </outline>
</glyph>
<glyph name="seven.superior" format="2">
  <advance width="417"/>
  <unicode hex="2077"/>
  <outline>
    <contour>
      <point x="273" y="757" type="line"/>
      <point x="30" y="757" type="line"/>
      <point x="30" y="832" type="line"/>
      <point x="406" y="832" type="line"/>
      <point x="406" y="823" type="line"/>
      <point x="184" y="346" type="line"/>
      <point x="81" y="346" type="line"/>
    </contour>
  </outline>
</glyph>
<glyph name="product" format="2">
  <advance width="766"/>
  <unicode hex="220F"/>
  <outline>
    <contour>
      <point x="207" y="-125" type="line"/>
      <point x="207" y="600" type="line"/>
      <point x="559" y="600" type="line"/>
      <point x="559" y="-125" type="line"/>
      <point x="679" y="-125" type="line"/>
      <point x="679" y="700" type="line"/>
      <point x="87" y="700" type="line"/>
      <point x="87" y="-125" type="line"/>
    </contour>
  </outline>
</glyph>
<glyph name="f_f" format="2">
  <advance width="800"/>
  <unicode hex="FB00"/>
  <outline>
    <contour>
      <point x="124" y="0" type="line" name="ab01"/>
      <point x="244" y="0" type="line"/>
      <point x="244" y="410" type="line" name="sv01"/>
      <point x="380" y="410" type="line"/>
      <point x="380" y="500" type="line" name="sv02"/>
      <point x="244" y="500" type="line"/>
      <point x="244" y="579" type="line" smooth="yes"/>
      <point x="244" y="633"/>
      <point x="262" y="660"/>
      <point x="300" y="660" type="curve" smooth="yes" name="dv01"/>
      <point x="314" y="660"/>
      <point x="348" y="656"/>
      <point x="371" y="648" type="curve"/>
      <point x="386" y="728" type="line"/>
      <point x="331" y="745.217"/>
      <point x="303" y="750"/>
      <point x="274" y="750" type="curve" smooth="yes" name="dv02"/>
      <point x="179" y="750"/>
      <point x="124" y="698.207"/>
      <point x="124" y="607.57" type="curve" smooth="yes"/>
      <point x="124" y="500" type="line" name="dv04"/>
      <point x="32" y="500" type="line"/>
      <point x="32" y="410" type="line"/>
      <point x="124" y="410" type="line" name="dv03"/>
    </contour>
    <contour>
      <point x="501" y="0" type="line" name="ab01"/>
      <point x="621" y="0" type="line"/>
      <point x="621" y="410" type="line" name="sv01"/>
      <point x="757" y="410" type="line"/>
      <point x="757" y="500" type="line" name="sv02"/>
      <point x="621" y="500" type="line"/>
      <point x="621" y="579" type="line" smooth="yes"/>
      <point x="621" y="633"/>
      <point x="639" y="660"/>
      <point x="677" y="660" type="curve" smooth="yes" name="dv01"/>
      <point x="691" y="660"/>
      <point x="725" y="656"/>
      <point x="748" y="648" type="curve"/>
      <point x="763" y="728" type="line"/>
      <point x="708" y="745.217"/>
      <point x="680" y="750"/>
      <point x="651" y="750" type="curve" smooth="yes" name="dv02"/>
      <point x="556" y="750"/>
      <point x="501" y="698.207"/>
      <point x="501" y="607.57" type="curve" smooth="yes"/>
      <point x="501" y="500" type="line" name="dv04"/>
      <point x="339" y="500" type="line"/>
      <point x="339" y="410" type="line"/>
      <point x="501" y="410" type="line" name="dv03"/>
    </contour>
  </outline>
</glyph>
<glyph name="C.ss12" format="2">
  <advance width="649"/>
  <anchor x="367" y="-19" name="bottom"/>
  <anchor x="347" y="719" name="top"/>
  <outline>
    <contour>
      <point x="597.705" y="170.742" type="line"/>
      <point x="521.978" y="110.376"/>
      <point x="449.458" y="78.933"/>
      <point x="368" y="78.933" type="curve" smooth="yes"/>
      <point x="219" y="78.933"/>
      <point x="163" y="182.328"/>
      <point x="163" y="345.953" type="curve" smooth="yes"/>
      <point x="163" y="513.594"/>
      <point x="213.684" y="619.699"/>
      <point x="362.684" y="619.699" type="curve" smooth="yes"/>
      <point x="444.142" y="619.699"/>
      <point x="521.978" y="587.855"/>
      <point x="597.705" y="528.19" type="curve"/>
      <point x="605.812" y="611.727" type="line"/>
      <point x="570.285" y="665.201"/>
      <point x="473.983" y="720"/>
      <point x="359" y="720" type="curve" smooth="yes"/>
      <point x="159" y="720"/>
      <point x="43" y="572"/>
      <point x="43" y="349" type="curve" smooth="yes"/>
      <point x="43" y="126"/>
      <point x="159" y="-21.067"/>
      <point x="359" y="-21.067" type="curve" smooth="yes"/>
      <point x="473.983" y="-21.067"/>
      <point x="570.285" y="33.731"/>
      <point x="605.812" y="87.206" type="curve"/>
    </contour>
  </outline>
</glyph>
<glyph name="Ccedilla.ss09" format="2">
  <advance width="773"/>
  <anchor x="387" y="719" name="top"/>
  <anchor x="387" y="-217" name="bottom"/>
  <outline>
    <contour>
      <point x="600" y="261" type="line"/>
      <point x="590" y="152"/>
      <point x="507" y="80"/>
      <point x="397" y="80" type="curve" smooth="yes"/>
      <point x="260" y="80"/>
      <point x="173" y="192"/>
      <point x="173" y="354" type="curve" smooth="yes"/>
      <point x="173" y="511"/>
      <point x="254" y="620"/>
      <point x="392" y="620" type="curve" smooth="yes"/>
      <point x="484" y="620"/>
      <point x="561" y="571"/>
      <point x="590" y="485" type="curve"/>
      <point x="710" y="485" type="line"/>
      <point x="663" y="637"/>
      <point x="557" y="720"/>
      <point x="401" y="720" type="curve" smooth="yes"/>
      <point x="190" y="720"/>
      <point x="53" y="568"/>
      <point x="53" y="355" type="curve" smooth="yes"/>
      <point x="53" y="142"/>
      <point x="190" y="-20"/>
      <point x="399" y="-20" type="curve" smooth="yes"/>
      <point x="566" y="-20"/>
      <point x="683" y="84"/>
      <point x="720" y="261" type="curve"/>
    </contour>
    <contour>
      <point x="280" y="-204" type="line"/>
      <point x="306" y="-210"/>
      <point x="335" y="-217"/>
      <point x="376" y="-217" type="curve" smooth="yes"/>
      <point x="459" y="-217"/>
      <point x="506" y="-188"/>
      <point x="506" y="-135" type="curve" smooth="yes"/>
      <point x="506" y="-88"/>
      <point x="470" y="-63"/>
      <point x="410" y="-63" type="curve"/>
      <point x="452.784" y="14.5458" type="line"/>
      <point x="379.784" y="14.5458" type="line"/>
      <point x="327" y="-89" type="line"/>
      <point x="342" y="-87"/>
      <point x="353" y="-85"/>
      <point x="366" y="-85" type="curve" smooth="yes"/>
      <point x="401" y="-85"/>
      <point x="422" y="-100"/>
      <point x="422" y="-129" type="curve" smooth="yes"/>
      <point x="422" y="-157"/>
      <point x="402" y="-176"/>
      <point x="366" y="-176" type="curve" smooth="yes"/>
      <point x="348" y="-176"/>
      <point x="320" y="-171"/>
      <point x="299" y="-165" type="curve"/>
    </contour>
  </outline>
</glyph>
<glyph name="Eng.ss07" format="2">
  <advance width="752"/>
  <anchor x="376" y="719" name="top"/>
  <anchor x="373" y="-214" name="bottom"/>
  <outline>
    <contour>
      <point x="87" y="0" type="line"/>
      <point x="207" y="0" type="line" name="ab01"/>
      <point x="207" y="515" type="line" name="iv01"/>
      <point x="555" y="0" type="line" name="ab02"/>
      <point x="665" y="95.1573" type="line"/>
      <point x="665" y="700" type="line" name="at01"/>
      <point x="545" y="700" type="line"/>
      <point x="545" y="185" type="line" name="iv02"/>
      <point x="197" y="700" type="line" name="at02"/>
      <point x="87" y="700" type="line"/>
    </contour>
    <contour>
      <point x="359" y="-231" type="line"/>
      <point x="584" y="-231"/>
      <point x="665" y="-153"/>
      <point x="665" y="61" type="curve" smooth="yes"/>
      <point x="665" y="613" type="line"/>
      <point x="545" y="613" type="line"/>
      <point x="545" y="37" type="line" smooth="yes"/>
      <point x="545" y="-92"/>
      <point x="494" y="-131"/>
      <point x="359" y="-131" type="curve"/>
    </contour>
  </outline>
</glyph>
<glyph name="Ereversedcyr.ss09" format="2">
  <advance width="773"/>
  <anchor x="387" y="719" name="top"/>
  <outline>
    <contour>
      <point x="609" y="310" type="line"/>
      <point x="609" y="410" type="line"/>
      <point x="286" y="410" type="line"/>
      <point x="286" y="310" type="line"/>
    </contour>
    <contour>
      <point x="53" y="261" type="line"/>
      <point x="90" y="84"/>
      <point x="207" y="-20"/>
      <point x="374" y="-20" type="curve" smooth="yes"/>
      <point x="583" y="-20"/>
      <point x="720" y="142"/>
      <point x="720" y="355" type="curve" smooth="yes"/>
      <point x="720" y="568"/>
      <point x="583" y="720"/>
      <point x="372" y="720" type="curve" smooth="yes"/>
      <point x="216" y="720"/>
      <point x="110" y="637"/>
      <point x="63" y="485" type="curve"/>
      <point x="183" y="485" type="line"/>
      <point x="212" y="571"/>
      <point x="289" y="620"/>
      <point x="381" y="620" type="curve" smooth="yes"/>
      <point x="519" y="620"/>
      <point x="600" y="511"/>
      <point x="600" y="354" type="curve" smooth="yes"/>
      <point x="600" y="192"/>
      <point x="513" y="80"/>
      <point x="376" y="80" type="curve" smooth="yes"/>
      <point x="266" y="80"/>
      <point x="183" y="152"/>
      <point x="173" y="261" type="curve"/>
    </contour>
  </outline>
</glyph>
<glyph name="Euro.osf" format="2">
  <advance width="730"/>
  <outline>
    <contour>
      <point x="530" y="138" type="line"/>
      <point x="496.763" y="95.373"/>
      <point x="421.423" y="70.346"/>
      <point x="364.921" y="70" type="curve" smooth="yes" name="dv02"/>
      <point x="245.263" y="69.268"/>
      <point x="222" y="174.86"/>
      <point x="222" y="268.906" type="curve" smooth="yes"/>
      <point x="222" y="396.464"/>
      <point x="267.522" y="457"/>
      <point x="363.007" y="457" type="curve" smooth="yes" name="sv01"/>
      <point x="424.074" y="457"/>
      <point x="488.471" y="433.657"/>
      <point x="524" y="389" type="curve"/>
      <point x="592" y="457" type="line"/>
      <point x="547.261" y="510"/>
      <point x="466.304" y="547"/>
      <point x="361.913" y="547" type="curve" smooth="yes" name="at01"/>
      <point x="195.739" y="547"/>
      <point x="102" y="443.05"/>
      <point x="102" y="268.75" type="curve" smooth="yes"/>
      <point x="102" y="83.95"/>
      <point x="195.665" y="-20"/>
      <point x="360.644" y="-20" type="curve" smooth="yes" name="dv01"/>
      <point x="467.082" y="-20"/>
      <point x="553.296" y="17"/>
      <point x="598" y="70" type="curve"/>
    </contour>
    <contour>
      <point x="18" y="292" type="line"/>
      <point x="476" y="292" type="line"/>
      <point x="482" y="332" type="line"/>
      <point x="24" y="332" type="line"/>
    </contour>
    <contour>
      <point x="15" y="190" type="line"/>
      <point x="459" y="190" type="line"/>
      <point x="465" y="230" type="line"/>
      <point x="21" y="230" type="line"/>
    </contour>
  </outline>
</glyph>
<glyph name="Euro.ss10" format="2">
  <advance width="714"/>
  <outline>
    <contour>
      <point x="16" y="379" type="line"/>
      <point x="497" y="379" type="line"/>
      <point x="508" y="439" type="line"/>
      <point x="222" y="439" type="line"/>
      <point x="244" y="549"/>
      <point x="312" y="619"/>
      <point x="417" y="619" type="curve" smooth="yes"/>
      <point x="496" y="619"/>
      <point x="549" y="579"/>
      <point x="613" y="465" type="curve"/>
      <point x="652" y="593" type="line"/>
      <point x="590" y="677"/>
      <point x="506" y="720"/>
      <point x="405" y="720" type="curve" smooth="yes"/>
      <point x="242" y="720"/>
      <point x="128" y="609"/>
      <point x="100" y="439" type="curve"/>
      <point x="25" y="439" type="line"/>
    </contour>
    <contour>
      <point x="15" y="265" type="line"/>
      <point x="102" y="265" type="line"/>
      <point x="133" y="95"/>
      <point x="249" y="-20"/>
      <point x="412" y="-20" type="curve" smooth="yes"/>
      <point x="511" y="-20"/>
      <point x="598" y="23"/>
      <point x="661" y="107" type="curve"/>
      <point x="622" y="235" type="line"/>
      <point x="557" y="115"/>
      <point x="502" y="81"/>
      <point x="426" y="81" type="curve" smooth="yes"/>
      <point x="316" y="81"/>
      <point x="247" y="152"/>
      <point x="223" y="265" type="curve"/>
      <point x="478" y="265" type="line"/>
      <point x="489" y="325" type="line"/>
      <point x="26" y="325" type="line"/>
    </contour>
  </outline>
</glyph>
<glyph name="G.ss03" format="2">
  <advance width="753"/>
  <anchor x="388" y="-19" name="bottom"/>
  <anchor x="377" y="719" name="top"/>
  <outline>
    <contour>
      <point x="587" y="280" type="line" name="sv02"/>
      <point x="587" y="158" name=".sv01"/>
      <point x="506" y="80"/>
      <point x="388" y="80" type="curve" smooth="yes" name="dv04"/>
      <point x="262" y="80"/>
      <point x="163" y="176.357"/>
      <point x="163" y="351.004" type="curve" smooth="yes" name="dv07"/>
      <point x="163" y="518.625"/>
      <point x="249" y="620"/>
      <point x="382" y="620" type="curve" smooth="yes"/>
      <point x="488" y="620"/>
      <point x="550" y="579.74"/>
      <point x="624" y="465" type="curve"/>
      <point x="663" y="593" type="line"/>
      <point x="594" y="677"/>
      <point x="499" y="720"/>
      <point x="380" y="720" type="curve" smooth="yes"/>
      <point x="168" y="720"/>
      <point x="43" y="561"/>
      <point x="43" y="348" type="curve" smooth="yes" name="dv08"/>
      <point x="43" y="132"/>
      <point x="185" y="-20"/>
      <point x="386" y="-20" type="curve" smooth="yes" name="dv03"/>
      <point x="584" y="-20"/>
      <point x="710" y="119"/>
      <point x="710" y="321" type="curve" smooth="yes" name="sv03"/>
      <point x="710" y="375" type="line" name="sv01"/>
      <point x="370" y="375" type="line" name="dv06"/>
      <point x="370" y="280" type="line" name="dv05"/>
    </contour>
  </outline>
</glyph>
<glyph name="G.ss12" format="2">
  <advance width="764"/>
  <anchor x="390" y="-19" name="bottom"/>
  <anchor x="390" y="719" name="top"/>
  <outline>
    <contour>
      <point x="358" y="283" type="line"/>
      <point x="616" y="283" type="line"/>
      <point x="661" y="0" type="line"/>
      <point x="711" y="0" type="line"/>
      <point x="711" y="373" type="line"/>
      <point x="358" y="373" type="line"/>
    </contour>
    <contour>
      <point x="606" y="344" type="line"/>
      <point x="606" y="338"/>
      <point x="606" y="305"/>
      <point x="606" y="299" type="curve"/>
      <point x="594" y="162"/>
      <point x="511" y="80"/>
      <point x="390" y="80" type="curve" smooth="yes"/>
      <point x="259" y="80"/>
      <point x="173" y="177"/>
      <point x="173" y="345" type="curve" smooth="yes"/>
      <point x="173" y="509"/>
      <point x="255" y="620"/>
      <point x="410" y="620" type="curve" smooth="yes"/>
      <point x="492" y="620"/>
      <point x="568" y="589"/>
      <point x="653" y="510" type="curve"/>
      <point x="662" y="595" type="line"/>
      <point x="582" y="680"/>
      <point x="494" y="720"/>
      <point x="388" y="720" type="curve" smooth="yes"/>
      <point x="182" y="720"/>
      <point x="53" y="570"/>
      <point x="53" y="352" type="curve" smooth="yes"/>
      <point x="53" y="140"/>
      <point x="176" y="-20"/>
      <point x="371" y="-20" type="curve" smooth="yes"/>
      <point x="566" y="-20"/>
      <point x="629" y="140"/>
      <point x="648" y="230" type="curve"/>
      <point x="642" y="348" type="line"/>
    </contour>
  </outline>
</glyph>
<glyph name="G.ss13" format="2">
  <advance width="783"/>
  <anchor x="392" y="-19" name="bottom"/>
  <anchor x="392" y="719" name="top"/>
  <outline>
    <contour>
      <point x="398" y="720" type="curve" smooth="yes"/>
      <point x="193" y="720"/>
      <point x="53" y="578"/>
      <point x="53" y="353" type="curve" smooth="yes"/>
      <point x="53" y="134"/>
      <point x="186" y="-20"/>
      <point x="396" y="-20" type="curve" smooth="yes"/>
      <point x="596" y="-20"/>
      <point x="730" y="118.64"/>
      <point x="730" y="325.104" type="curve" smooth="yes"/>
      <point x="730" y="365" type="line"/>
      <point x="390" y="365" type="line"/>
      <point x="390" y="275" type="line"/>
      <point x="610" y="275" type="line"/>
      <point x="610" y="179.51"/>
      <point x="523" y="80"/>
      <point x="390" y="80" type="curve" smooth="yes"/>
      <point x="260" y="80"/>
      <point x="173" y="175.353"/>
      <point x="173" y="346.989" type="curve" smooth="yes"/>
      <point x="173" y="518.625"/>
      <point x="260" y="620"/>
      <point x="394" y="620" type="curve" smooth="yes"/>
      <point x="488" y="620"/>
      <point x="561" y="570.634"/>
      <point x="590" y="485" type="curve"/>
      <point x="710" y="485" type="line"/>
      <point x="662" y="640"/>
      <point x="552" y="720"/>
    </contour>
  </outline>
</glyph>
<glyph name="J.ss07" format="2">
  <advance width="380"/>
  <anchor x="260" y="719" name="top"/>
  <anchor x="160" y="-79" name="bottom"/>
  <outline>
    <contour>
      <point x="10" y="-144" type="line"/>
      <point x="235" y="-144"/>
      <point x="316" y="-66"/>
      <point x="316" y="148" type="curve" smooth="yes"/>
      <point x="316" y="700" type="line"/>
      <point x="196" y="700" type="line"/>
      <point x="196" y="124" type="line" smooth="yes"/>
      <point x="196" y="-5"/>
      <point x="145" y="-44"/>
      <point x="10" y="-44" type="curve"/>
    </contour>
  </outline>
</glyph>
<glyph name="J.ss12" format="2">
  <advance width="480"/>
  <anchor x="359" y="719" name="top"/>
  <anchor x="196" y="-20" name="bottom"/>
  <outline>
    <contour>
      <point x="11" y="26" type="line"/>
      <point x="57" y="0"/>
      <point x="108" y="-20"/>
      <point x="185" y="-20" type="curve" smooth="yes"/>
      <point x="337" y="-20"/>
      <point x="416" y="57"/>
      <point x="416" y="232" type="curve" smooth="yes"/>
      <point x="416" y="700" type="line"/>
      <point x="296" y="700" type="line"/>
      <point x="296" y="232" type="line" smooth="yes"/>
      <point x="296" y="116"/>
      <point x="252" y="80"/>
      <point x="164" y="80" type="curve" smooth="yes"/>
      <point x="131" y="80"/>
      <point x="87" y="85"/>
      <point x="21" y="110" type="curve"/>
    </contour>
  </outline>
</glyph>
<glyph name="S.ss10" format="2">
  <advance width="580"/>
  <anchor x="275" y="719" name="top"/>
  <anchor x="290" y="-20" name="bottom"/>
  <outline>
    <contour>
      <point x="38" y="107" type="line"/>
      <point x="107" y="23"/>
      <point x="201" y="-20"/>
      <point x="313" y="-20" type="curve" smooth="yes"/>
      <point x="445" y="-20"/>
      <point x="531" y="56.1189"/>
      <point x="531" y="191.33" type="curve" smooth="yes"/>
      <point x="531" y="327.762"/>
      <point x="421.484" y="362.363"/>
      <point x="322.76" y="393.555" type="curve" smooth="yes"/>
      <point x="241.747" y="419.151"/>
      <point x="168" y="442.451"/>
      <point x="168" y="517.84" type="curve" smooth="yes"/>
      <point x="168" y="576.933"/>
      <point x="199" y="620"/>
      <point x="269" y="620" type="curve" smooth="yes"/>
      <point x="352" y="620"/>
      <point x="410" y="579.74"/>
      <point x="482" y="465" type="curve"/>
      <point x="521" y="593" type="line"/>
      <point x="453" y="677"/>
      <point x="363" y="720"/>
      <point x="257" y="720" type="curve" smooth="yes"/>
      <point x="137" y="720"/>
      <point x="48" y="643.881"/>
      <point x="48" y="510.673" type="curve" smooth="yes"/>
      <point x="48" y="372.097"/>
      <point x="157.427" y="337.986"/>
      <point x="256.12" y="307.221" type="curve" smooth="yes"/>
      <point x="337.18" y="281.953"/>
      <point x="411" y="258.942"/>
      <point x="411" y="182.16" type="curve" smooth="yes"/>
      <point x="411" y="116.056"/>
      <point x="359" y="80"/>
      <point x="303" y="80" type="curve" smooth="yes"/>
      <point x="213" y="80"/>
      <point x="151" y="120.26"/>
      <point x="77" y="235" type="curve"/>
    </contour>
  </outline>
</glyph>
<glyph name="Schwa.ss09" format="2">
  <advance width="779"/>
  <anchor x="390" y="719" name="top"/>
  <anchor x="390" y="-20" name="bottom"/>
  <outline>
    <contour>
      <point x="57" y="408" type="line" name="sh04"/>
      <point x="55.25" y="393"/>
      <point x="53.5" y="371"/>
      <point x="53.5" y="356" type="curve" smooth="yes" name="sh01"/>
      <point x="53.5" y="129"/>
      <point x="187.4" y="-20"/>
      <point x="390.25" y="-20" type="curve" smooth="yes" name="dv01"/>
      <point x="593.099" y="-20"/>
      <point x="726" y="121"/>
      <point x="726" y="350" type="curve" smooth="yes" name="sh03"/>
      <point x="726" y="573"/>
      <point x="608" y="720"/>
      <point x="394" y="720" type="curve" smooth="yes" name="dv04"/>
      <point x="221" y="720"/>
      <point x="116" y="637"/>
      <point x="69" y="485" type="curve"/>
      <point x="189" y="485" type="line"/>
      <point x="218" y="571"/>
      <point x="295" y="620"/>
      <point x="384" y="620" type="curve" smooth="yes" name="dv03"/>
      <point x="530" y="620"/>
      <point x="607" y="529.82"/>
      <point x="607" y="350.488" type="curve" smooth="yes"/>
      <point x="607" y="185.182"/>
      <point x="526.908" y="80"/>
      <point x="391.752" y="80" type="curve" smooth="yes" name="dv02"/>
      <point x="264.605" y="80"/>
      <point x="183.512" y="166"/>
      <point x="173.5" y="308" type="curve" name="sh02"/>
      <point x="619" y="308" type="line" name="dv05"/>
      <point x="618" y="408" type="line" name="dv06"/>
    </contour>
  </outline>
</glyph>
<glyph name="Schwa.ss12" format="2">
  <advance width="779"/>
  <anchor x="390" y="719" name="top"/>
  <anchor x="390" y="-20" name="bottom"/>
  <outline>
    <contour>
      <point x="57" y="408" type="line" name="sh04"/>
      <point x="55.25" y="393"/>
      <point x="53.5" y="371"/>
      <point x="53.5" y="356" type="curve" smooth="yes" name="sh01"/>
      <point x="53.5" y="129"/>
      <point x="187.4" y="-20"/>
      <point x="390.25" y="-20" type="curve" smooth="yes" name="dv01"/>
      <point x="593.099" y="-20"/>
      <point x="726" y="121"/>
      <point x="726" y="350" type="curve" smooth="yes" name="sh03"/>
      <point x="726" y="573"/>
      <point x="599" y="720"/>
      <point x="385" y="720" type="curve" smooth="yes" name="dv04"/>
      <point x="277" y="720"/>
      <point x="187" y="680"/>
      <point x="107" y="595" type="curve"/>
      <point x="116" y="510" type="line"/>
      <point x="198" y="589"/>
      <point x="273" y="620"/>
      <point x="383" y="620" type="curve" smooth="yes" name="dv03"/>
      <point x="529" y="620"/>
      <point x="606" y="522.82"/>
      <point x="606" y="343.488" type="curve" smooth="yes"/>
      <point x="606" y="178.182"/>
      <point x="525.907" y="80"/>
      <point x="390.751" y="80" type="curve" smooth="yes" name="dv02"/>
      <point x="264.605" y="80"/>
      <point x="183.512" y="166"/>
      <point x="173.5" y="308" type="curve" name="sh02"/>
      <point x="631" y="308" type="line" name="dv05"/>
      <point x="630" y="408" type="line" name="dv06"/>
    </contour>
  </outline>
</glyph>
<glyph name="a.ss10" format="2">
  <advance width="568"/>
  <anchor x="284" y="520" name="top"/>
  <anchor x="284" y="-20" name="bottom"/>
  <anchor x="487" y="-2" name="ogonek"/>
  <outline>
    <contour>
      <point x="267.148" y="430" type="curve" smooth="yes"/>
      <point x="204.66" y="430"/>
      <point x="157" y="410"/>
      <point x="91" y="318" type="curve"/>
      <point x="60" y="426" type="line"/>
      <point x="94" y="472"/>
      <point x="162.047" y="520"/>
      <point x="278.55" y="520" type="curve" smooth="yes"/>
      <point x="413.612" y="520"/>
      <point x="493" y="456"/>
      <point x="493" y="352" type="curve" smooth="yes"/>
      <point x="493" y="-10" type="line"/>
      <point x="373" y="84" type="line"/>
      <point x="373" y="253" type="line"/>
      <point x="354" y="222"/>
      <point x="303" y="202"/>
      <point x="252" y="202" type="curve" smooth="yes"/>
      <point x="193" y="202"/>
      <point x="165" y="175"/>
      <point x="165" y="137" type="curve" smooth="yes"/>
      <point x="165" y="96"/>
      <point x="196" y="70"/>
      <point x="243" y="70" type="curve" smooth="yes"/>
      <point x="315" y="70"/>
      <point x="373" y="129"/>
      <point x="373" y="186" type="curve"/>
      <point x="391" y="128" type="line"/>
      <point x="376" y="60"/>
      <point x="318" y="-20"/>
      <point x="212" y="-20" type="curve" smooth="yes"/>
      <point x="121" y="-20"/>
      <point x="45" y="38"/>
      <point x="45" y="135" type="curve" smooth="yes"/>
      <point x="45" y="232"/>
      <point x="121" y="281"/>
      <point x="239" y="281" type="curve" smooth="yes"/>
      <point x="334" y="281"/>
      <point x="372" y="313"/>
      <point x="372" y="361" type="curve" smooth="yes"/>
      <point x="372" y="405"/>
      <point x="337.049" y="430"/>
    </contour>
  </outline>
</glyph>
<glyph name="a.ss12" format="2">
  <advance width="544"/>
  <anchor x="272" y="520" name="top"/>
  <anchor x="272" y="-20" name="bottom"/>
  <anchor x="482" y="-2" name="ogonek"/>
  <outline>
    <contour>
      <point x="488" y="0" type="line"/>
      <point x="488" y="350" type="line" smooth="yes"/>
      <point x="488" y="455"/>
      <point x="405.043" y="520"/>
      <point x="274.976" y="520" type="curve" smooth="yes"/>
      <point x="186.899" y="520"/>
      <point x="117.256" y="490"/>
      <point x="64" y="431" type="curve"/>
      <point x="71" y="357" type="line"/>
      <point x="151.718" y="412"/>
      <point x="201.39" y="430"/>
      <point x="262.446" y="430" type="curve" smooth="yes"/>
      <point x="328.676" y="430"/>
      <point x="368" y="409.286"/>
      <point x="368" y="359.966" type="curve" smooth="yes"/>
      <point x="368" y="309.66"/>
      <point x="327.789" y="285"/>
      <point x="233.963" y="285" type="curve" smooth="yes"/>
      <point x="105.081" y="285"/>
      <point x="36" y="236.683"/>
      <point x="36" y="143.581" type="curve" smooth="yes"/>
      <point x="36" y="44.422"/>
      <point x="114.428" y="-20"/>
      <point x="224.666" y="-20" type="curve" smooth="yes"/>
      <point x="311.53" y="-20"/>
      <point x="359" y="20"/>
      <point x="382" y="118" type="curve"/>
      <point x="368" y="167" type="line"/>
      <point x="368" y="108.8"/>
      <point x="315.105" y="70"/>
      <point x="235.762" y="70" type="curve" smooth="yes"/>
      <point x="183.287" y="70"/>
      <point x="156" y="95.62"/>
      <point x="156" y="137.993" type="curve" smooth="yes"/>
      <point x="156" y="183.321"/>
      <point x="187.485" y="205"/>
      <point x="244.158" y="205" type="curve" smooth="yes"/>
      <point x="318.673" y="205"/>
      <point x="368" y="243"/>
      <point x="368" y="263" type="curve"/>
      <point x="368" y="0" type="line"/>
    </contour>
  </outline>
</glyph>
<glyph name="ae.ss02" format="2">
  <advance width="875"/>
  <anchor x="424" y="500" name="top"/>
  <anchor x="424" y="0" name="bottom"/>
  <outline>
    <contour>
      <point x="116.71" y="362" type="line"/>
      <point x="147.75" y="406.65"/>
      <point x="204.01" y="430"/>
      <point x="256.39" y="430" type="curve" smooth="yes" name="sv01"/>
      <point x="314.59" y="430"/>
      <point x="342.72" y="400.93"/>
      <point x="342.72" y="346.8" type="curve" smooth="yes"/>
      <point x="342.72" y="235.79" type="line"/>
      <point x="316.75" y="284.45"/>
      <point x="267.31" y="312"/>
      <point x="202.07" y="312" type="curve" smooth="yes"/>
      <point x="98.28" y="312"/>
      <point x="26.5" y="243"/>
      <point x="26.5" y="146" type="curve" smooth="yes"/>
      <point x="26.5" y="49"/>
      <point x="98.28" y="-20"/>
      <point x="196.25" y="-20" type="curve" smooth="yes"/>
      <point x="266.77" y="-20"/>
      <point x="337.535" y="15.752"/>
      <point x="379.46" y="96.28" type="curve"/>
      <point x="421.79" y="19.23"/>
      <point x="499.9" y="-20"/>
      <point x="598.7" y="-20" type="curve" smooth="yes" name="dv01"/>
      <point x="694.73" y="-20"/>
      <point x="768.45" y="17"/>
      <point x="809.19" y="70" type="curve"/>
      <point x="743.23" y="138" type="line"/>
      <point x="713.05" y="94.35"/>
      <point x="650.76" y="70"/>
      <point x="592.36" y="70" type="curve" smooth="yes" name="dv02"/>
      <point x="504.76" y="70"/>
      <point x="460.96" y="125.35"/>
      <point x="460.96" y="227" type="curve" name="sv04"/>
      <point x="832.47" y="227" type="line" name="dv03"/>
      <point x="832.47" y="424"/>
      <point x="746.14" y="520"/>
      <point x="593.85" y="520" type="curve" smooth="yes" name="at01"/>
      <point x="523.98" y="520"/>
      <point x="464.93" y="499.65"/>
      <point x="421.87" y="459.98" type="curve"/>
      <point x="390.25" y="496.56"/>
      <point x="337.71" y="520"/>
      <point x="261.24" y="520" type="curve" smooth="yes" name="at01"/>
      <point x="165.21" y="520"/>
      <point x="91.49" y="483"/>
      <point x="50.75" y="430" type="curve"/>
    </contour>
    <contour>
      <point x="464.84" y="307" type="line" name="sv02"/>
      <point x="473.57" y="385.63"/>
      <point x="523.24" y="430"/>
      <point x="592.39" y="430" type="curve" smooth="yes" name="sv01"/>
      <point x="660.56" y="430"/>
      <point x="704.39" y="385.63"/>
      <point x="713.16" y="307" type="curve" name="dv04"/>
    </contour>
    <contour>
      <point x="342.72" y="164.97" type="curve"/>
      <point x="333.5" y="109.16"/>
      <point x="291.92" y="70"/>
      <point x="233.11" y="70" type="curve" smooth="yes"/>
      <point x="181.7" y="70"/>
      <point x="142.9" y="99"/>
      <point x="142.9" y="150" type="curve" smooth="yes"/>
      <point x="142.9" y="199"/>
      <point x="179.76" y="222"/>
      <point x="233.11" y="222" type="curve" smooth="yes"/>
      <point x="285.62" y="222"/>
      <point x="324.79" y="199.99"/>
    </contour>
  </outline>
</glyph>
<glyph name="alpha.ss01" format="2">
  <advance width="670"/>
  <anchor x="300" y="519" name="topgr"/>
  <outline>
    <contour>
      <point x="608" y="0" type="line"/>
      <point x="574" y="0" type="line" smooth="yes"/>
      <point x="467" y="0"/>
      <point x="427" y="47"/>
      <point x="427" y="153" type="curve" smooth="yes"/>
      <point x="427" y="500" type="line"/>
      <point x="547" y="500" type="line"/>
      <point x="547" y="167" type="line" smooth="yes"/>
      <point x="547" y="105"/>
      <point x="557" y="90"/>
      <point x="608" y="90" type="curve"/>
    </contour>
    <contour>
      <point x="269" y="-20" type="curve" smooth="yes" name="dv01"/>
      <point x="135" y="-20"/>
      <point x="50" y="99"/>
      <point x="50" y="259" type="curve" smooth="yes"/>
      <point x="50" y="411"/>
      <point x="126" y="520"/>
      <point x="260" y="520" type="curve" smooth="yes" name="at01"/>
      <point x="385" y="520"/>
      <point x="457" y="426"/>
      <point x="457" y="248" type="curve" smooth="yes"/>
      <point x="457" y="79"/>
      <point x="392" y="-20"/>
    </contour>
    <contour>
      <point x="301" y="70" type="curve" smooth="yes" name="dv02"/>
      <point x="375" y="70"/>
      <point x="427" y="141.198"/>
      <point x="427" y="249.499" type="curve" smooth="yes"/>
      <point x="427" y="362.813"/>
      <point x="371" y="430"/>
      <point x="298" y="430" type="curve" smooth="yes" name="sv01"/>
      <point x="221" y="430"/>
      <point x="170" y="355.794"/>
      <point x="170" y="253.51" type="curve" smooth="yes"/>
      <point x="170" y="150.223"/>
      <point x="222" y="70"/>
    </contour>
  </outline>
</glyph>
<glyph name="aogonek.ss02" format="2">
  <advance width="551"/>
  <anchor x="258" y="520" name="top"/>
  <anchor x="251" y="-20" name="bottom"/>
  <outline>
    <contour>
      <point x="357" y="167.469" type="curve"/>
      <point x="347.48" y="110.211"/>
      <point x="302.439" y="70"/>
      <point x="238.733" y="70" type="curve" smooth="yes"/>
      <point x="183.036" y="70"/>
      <point x="141" y="99.763"/>
      <point x="141" y="152.105" type="curve" smooth="yes"/>
      <point x="141" y="202.395"/>
      <point x="181.026" y="226"/>
      <point x="238.959" y="226" type="curve" smooth="yes"/>
      <point x="295.987" y="226"/>
      <point x="338.52" y="203.411"/>
    </contour>
    <contour>
      <point x="477" y="65" type="line"/>
      <point x="477" y="352" type="line" smooth="yes"/>
      <point x="477" y="444"/>
      <point x="413.527" y="520"/>
      <point x="268.154" y="520" type="curve" smooth="yes" name="at01"/>
      <point x="166.803" y="520"/>
      <point x="88.998" y="483"/>
      <point x="46" y="430" type="curve"/>
      <point x="114" y="362" type="line"/>
      <point x="147.373" y="406.65"/>
      <point x="207.863" y="430"/>
      <point x="264.18" y="430" type="curve" smooth="yes" name="sv01"/>
      <point x="326.755" y="430"/>
      <point x="357" y="400.93"/>
      <point x="357" y="346.8" type="curve" smooth="yes"/>
      <point x="357" y="235.8" type="line"/>
      <point x="330.22" y="284.45"/>
      <point x="277.547" y="312"/>
      <point x="208.049" y="312" type="curve" smooth="yes"/>
      <point x="97.473" y="312"/>
      <point x="21" y="243"/>
      <point x="21" y="146" type="curve" smooth="yes"/>
      <point x="21" y="49"/>
      <point x="97.471" y="-20"/>
      <point x="204.944" y="-20" type="curve" smooth="yes"/>
      <point x="276.972" y="-20"/>
      <point x="330.45" y="10.82"/>
      <point x="357" y="65.26" type="curve"/>
      <point x="357" y="65" type="line"/>
    </contour>
    <contour>
      <point x="537" y="88" type="line"/>
      <point x="525.806" y="79.414"/>
      <point x="505.5" y="71"/>
      <point x="491.778" y="71" type="curve" smooth="yes" name="dv02"/>
      <point x="479.478" y="71"/>
      <point x="477" y="88.127"/>
      <point x="477" y="159.657" type="curve" smooth="yes"/>
      <point x="477" y="340.903" type="line" name="ab01"/>
      <point x="357" y="340.903" type="line"/>
      <point x="357" y="132" type="line" smooth="yes"/>
      <point x="357" y="30"/>
      <point x="388.855" y="-20"/>
      <point x="470.01" y="-20" type="curve" smooth="yes" name="dv01"/>
      <point x="492.763" y="-20"/>
      <point x="514" y="-16"/>
      <point x="560" y="2" type="curve"/>
    </contour>
    <contour>
      <point x="549" y="-182" type="line"/>
      <point x="505" y="-168"/>
      <point x="483" y="-137"/>
      <point x="483" y="-103" type="curve" smooth="yes"/>
      <point x="483" y="-66"/>
      <point x="508" y="-24"/>
      <point x="548" y="0" type="curve"/>
      <point x="525" y="3" type="line"/>
      <point x="442" y="-13"/>
      <point x="390" y="-55"/>
      <point x="390" y="-109" type="curve" smooth="yes"/>
      <point x="390" y="-158"/>
      <point x="434" y="-195"/>
      <point x="502" y="-205" type="curve"/>
    </contour>
  </outline>
</glyph>
<glyph name="aogonek.ss09" format="2">
  <advance width="541"/>
  <anchor x="271" y="520" name="top"/>
  <anchor x="266" y="-20" name="bottom"/>
  <outline>
    <contour>
      <point x="357" y="167.469" type="curve"/>
      <point x="347.48" y="110.211"/>
      <point x="302.439" y="70"/>
      <point x="238.733" y="70" type="curve" smooth="yes"/>
      <point x="183.036" y="70"/>
      <point x="141" y="99.763"/>
      <point x="141" y="152.105" type="curve" smooth="yes"/>
      <point x="141" y="202.395"/>
      <point x="181.026" y="226"/>
      <point x="238.959" y="226" type="curve" smooth="yes"/>
      <point x="295.987" y="226"/>
      <point x="338.52" y="203.411"/>
    </contour>
    <contour>
      <point x="477" y="0" type="line"/>
      <point x="477" y="352" type="line" smooth="yes"/>
      <point x="477" y="459.16"/>
      <point x="402.119" y="520"/>
      <point x="270.247" y="520" type="curve" smooth="yes"/>
      <point x="129.809" y="520"/>
      <point x="50.465" y="455.16"/>
      <point x="42" y="341" type="curve"/>
      <point x="157" y="341" type="line"/>
      <point x="164.368" y="399"/>
      <point x="212.789" y="430"/>
      <point x="269.632" y="430" type="curve" smooth="yes"/>
      <point x="325.421" y="430"/>
      <point x="357" y="400.93"/>
      <point x="357" y="356.82" type="curve" smooth="yes"/>
      <point x="357" y="235.8" type="line"/>
      <point x="330.22" y="284.45"/>
      <point x="277.547" y="312"/>
      <point x="208.049" y="312" type="curve" smooth="yes"/>
      <point x="97.473" y="312"/>
      <point x="21" y="243"/>
      <point x="21" y="146" type="curve" smooth="yes"/>
      <point x="21" y="49"/>
      <point x="97.471" y="-20"/>
      <point x="204.944" y="-20" type="curve" smooth="yes"/>
      <point x="276.972" y="-20"/>
      <point x="330.45" y="10.82"/>
      <point x="357" y="65.26" type="curve"/>
      <point x="357" y="0" type="line"/>
    </contour>
    <contour>
      <point x="474" y="-182" type="line"/>
      <point x="430" y="-168"/>
      <point x="408" y="-137"/>
      <point x="408" y="-103" type="curve" smooth="yes"/>
      <point x="408" y="-66"/>
      <point x="433" y="-24"/>
      <point x="473" y="0" type="curve"/>
      <point x="450" y="3" type="line"/>
      <point x="367" y="-13"/>
      <point x="315" y="-55"/>
      <point x="315" y="-109" type="curve" smooth="yes"/>
      <point x="315" y="-158"/>
      <point x="359" y="-195"/>
      <point x="427" y="-205" type="curve"/>
    </contour>
  </outline>
</glyph>
<glyph name="austral.osf" format="2">
  <advance width="718"/>
  <outline>
    <contour>
      <point x="27" y="113" type="line"/>
      <point x="692" y="113" type="line"/>
      <point x="692" y="163" type="line"/>
      <point x="27" y="163" type="line"/>
    </contour>
    <contour>
      <point x="27" y="214" type="line"/>
      <point x="692" y="214" type="line"/>
      <point x="692" y="264" type="line"/>
      <point x="27" y="264" type="line"/>
    </contour>
    <contour>
      <point x="104" y="0" type="line"/>
      <point x="233" y="0" type="line"/>
      <point x="359" y="442" type="line"/>
      <point x="485" y="0" type="line"/>
      <point x="614" y="0" type="line"/>
      <point x="437" y="540" type="line"/>
      <point x="281" y="540" type="line"/>
    </contour>
  </outline>
</glyph>
<glyph name="b.ss11" format="2">
  <advance width="629"/>
  <anchor x="345" y="-20" name="bottom"/>
  <anchor x="330" y="750" name="top"/>
  <outline>
    <contour>
      <point x="193" y="107" type="line"/>
      <point x="193" y="700" type="line"/>
      <point x="73" y="700" type="line"/>
      <point x="73" y="-10" type="line"/>
    </contour>
    <contour>
      <point x="459" y="255.515" type="curve" smooth="yes" name="ah01"/>
      <point x="459" y="142.201"/>
      <point x="411" y="70"/>
      <point x="336" y="70" type="curve" smooth="yes" name="dv02"/>
      <point x="246" y="70"/>
      <point x="193" y="150.223"/>
      <point x="193" y="256.518" type="curve" smooth="yes" name="sh02"/>
      <point x="193" y="343.76"/>
      <point x="249" y="430"/>
      <point x="335" y="430" type="curve" smooth="yes" name="sv01"/>
      <point x="413" y="430"/>
      <point x="459" y="365.822"/>
    </contour>
    <contour>
      <point x="171" y="255" type="curve" smooth="yes"/>
      <point x="171" y="79"/>
      <point x="236" y="-20"/>
      <point x="357.911" y="-20" type="curve" smooth="yes" name="dv01"/>
      <point x="487" y="-20"/>
      <point x="579" y="91"/>
      <point x="579" y="255" type="curve" smooth="yes" name="sh03"/>
      <point x="579" y="416"/>
      <point x="500" y="520"/>
      <point x="370.24" y="520" type="curve" smooth="yes" name="at01"/>
      <point x="243" y="520"/>
      <point x="171" y="420"/>
    </contour>
  </outline>
</glyph>
<glyph name="braceleft.case" format="2">
  <advance width="366"/>
  <outline>
    <contour>
      <point x="332" y="-247" type="line"/>
      <point x="262" y="-216.681"/>
      <point x="245" y="-145.286"/>
      <point x="245" y="-25.967" type="curve" smooth="yes"/>
      <point x="245" y="198" type="line" smooth="yes"/>
      <point x="245" y="262"/>
      <point x="228" y="321"/>
      <point x="138" y="349" type="curve"/>
      <point x="225" y="375"/>
      <point x="245" y="425"/>
      <point x="245" y="489" type="curve" smooth="yes"/>
      <point x="245" y="669.378" type="line" smooth="yes"/>
      <point x="245" y="792.363"/>
      <point x="264" y="869.229"/>
      <point x="334" y="901" type="curve"/>
      <point x="321" y="930" type="line"/>
      <point x="192" y="859.428"/>
      <point x="149" y="757.15"/>
      <point x="149" y="662.032" type="curve" smooth="yes"/>
      <point x="149" y="481" type="line" smooth="yes"/>
      <point x="149" y="431"/>
      <point x="111" y="370"/>
      <point x="39" y="359" type="curve"/>
      <point x="39" y="342" type="line"/>
      <point x="91" y="332"/>
      <point x="149" y="296"/>
      <point x="149" y="225" type="curve" smooth="yes"/>
      <point x="149" y="-15.205" type="line" smooth="yes"/>
      <point x="149" y="-114.229"/>
      <point x="192" y="-208.35"/>
      <point x="321" y="-276" type="curve"/>
    </contour>
  </outline>
</glyph>
<glyph name="bracketleft.case" format="2">
  <advance width="420"/>
  <outline>
    <contour>
      <point x="367" y="838" type="line"/>
      <point x="87" y="838" type="line"/>
      <point x="87" y="-157" type="line"/>
      <point x="367" y="-157" type="line"/>
      <point x="367" y="-82" type="line"/>
      <point x="202" y="-82" type="line"/>
      <point x="202" y="763" type="line"/>
      <point x="367" y="763" type="line"/>
    </contour>
  </outline>
</glyph>
<glyph name="c.ss12" format="2">
  <advance width="570"/>
  <anchor x="310" y="520" name="top"/>
  <anchor x="310" y="-20" name="bottom"/>
  <outline>
    <contour>
      <point x="510" y="80" type="curve"/>
      <point x="503" y="154" type="line"/>
      <point x="444" y="97"/>
      <point x="385" y="70"/>
      <point x="320" y="70" type="curve" smooth="yes"/>
      <point x="224" y="70"/>
      <point x="179" y="143"/>
      <point x="179" y="255" type="curve" smooth="yes"/>
      <point x="179" y="365"/>
      <point x="220" y="430"/>
      <point x="319" y="430" type="curve" smooth="yes"/>
      <point x="379" y="430"/>
      <point x="427" y="411"/>
      <point x="504" y="357" type="curve"/>
      <point x="511" y="431" type="line"/>
      <point x="459" y="490"/>
      <point x="391" y="520"/>
      <point x="311" y="520" type="curve" smooth="yes"/>
      <point x="151" y="520"/>
      <point x="59" y="411"/>
      <point x="59" y="255" type="curve" smooth="yes"/>
      <point x="59" y="91"/>
      <point x="157" y="-20"/>
      <point x="312.057" y="-20" type="curve" smooth="yes"/>
      <point x="394" y="-20"/>
      <point x="452" y="11"/>
    </contour>
  </outline>
</glyph>
<glyph name="ccedilla.ss10" format="2">
  <advance width="585"/>
  <anchor x="316" y="520" name="top"/>
  <anchor x="296" y="-218" name="bottom"/>
  <outline>
    <contour>
      <point x="495" y="182" type="line"/>
      <point x="436" y="97"/>
      <point x="394" y="70"/>
      <point x="320" y="70" type="curve" smooth="yes"/>
      <point x="230" y="70"/>
      <point x="179" y="145"/>
      <point x="179" y="256" type="curve" smooth="yes"/>
      <point x="179" y="368"/>
      <point x="230" y="430"/>
      <point x="322" y="430" type="curve" smooth="yes"/>
      <point x="393" y="430"/>
      <point x="436" y="402"/>
      <point x="495" y="318" type="curve"/>
      <point x="526" y="426" type="line"/>
      <point x="482" y="485"/>
      <point x="406" y="520"/>
      <point x="321" y="520" type="curve" smooth="yes"/>
      <point x="166" y="520"/>
      <point x="59" y="412"/>
      <point x="59" y="255" type="curve" smooth="yes"/>
      <point x="59" y="91"/>
      <point x="164" y="-20"/>
      <point x="321" y="-20" type="curve" smooth="yes"/>
      <point x="406" y="-20"/>
      <point x="482" y="15"/>
      <point x="526" y="74" type="curve"/>
    </contour>
    <contour>
      <point x="189" y="-205" type="line"/>
      <point x="215" y="-211"/>
      <point x="244" y="-218"/>
      <point x="285" y="-218" type="curve" smooth="yes"/>
      <point x="368" y="-218"/>
      <point x="415" y="-189"/>
      <point x="415" y="-136" type="curve" smooth="yes"/>
      <point x="415" y="-89"/>
      <point x="379" y="-64"/>
      <point x="319" y="-64" type="curve"/>
      <point x="361.784" y="13.5458" type="line"/>
      <point x="288.784" y="13.5458" type="line"/>
      <point x="236" y="-90" type="line"/>
      <point x="251" y="-88"/>
      <point x="262" y="-86"/>
      <point x="275" y="-86" type="curve" smooth="yes"/>
      <point x="310" y="-86"/>
      <point x="331" y="-101"/>
      <point x="331" y="-130" type="curve" smooth="yes"/>
      <point x="331" y="-158"/>
      <point x="311" y="-177"/>
      <point x="275" y="-177" type="curve" smooth="yes"/>
      <point x="257" y="-177"/>
      <point x="229" y="-172"/>
      <point x="208" y="-166" type="curve"/>
    </contour>
  </outline>
</glyph>
<glyph name="e.ss09" format="2">
  <advance width="587"/>
  <anchor x="290" y="520" name="top"/>
  <anchor x="290" y="-20" name="bottom"/>
  <anchor x="401" y="-2" name="ogonek"/>
  <outline>
    <contour>
      <point x="161" y="310" type="line"/>
      <point x="161" y="377.869"/>
      <point x="219" y="430"/>
      <point x="292" y="430" type="curve" smooth="yes"/>
      <point x="362" y="430"/>
      <point x="414" y="378.852"/>
      <point x="414" y="310" type="curve"/>
    </contour>
    <contour>
      <point x="540" y="238" type="line"/>
      <point x="540" y="397"/>
      <point x="457" y="520"/>
      <point x="292" y="520" type="curve" smooth="yes"/>
      <point x="127" y="520"/>
      <point x="40" y="401"/>
      <point x="40" y="255" type="curve" smooth="yes"/>
      <point x="40" y="95"/>
      <point x="135" y="-20"/>
      <point x="292" y="-20" type="curve" smooth="yes"/>
      <point x="435" y="-20"/>
      <point x="513" y="50"/>
      <point x="534" y="167" type="curve"/>
      <point x="410" y="167" type="line"/>
      <point x="406" y="100"/>
      <point x="351" y="70"/>
      <point x="291" y="70" type="curve" smooth="yes"/>
      <point x="211" y="70"/>
      <point x="161" y="135.389"/>
      <point x="161" y="238" type="curve"/>
    </contour>
  </outline>
</glyph>
<glyph name="efcyr.ss11" format="2">
  <advance width="806"/>
  <outline>
    <contour>
      <point x="342" y="-200" type="line"/>
      <point x="462" y="-200" type="line"/>
      <point x="462" y="700" type="line"/>
      <point x="342" y="700" type="line"/>
    </contour>
    <contour>
      <point x="438" y="138" type="line"/>
      <point x="408" y="96"/>
      <point x="340" y="71"/>
      <point x="289" y="71" type="curve" name="dv02"/>
      <point x="181" y="70"/>
      <point x="160" y="168"/>
      <point x="160" y="255" type="curve" smooth="yes"/>
      <point x="160" y="373"/>
      <point x="201" y="429"/>
      <point x="287" y="429" type="curve" smooth="yes" name="sv01"/>
      <point x="342" y="429"/>
      <point x="400" y="406"/>
      <point x="432" y="362" type="curve"/>
      <point x="432" y="486" type="line"/>
      <point x="392" y="507"/>
      <point x="342" y="520"/>
      <point x="284" y="520" type="curve" smooth="yes" name="at01"/>
      <point x="128" y="520"/>
      <point x="40" y="421"/>
      <point x="40" y="255" type="curve" smooth="yes"/>
      <point x="40" y="79"/>
      <point x="128" y="-20"/>
      <point x="283" y="-20" type="curve" smooth="yes" name="dv01"/>
      <point x="344" y="-20"/>
      <point x="398" y="-6"/>
      <point x="440" y="17" type="curve"/>
    </contour>
    <contour>
      <point x="368" y="15" type="line"/>
      <point x="410" y="-7"/>
      <point x="463" y="-20"/>
      <point x="523" y="-20" type="curve" smooth="yes" name="dv01"/>
      <point x="678" y="-20"/>
      <point x="766" y="79"/>
      <point x="766" y="255" type="curve" smooth="yes"/>
      <point x="766" y="421"/>
      <point x="678" y="520"/>
      <point x="522" y="520" type="curve" smooth="yes" name="at01"/>
      <point x="464" y="520"/>
      <point x="414" y="507"/>
      <point x="374" y="486" type="curve"/>
      <point x="374" y="362" type="line"/>
      <point x="406" y="406"/>
      <point x="464" y="429"/>
      <point x="519" y="429" type="curve" smooth="yes" name="sv01"/>
      <point x="605" y="429"/>
      <point x="646" y="373"/>
      <point x="646" y="255" type="curve" smooth="yes"/>
      <point x="646" y="168"/>
      <point x="625" y="70"/>
      <point x="517" y="71" type="curve" name="dv02"/>
      <point x="466" y="71"/>
      <point x="398" y="96"/>
      <point x="368" y="138" type="curve"/>
    </contour>
  </outline>
</glyph>
<glyph name="eight.osf" format="2">
  <advance width="605"/>
  <outline>
    <contour>
      <point x="223" y="370" type="curve"/>
      <point x="106" y="351"/>
      <point x="36" y="282"/>
      <point x="36" y="180" type="curve" smooth="yes"/>
      <point x="36" y="54"/>
      <point x="143.1" y="-20"/>
      <point x="306.253" y="-20" type="curve" smooth="yes"/>
      <point x="467.404" y="-20"/>
      <point x="569.5" y="53"/>
      <point x="569.5" y="182" type="curve" smooth="yes"/>
      <point x="569.5" y="285"/>
      <point x="503.319" y="351"/>
      <point x="387" y="370" type="curve"/>
      <point x="482" y="390"/>
      <point x="540" y="453"/>
      <point x="540" y="536" type="curve" smooth="yes"/>
      <point x="540" y="647"/>
      <point x="443" y="720"/>
      <point x="302" y="720" type="curve" smooth="yes"/>
      <point x="164" y="720"/>
      <point x="64" y="650"/>
      <point x="64" y="541" type="curve" smooth="yes"/>
      <point x="64" y="453"/>
      <point x="125" y="391"/>
    </contour>
    <contour>
      <point x="156" y="194.483" type="curve" smooth="yes"/>
      <point x="156" y="268.797"/>
      <point x="205.915" y="317"/>
      <point x="303.748" y="317" type="curve" smooth="yes"/>
      <point x="398.587" y="317"/>
      <point x="449.5" y="271.809"/>
      <point x="449.5" y="195.487" type="curve" smooth="yes"/>
      <point x="449.5" y="119.165"/>
      <point x="399.585" y="80"/>
      <point x="302.75" y="80" type="curve" smooth="yes"/>
      <point x="205.915" y="80"/>
      <point x="156" y="119.165"/>
    </contour>
    <contour>
      <point x="184" y="516.985" type="curve" smooth="yes"/>
      <point x="184" y="577.582"/>
      <point x="234" y="620"/>
      <point x="304" y="620" type="curve" smooth="yes"/>
      <point x="372" y="620"/>
      <point x="420" y="580.612"/>
      <point x="420" y="521.025" type="curve" smooth="yes"/>
      <point x="420" y="461.438"/>
      <point x="371" y="417"/>
      <point x="300" y="417" type="curve" smooth="yes"/>
      <point x="232" y="417"/>
      <point x="184" y="457.398"/>
    </contour>
  </outline>
</glyph>
<glyph name="eogonek.ss10" format="2">
  <advance width="585"/>
  <anchor x="297" y="520" name="top"/>
  <anchor x="297" y="-20" name="bottom"/>
  <outline>
    <contour>
      <point x="169" y="308" type="line"/>
      <point x="169" y="378"/>
      <point x="221.783" y="430"/>
      <point x="293.488" y="430" type="curve" smooth="yes"/>
      <point x="365.193" y="430"/>
      <point x="412" y="378"/>
      <point x="412" y="308" type="curve"/>
    </contour>
    <contour>
      <point x="538" y="228" type="line"/>
      <point x="538" y="410"/>
      <point x="448.183" y="520"/>
      <point x="296.493" y="520" type="curve" smooth="yes"/>
      <point x="143.804" y="520"/>
      <point x="48" y="410"/>
      <point x="48" y="255" type="curve" smooth="yes"/>
      <point x="48" y="90"/>
      <point x="145.793" y="-20"/>
      <point x="309.123" y="-20" type="curve" smooth="yes"/>
      <point x="401.253" y="-20"/>
      <point x="477.093" y="15"/>
      <point x="521" y="74" type="curve"/>
      <point x="490" y="182" type="line"/>
      <point x="443.942" y="93.415"/>
      <point x="385.325" y="70"/>
      <point x="311.554" y="70" type="curve" smooth="yes"/>
      <point x="232.799" y="70"/>
      <point x="168" y="118"/>
      <point x="168" y="228" type="curve"/>
    </contour>
    <contour>
      <point x="422" y="-182" type="line"/>
      <point x="378" y="-168"/>
      <point x="356" y="-137"/>
      <point x="356" y="-103" type="curve" smooth="yes"/>
      <point x="356" y="-66"/>
      <point x="381" y="-24"/>
      <point x="421" y="0" type="curve"/>
      <point x="398" y="3" type="line"/>
      <point x="315" y="-13"/>
      <point x="263" y="-55"/>
      <point x="263" y="-109" type="curve" smooth="yes"/>
      <point x="263" y="-158"/>
      <point x="307" y="-195"/>
      <point x="375" y="-205" type="curve"/>
    </contour>
  </outline>
</glyph>
<glyph name="eogonek.ss12" format="2">
  <advance width="585"/>
  <anchor x="298" y="520" name="top"/>
  <anchor x="298" y="-20" name="bottom"/>
  <outline>
    <contour>
      <point x="172" y="308" type="line"/>
      <point x="172" y="381"/>
      <point x="224" y="430"/>
      <point x="295" y="430" type="curve" smooth="yes"/>
      <point x="366" y="430"/>
      <point x="412" y="382"/>
      <point x="412" y="308" type="curve"/>
    </contour>
    <contour>
      <point x="538" y="236" type="line"/>
      <point x="538" y="416"/>
      <point x="444" y="520"/>
      <point x="298" y="520" type="curve" smooth="yes"/>
      <point x="146" y="520"/>
      <point x="48" y="410"/>
      <point x="48" y="255" type="curve" smooth="yes"/>
      <point x="48" y="93"/>
      <point x="151" y="-20"/>
      <point x="310.049" y="-20" type="curve" smooth="yes"/>
      <point x="392" y="-20"/>
      <point x="450" y="10"/>
      <point x="509" y="80" type="curve"/>
      <point x="502" y="154" type="line"/>
      <point x="443" y="97"/>
      <point x="384" y="70"/>
      <point x="320.325" y="70" type="curve" smooth="yes"/>
      <point x="227" y="70"/>
      <point x="169" y="128"/>
      <point x="169" y="236" type="curve"/>
    </contour>
    <contour>
      <point x="411" y="-182" type="line"/>
      <point x="367" y="-168"/>
      <point x="345" y="-137"/>
      <point x="345" y="-103" type="curve" smooth="yes"/>
      <point x="345" y="-66"/>
      <point x="370" y="-24"/>
      <point x="410" y="0" type="curve"/>
      <point x="387" y="3" type="line"/>
      <point x="304" y="-13"/>
      <point x="252" y="-55"/>
      <point x="252" y="-109" type="curve" smooth="yes"/>
      <point x="252" y="-158"/>
      <point x="296" y="-195"/>
      <point x="364" y="-205" type="curve"/>
    </contour>
  </outline>
</glyph>
<glyph name="epsilon.ss09" format="2">
  <advance width="540"/>
  <anchor x="267" y="519" name="topgr"/>
  <outline>
    <contour>
      <point x="69" y="382" type="curve" smooth="yes"/>
      <point x="69" y="314"/>
      <point x="116" y="273"/>
      <point x="224" y="261" type="curve"/>
      <point x="112" y="263"/>
      <point x="50" y="225"/>
      <point x="50" y="135" type="curve" smooth="yes"/>
      <point x="50" y="12"/>
      <point x="164.736" y="-20"/>
      <point x="259.517" y="-20" type="curve" smooth="yes"/>
      <point x="402.189" y="-20"/>
      <point x="484" y="53"/>
      <point x="493" y="167" type="curve"/>
      <point x="381" y="167" type="line"/>
      <point x="376" y="108"/>
      <point x="342.164" y="70"/>
      <point x="271.507" y="70" type="curve" smooth="yes"/>
      <point x="232.696" y="70"/>
      <point x="170" y="81.0797"/>
      <point x="170" y="136.478" type="curve" smooth="yes"/>
      <point x="170" y="184.826"/>
      <point x="219" y="209"/>
      <point x="343" y="209" type="curve"/>
      <point x="343" y="289" type="line"/>
      <point x="216" y="289"/>
      <point x="187" y="336.336"/>
      <point x="187" y="371.586" type="curve" smooth="yes"/>
      <point x="187" y="411.871"/>
      <point x="223.805" y="430"/>
      <point x="268.568" y="430" type="curve" smooth="yes"/>
      <point x="333.226" y="430"/>
      <point x="376" y="392.755"/>
      <point x="381" y="333" type="curve"/>
      <point x="493" y="333" type="line"/>
      <point x="477" y="454.698"/>
      <point x="390.213" y="520"/>
      <point x="263.523" y="520" type="curve" smooth="yes"/>
      <point x="164.765" y="520"/>
      <point x="69" y="480"/>
    </contour>
  </outline>
</glyph>
<glyph name="epsilon.ss10" format="2">
  <advance width="500"/>
  <anchor x="250" y="519" name="topgr"/>
  <outline>
    <contour>
      <point x="377" y="218" type="curve"/>
      <point x="377" y="298" type="line"/>
      <point x="216.834" y="298"/>
      <point x="185" y="322"/>
      <point x="185" y="364" type="curve" smooth="yes"/>
      <point x="185" y="403"/>
      <point x="211.887" y="430"/>
      <point x="267.651" y="430" type="curve" smooth="yes"/>
      <point x="324.412" y="430"/>
      <point x="363.248" y="402"/>
      <point x="422" y="318" type="curve"/>
      <point x="453" y="426" type="line"/>
      <point x="409.114" y="485"/>
      <point x="337.301" y="520"/>
      <point x="245.539" y="520" type="curve" smooth="yes"/>
      <point x="120.863" y="520"/>
      <point x="68" y="455"/>
      <point x="68" y="387" type="curve" smooth="yes"/>
      <point x="68" y="320"/>
      <point x="117.718" y="274"/>
      <point x="244" y="260" type="curve"/>
      <point x="120.636" y="251"/>
      <point x="50" y="226"/>
      <point x="50" y="134" type="curve" smooth="yes"/>
      <point x="50" y="40"/>
      <point x="123.817" y="-20"/>
      <point x="244.517" y="-20" type="curve" smooth="yes"/>
      <point x="337.287" y="-20"/>
      <point x="409.109" y="15"/>
      <point x="453" y="74" type="curve"/>
      <point x="422" y="182" type="line"/>
      <point x="363.233" y="98"/>
      <point x="324.387" y="70"/>
      <point x="267.613" y="70" type="curve" smooth="yes"/>
      <point x="217.81" y="70"/>
      <point x="170" y="91"/>
      <point x="170" y="146" type="curve" smooth="yes"/>
      <point x="170" y="188"/>
      <point x="196.87" y="218"/>
    </contour>
  </outline>
</glyph>
<glyph name="epsilon.ss12" format="2">
  <advance width="500"/>
  <anchor x="250" y="519" name="topgr"/>
  <outline>
    <contour>
      <point x="446" y="143" type="line"/>
      <point x="368" y="89"/>
      <point x="326.211" y="70"/>
      <point x="269.497" y="70" type="curve" smooth="yes"/>
      <point x="203.829" y="70"/>
      <point x="170" y="95"/>
      <point x="170" y="141" type="curve" smooth="yes"/>
      <point x="170" y="196"/>
      <point x="217" y="219"/>
      <point x="379" y="219" type="curve"/>
      <point x="379" y="291" type="line"/>
      <point x="236" y="291"/>
      <point x="188" y="317"/>
      <point x="188" y="367" type="curve" smooth="yes"/>
      <point x="188" y="408"/>
      <point x="218.829" y="430"/>
      <point x="274.519" y="430" type="curve" smooth="yes"/>
      <point x="326.232" y="430"/>
      <point x="368" y="411"/>
      <point x="446" y="357" type="curve"/>
      <point x="453" y="431" type="line"/>
      <point x="396" y="491"/>
      <point x="328.207" y="520"/>
      <point x="250.445" y="520" type="curve" smooth="yes"/>
      <point x="147.759" y="520"/>
      <point x="69" y="470"/>
      <point x="69" y="377" type="curve" smooth="yes"/>
      <point x="69" y="306"/>
      <point x="114" y="270"/>
      <point x="231" y="260" type="curve"/>
      <point x="106" y="261"/>
      <point x="50" y="220"/>
      <point x="50" y="134" type="curve" smooth="yes"/>
      <point x="50" y="40"/>
      <point x="117.804" y="-20"/>
      <point x="241.447" y="-20" type="curve" smooth="yes"/>
      <point x="328.196" y="-20"/>
      <point x="396" y="9"/>
      <point x="453" y="69" type="curve"/>
    </contour>
  </outline>
</glyph>
<glyph name="ereversedcyr.ss12" format="2">
  <advance width="570"/>
  <anchor x="278" y="520" name="top"/>
  <anchor x="278" y="-20" name="bottom"/>
  <outline>
    <contour>
      <point x="60" y="80" type="line"/>
      <point x="118" y="11"/>
      <point x="176" y="-20"/>
      <point x="257.943" y="-20" type="curve" smooth="yes"/>
      <point x="413" y="-20"/>
      <point x="511" y="91"/>
      <point x="511" y="255" type="curve" smooth="yes"/>
      <point x="511" y="411"/>
      <point x="419" y="520"/>
      <point x="259" y="520" type="curve" smooth="yes"/>
      <point x="179" y="520"/>
      <point x="111" y="490"/>
      <point x="59" y="431" type="curve"/>
      <point x="66" y="357" type="line"/>
      <point x="143" y="411"/>
      <point x="191" y="430"/>
      <point x="251" y="430" type="curve" smooth="yes"/>
      <point x="350" y="430"/>
      <point x="391" y="365"/>
      <point x="391" y="255" type="curve" smooth="yes"/>
      <point x="391" y="143"/>
      <point x="346" y="70"/>
      <point x="250" y="70" type="curve" smooth="yes"/>
      <point x="185" y="70"/>
      <point x="126" y="97"/>
      <point x="67" y="154" type="curve"/>
    </contour>
    <contour>
      <point x="166" y="215" type="line"/>
      <point x="440" y="215" type="line"/>
      <point x="440" y="287" type="line"/>
      <point x="166" y="287" type="line"/>
    </contour>
  </outline>
</glyph>
<glyph name="f_f.ss11" format="2">
  <advance width="806"/>
  <outline>
    <contour>
      <point x="129" y="0" type="line"/>
      <point x="249" y="0" type="line"/>
      <point x="249" y="410" type="line"/>
      <point x="450.495" y="410" type="line"/>
      <point x="450.495" y="500" type="line"/>
      <point x="249" y="500" type="line"/>
      <point x="249" y="559.457" type="line" smooth="yes"/>
      <point x="249" y="604.806"/>
      <point x="262" y="630"/>
      <point x="300" y="630" type="curve" smooth="yes"/>
      <point x="318" y="630"/>
      <point x="341" y="625.636"/>
      <point x="386" y="618" type="curve"/>
      <point x="386" y="707" type="line"/>
      <point x="341" y="716"/>
      <point x="320" y="720"/>
      <point x="277" y="720" type="curve" smooth="yes"/>
      <point x="182" y="720"/>
      <point x="129" y="669"/>
      <point x="129" y="577" type="curve" smooth="yes"/>
      <point x="129" y="500" type="line"/>
      <point x="32" y="500" type="line"/>
      <point x="32" y="410" type="line"/>
      <point x="129" y="410" type="line"/>
    </contour>
    <contour>
      <point x="512" y="0" type="line"/>
      <point x="632" y="0" type="line"/>
      <point x="632" y="410" type="line"/>
      <point x="753" y="410" type="line"/>
      <point x="753" y="500" type="line"/>
      <point x="632" y="500" type="line"/>
      <point x="632" y="559.457" type="line" smooth="yes"/>
      <point x="632" y="604.806"/>
      <point x="645" y="630"/>
      <point x="683" y="630" type="curve" smooth="yes"/>
      <point x="701" y="630"/>
      <point x="724" y="625.636"/>
      <point x="769" y="618" type="curve"/>
      <point x="769" y="707" type="line"/>
      <point x="724" y="716"/>
      <point x="703" y="720"/>
      <point x="660" y="720" type="curve" smooth="yes"/>
      <point x="565" y="720"/>
      <point x="512" y="669"/>
      <point x="512" y="577" type="curve" smooth="yes"/>
      <point x="512" y="500" type="line"/>
      <point x="415" y="500" type="line"/>
      <point x="415" y="410" type="line"/>
      <point x="512" y="410" type="line"/>
    </contour>
  </outline>
</glyph>
<glyph name="f_thorn" format="2">
  <advance width="996"/>
  <outline>
    <contour>
      <point x="124" y="0" type="line" name="ab01"/>
      <point x="244" y="0" type="line"/>
      <point x="244" y="410" type="line" name="sv01"/>
      <point x="380" y="410" type="line"/>
      <point x="380" y="500" type="line" name="sv02"/>
      <point x="244" y="500" type="line"/>
      <point x="244" y="579" type="line" smooth="yes"/>
      <point x="244" y="633"/>
      <point x="262" y="660"/>
      <point x="300" y="660" type="curve" smooth="yes" name="dv01"/>
      <point x="466.58" y="660" type="line"/>
      <point x="467" y="-200" type="line" name="av01"/>
      <point x="586" y="-200" type="line"/>
      <point x="586" y="107.19" type="line"/>
      <point x="614.16" y="27.11"/>
      <point x="668.73" y="-20"/>
      <point x="746" y="-20" type="curve" smooth="yes" name="dv01"/>
      <point x="884" y="-20"/>
      <point x="968" y="99"/>
      <point x="968" y="255" type="curve" smooth="yes"/>
      <point x="968" y="411"/>
      <point x="893" y="520"/>
      <point x="752" y="520" type="curve" smooth="yes" name="at01"/>
      <point x="671.93" y="520"/>
      <point x="615.01" y="476.36"/>
      <point x="586" y="397.72" type="curve"/>
      <point x="585.84" y="751" type="line"/>
      <point x="274" y="751" type="line" smooth="yes" name="dv02"/>
      <point x="179" y="751"/>
      <point x="124" y="698.2"/>
      <point x="124" y="607.55" type="curve" smooth="yes"/>
      <point x="124" y="500" type="line" name="dv04"/>
      <point x="32" y="500" type="line"/>
      <point x="32" y="410" type="line"/>
      <point x="124" y="410" type="line" name="dv03"/>
    </contour>
    <contour>
      <point x="721" y="70" type="curve" smooth="yes" name="dv02"/>
      <point x="641" y="70"/>
      <point x="586" y="151.22"/>
      <point x="586" y="256.51" type="curve" smooth="yes"/>
      <point x="586" y="357.79"/>
      <point x="643" y="430"/>
      <point x="722" y="430" type="curve" smooth="yes" name="sv01"/>
      <point x="802" y="430"/>
      <point x="848" y="366.81"/>
      <point x="848" y="255.5" type="curve" smooth="yes"/>
      <point x="848" y="142.18"/>
      <point x="799" y="70"/>
    </contour>
  </outline>
</glyph>
<glyph name="five.osf" format="2">
  <advance width="615"/>
  <outline>
    <contour>
      <point x="37" y="-48" type="line"/>
      <point x="113" y="-133"/>
      <point x="191" y="-170"/>
      <point x="294" y="-170" type="curve" smooth="yes"/>
      <point x="460" y="-170"/>
      <point x="560" y="-74.799"/>
      <point x="560" y="72.512" type="curve" smooth="yes"/>
      <point x="560" y="211.805"/>
      <point x="471" y="304"/>
      <point x="326" y="304" type="curve" smooth="yes"/>
      <point x="268" y="304"/>
      <point x="223" y="288.559"/>
      <point x="187" y="269" type="curve"/>
      <point x="214" y="450" type="line"/>
      <point x="528" y="450" type="line"/>
      <point x="528" y="550" type="line"/>
      <point x="126" y="550" type="line"/>
      <point x="63" y="130" type="line"/>
      <point x="151" y="185"/>
      <point x="217" y="214"/>
      <point x="297" y="214" type="curve" smooth="yes"/>
      <point x="398" y="214"/>
      <point x="440" y="168"/>
      <point x="440" y="86" type="curve" smooth="yes"/>
      <point x="440" y="-14"/>
      <point x="377" y="-70"/>
      <point x="283" y="-70" type="curve" smooth="yes"/>
      <point x="206" y="-70"/>
      <point x="163" y="-33"/>
      <point x="113" y="28" type="curve"/>
    </contour>
  </outline>
</glyph>
<glyph name="five.osf.ss10" format="2">
  <advance width="607"/>
  <outline>
    <contour>
      <point x="77" y="85" type="line"/>
      <point x="139" y="-27"/>
      <point x="189" y="-69"/>
      <point x="281" y="-69" type="curve" smooth="yes"/>
      <point x="389" y="-69"/>
      <point x="447" y="-11"/>
      <point x="447" y="92" type="curve" smooth="yes"/>
      <point x="447" y="191"/>
      <point x="393" y="234"/>
      <point x="295" y="234" type="curve" smooth="yes"/>
      <point x="221" y="234"/>
      <point x="141" y="210"/>
      <point x="58" y="158" type="curve"/>
      <point x="134" y="550" type="line"/>
      <point x="546" y="550" type="line"/>
      <point x="527" y="450" type="line"/>
      <point x="237" y="450" type="line"/>
      <point x="208" y="303" type="line"/>
      <point x="233" y="314"/>
      <point x="281" y="327"/>
      <point x="329" y="327" type="curve" smooth="yes"/>
      <point x="475" y="327"/>
      <point x="567" y="233"/>
      <point x="567" y="91" type="curve" smooth="yes"/>
      <point x="567" y="-64"/>
      <point x="458" y="-170"/>
      <point x="289" y="-170" type="curve" smooth="yes"/>
      <point x="180" y="-170"/>
      <point x="99" y="-126"/>
      <point x="38" y="-43" type="curve"/>
    </contour>
  </outline>
</glyph>
<glyph name="five.ss09.osf" format="2">
  <advance width="594"/>
  <outline>
    <contour>
      <point x="292" y="-70" type="curve" smooth="yes"/>
      <point x="216" y="-70"/>
      <point x="170" y="-33"/>
      <point x="157" y="48" type="curve"/>
      <point x="37" y="48" type="line"/>
      <point x="60" y="-93"/>
      <point x="148" y="-170"/>
      <point x="296" y="-170" type="curve" smooth="yes"/>
      <point x="458" y="-170"/>
      <point x="554" y="-78"/>
      <point x="554" y="71" type="curve" smooth="yes"/>
      <point x="554" y="216"/>
      <point x="463" y="306"/>
      <point x="325" y="306" type="curve" smooth="yes"/>
      <point x="253" y="306"/>
      <point x="214" y="281"/>
      <point x="189" y="259" type="curve"/>
      <point x="216" y="450" type="line"/>
      <point x="500" y="450" type="line"/>
      <point x="514" y="550" type="line"/>
      <point x="108" y="550" type="line"/>
      <point x="49" y="134" type="line"/>
      <point x="169" y="134" type="line"/>
      <point x="192" y="182"/>
      <point x="241" y="213"/>
      <point x="307" y="213" type="curve" smooth="yes"/>
      <point x="389" y="213"/>
      <point x="433" y="165"/>
      <point x="433" y="78" type="curve" smooth="yes"/>
      <point x="433" y="-9"/>
      <point x="389" y="-70"/>
    </contour>
  </outline>
</glyph>
<glyph name="g.ss03" format="2">
  <advance width="590"/>
  <anchor x="295" y="520" name="top"/>
  <anchor x="295" y="-220" name="bottom"/>
  <outline>
    <contour>
      <point x="69" y="318" type="curve" smooth="yes"/>
      <point x="69" y="202"/>
      <point x="162" y="124"/>
      <point x="292" y="124" type="curve" smooth="yes" name="dv05"/>
      <point x="426" y="124"/>
      <point x="521" y="206"/>
      <point x="521" y="322" type="curve" smooth="yes" name="sv14"/>
      <point x="521" y="437"/>
      <point x="427" y="520"/>
      <point x="296" y="520" type="curve" smooth="yes" name="at01"/>
      <point x="163" y="520"/>
      <point x="69" y="435"/>
    </contour>
    <contour>
      <point x="294" y="214" type="curve" smooth="yes" name="dv06"/>
      <point x="224" y="214"/>
      <point x="189" y="249"/>
      <point x="189" y="316" type="curve" smooth="yes" name="sv09"/>
      <point x="189" y="388"/>
      <point x="229" y="430"/>
      <point x="297" y="430" type="curve" smooth="yes" name="sv01"/>
      <point x="365" y="430"/>
      <point x="401" y="389"/>
      <point x="401" y="320" type="curve" smooth="yes" name="sv13"/>
      <point x="401" y="250"/>
      <point x="364" y="214"/>
    </contour>
    <contour>
      <point x="56" y="-33" type="line" name="sv12"/>
      <point x="63" y="-152"/>
      <point x="156" y="-220"/>
      <point x="313" y="-220" type="curve" smooth="yes" name="dv01"/>
      <point x="450" y="-220"/>
      <point x="544" y="-168"/>
      <point x="544" y="-62" type="curve" smooth="yes" name="sv08"/>
      <point x="544" y="29"/>
      <point x="475" y="75"/>
      <point x="296" y="75" type="curve" smooth="yes" name="sv05"/>
      <point x="181" y="75"/>
      <point x="137" y="94"/>
      <point x="137" y="133" type="curve" smooth="yes" name="sv06"/>
      <point x="137" y="160"/>
      <point x="158" y="173"/>
      <point x="195" y="190" type="curve" name="sv10"/>
      <point x="194" y="247" type="line" name="sv11"/>
      <point x="102" y="221"/>
      <point x="52" y="179"/>
      <point x="52" y="109" type="curve" smooth="yes"/>
      <point x="52" y="36"/>
      <point x="109" y="-5"/>
      <point x="281" y="-5" type="curve" smooth="yes" name="ab01"/>
      <point x="392" y="-5"/>
      <point x="430" y="-22"/>
      <point x="430" y="-66" type="curve" smooth="yes" name="sv07"/>
      <point x="430" y="-115"/>
      <point x="381" y="-130"/>
      <point x="308" y="-130" type="curve" smooth="yes" name="dv02"/>
      <point x="213" y="-130"/>
      <point x="178" y="-104"/>
      <point x="173" y="-33" type="curve" name="sv04"/>
    </contour>
    <contour>
      <point x="411" y="432" type="line" name="sv03"/>
      <point x="416" y="483"/>
      <point x="456" y="530"/>
      <point x="478" y="535" type="curve" name="at02"/>
      <point x="475" y="503"/>
      <point x="500" y="477"/>
      <point x="532" y="477" type="curve" smooth="yes" name="dv03"/>
      <point x="562" y="477"/>
      <point x="584" y="500"/>
      <point x="584" y="533" type="curve" smooth="yes"/>
      <point x="584" y="568"/>
      <point x="559" y="594"/>
      <point x="521" y="594" type="curve" smooth="yes" name="dv04"/>
      <point x="462" y="594"/>
      <point x="403" y="530"/>
      <point x="394" y="435" type="curve" name="sv02"/>
    </contour>
  </outline>
</glyph>
<glyph name="g.ss12" format="2">
  <advance width="606"/>
  <anchor x="298" y="-220" name="bottom"/>
  <anchor x="307" y="520" name="top"/>
  <outline>
    <contour>
      <point x="262" y="-20" type="curve" smooth="yes"/>
      <point x="379" y="-20"/>
      <point x="444" y="78"/>
      <point x="444" y="255" type="curve" smooth="yes"/>
      <point x="444" y="422"/>
      <point x="376" y="520"/>
      <point x="256" y="520" type="curve" smooth="yes"/>
      <point x="115" y="520"/>
      <point x="40" y="411"/>
      <point x="40" y="255" type="curve" smooth="yes"/>
      <point x="40" y="99"/>
      <point x="124" y="-20"/>
    </contour>
    <contour>
      <point x="287" y="70" type="curve" smooth="yes"/>
      <point x="217" y="70"/>
      <point x="160" y="153.231"/>
      <point x="160" y="255.515" type="curve" smooth="yes"/>
      <point x="160" y="355.794"/>
      <point x="214" y="430"/>
      <point x="286" y="430" type="curve" smooth="yes"/>
      <point x="365" y="430"/>
      <point x="422" y="357.799"/>
      <point x="422" y="256.518" type="curve" smooth="yes"/>
      <point x="422" y="151.226"/>
      <point x="367" y="70"/>
    </contour>
    <contour>
      <point x="72" y="-131" type="line"/>
      <point x="124" y="-190"/>
      <point x="192" y="-220"/>
      <point x="272" y="-220" type="curve" smooth="yes"/>
      <point x="453" y="-220"/>
      <point x="542" y="-137"/>
      <point x="542" y="32" type="curve" smooth="yes"/>
      <point x="542" y="500" type="line"/>
      <point x="422" y="500" type="line"/>
      <point x="422" y="35" type="line" smooth="yes"/>
      <point x="422" y="-80"/>
      <point x="374" y="-130"/>
      <point x="264" y="-130" type="curve" smooth="yes"/>
      <point x="204" y="-130"/>
      <point x="150" y="-111"/>
      <point x="79" y="-57" type="curve"/>
    </contour>
  </outline>
</glyph>
<glyph name="germandbls.ss09" format="2">
  <advance width="710"/>
  <outline>
    <contour>
      <point x="204" y="0" type="line"/>
      <point x="204" y="497" type="line" smooth="yes"/>
      <point x="204" y="605"/>
      <point x="246.482" y="661"/>
      <point x="331.446" y="661" type="curve" smooth="yes"/>
      <point x="403.339" y="661"/>
      <point x="448" y="623.741"/>
      <point x="448" y="567.375" type="curve" smooth="yes"/>
      <point x="448" y="484.259"/>
      <point x="367" y="447"/>
      <point x="367" y="361" type="curve" smooth="yes"/>
      <point x="367" y="223"/>
      <point x="532" y="222.284"/>
      <point x="532" y="128.043" type="curve" smooth="yes"/>
      <point x="532" y="93.773"/>
      <point x="512" y="72"/>
      <point x="460" y="72" type="curve" smooth="yes"/>
      <point x="410" y="72"/>
      <point x="387" y="84"/>
      <point x="377" y="127" type="curve"/>
      <point x="257" y="127" type="line"/>
      <point x="268" y="20"/>
      <point x="344" y="-20"/>
      <point x="466" y="-20" type="curve" smooth="yes"/>
      <point x="574" y="-20"/>
      <point x="652" y="28"/>
      <point x="652" y="122" type="curve" smooth="yes"/>
      <point x="652" y="271"/>
      <point x="487" y="263"/>
      <point x="487" y="370" type="curve" smooth="yes"/>
      <point x="487" y="443"/>
      <point x="568" y="452"/>
      <point x="568" y="569" type="curve" smooth="yes"/>
      <point x="568" y="692"/>
      <point x="464.733" y="751"/>
      <point x="331.216" y="751" type="curve" smooth="yes"/>
      <point x="189.353" y="751"/>
      <point x="84" y="685"/>
      <point x="84" y="535" type="curve" smooth="yes"/>
      <point x="84" y="0" type="line"/>
    </contour>
  </outline>
</glyph>
<glyph name="hardcyr.loclBGR" format="2">
  <advance width="600"/>
  <outline>
    <contour>
      <point x="179" y="235" type="line"/>
      <point x="346" y="235" type="line" smooth="yes"/>
      <point x="405" y="235"/>
      <point x="430" y="204.062"/>
      <point x="430" y="152.5" type="curve" smooth="yes"/>
      <point x="430" y="103"/>
      <point x="397.467" y="70"/>
      <point x="348.668" y="70" type="curve" smooth="yes"/>
      <point x="289.668" y="70"/>
      <point x="263.623" y="98.5137"/>
      <point x="263.668" y="146.037" type="curve" smooth="yes"/>
      <point x="264" y="500" type="line"/>
      <point x="144" y="500" type="line"/>
      <point x="143.668" y="153.68" type="line" smooth="yes"/>
      <point x="143.566" y="47.6"/>
      <point x="208.746" y="-20"/>
      <point x="343.873" y="-20" type="curve" smooth="yes"/>
      <point x="479" y="-20"/>
      <point x="550" y="49"/>
      <point x="550" y="157.277" type="curve" smooth="yes"/>
      <point x="550" y="262.369"/>
      <point x="479" y="325"/>
      <point x="361" y="325" type="curve" smooth="yes"/>
      <point x="179" y="325" type="line"/>
    </contour>
    <contour>
      <point x="21" y="410" type="line"/>
      <point x="179" y="410" type="line"/>
      <point x="212" y="500" type="line"/>
      <point x="21" y="500" type="line"/>
    </contour>
  </outline>
</glyph>
<glyph name="hryvnia.ss12" format="2">
  <advance width="710"/>
  <outline>
    <contour>
      <point x="32" y="275" type="line"/>
      <point x="137.58" y="275" type="line"/>
      <point x="122.77" y="250.49"/>
      <point x="114" y="220.52"/>
      <point x="114" y="183" type="curve" smooth="yes"/>
      <point x="114" y="60"/>
      <point x="204" y="-21"/>
      <point x="343" y="-21" type="curve" smooth="yes"/>
      <point x="444" y="-21"/>
      <point x="523" y="20"/>
      <point x="597" y="104" type="curve"/>
      <point x="588" y="188" type="line"/>
      <point x="510" y="111"/>
      <point x="442" y="80"/>
      <point x="348" y="80" type="curve" smooth="yes"/>
      <point x="271" y="80"/>
      <point x="234" y="118"/>
      <point x="234" y="177" type="curve" smooth="yes"/>
      <point x="234" y="223.48"/>
      <point x="262.49" y="252.35"/>
      <point x="303.42" y="275" type="curve"/>
      <point x="679" y="275" type="line"/>
      <point x="679" y="309" type="line"/>
      <point x="32" y="309" type="line"/>
    </contour>
    <contour>
      <point x="577.15" y="441" type="line"/>
      <point x="587.23" y="462.06"/>
      <point x="593" y="486.71"/>
      <point x="593" y="516" type="curve" smooth="yes"/>
      <point x="593" y="634"/>
      <point x="513" y="720"/>
      <point x="383" y="720" type="curve" smooth="yes"/>
      <point x="287" y="720"/>
      <point x="201" y="678"/>
      <point x="132" y="595" type="curve"/>
      <point x="141" y="510" type="line"/>
      <point x="214" y="588"/>
      <point x="281" y="619"/>
      <point x="369" y="619" type="curve" smooth="yes"/>
      <point x="441" y="619"/>
      <point x="473" y="582"/>
      <point x="473" y="523" type="curve" smooth="yes"/>
      <point x="473" y="486.31"/>
      <point x="456.08" y="460.84"/>
      <point x="429.6" y="441" type="curve"/>
      <point x="31" y="441" type="line"/>
      <point x="31" y="407" type="line"/>
      <point x="678" y="407" type="line"/>
      <point x="678" y="441" type="line"/>
    </contour>
  </outline>
</glyph>
<glyph name="k.ss11" format="2">
  <advance width="582"/>
  <anchor x="286" y="-20" name="bottom"/>
  <anchor x="132" y="750" name="top"/>
  <outline>
    <contour>
      <point x="70" y="0" type="line" name="av01"/>
      <point x="190" y="0" type="line"/>
      <point x="190" y="700" type="line" name="av02"/>
      <point x="70" y="700" type="line"/>
    </contour>
    <contour>
      <point x="91" y="264" type="line"/>
      <point x="322" y="264" type="line" name="iv01"/>
      <point x="418" y="0" type="line" name="ab02"/>
      <point x="552" y="0" type="line"/>
      <point x="414" y="283" type="line"/>
      <point x="540" y="500" type="line" name="av02"/>
      <point x="427" y="500" type="line"/>
      <point x="342" y="354" type="line" name="iv02"/>
      <point x="87" y="354" type="line"/>
    </contour>
  </outline>
</glyph>
<glyph name="manat.ss09" format="2">
  <advance width="747"/>
  <outline>
    <contour>
      <point x="327" y="110" type="line"/>
      <point x="419" y="157" type="line"/>
      <point x="419" y="750" type="line"/>
      <point x="327" y="703" type="line"/>
    </contour>
    <contour>
      <point x="211" y="0" type="line"/>
      <point x="211" y="322" type="line" smooth="yes"/>
      <point x="211" y="462"/>
      <point x="271.593" y="520"/>
      <point x="372.949" y="520" type="curve" smooth="yes" name="dv02"/>
      <point x="475.407" y="520"/>
      <point x="536" y="461"/>
      <point x="536" y="322" type="curve" smooth="yes"/>
      <point x="536" y="0" type="line"/>
      <point x="656" y="0" type="line" name="at02"/>
      <point x="656" y="338" type="line" smooth="yes"/>
      <point x="656" y="511"/>
      <point x="552.505" y="620"/>
      <point x="371.916" y="620" type="curve" smooth="yes" name="dv01"/>
      <point x="191.327" y="620"/>
      <point x="91" y="512"/>
      <point x="91" y="338" type="curve" smooth="yes"/>
      <point x="91" y="0" type="line" name="at01"/>
    </contour>
  </outline>
</glyph>
<glyph name="nine.osf" format="2">
  <advance width="631"/>
  <outline>
    <contour>
      <point x="65.7949" y="-88" type="line"/>
      <point x="112.795" y="-136"/>
      <point x="201.795" y="-171"/>
      <point x="295.795" y="-171" type="curve" smooth="yes"/>
      <point x="476.795" y="-171"/>
      <point x="589" y="-32"/>
      <point x="589" y="219" type="curve" smooth="yes"/>
      <point x="589" y="452"/>
      <point x="493" y="569"/>
      <point x="311" y="569" type="curve" smooth="yes"/>
      <point x="135" y="569"/>
      <point x="38" y="460"/>
      <point x="38" y="321" type="curve" smooth="yes"/>
      <point x="38" y="171"/>
      <point x="152" y="91"/>
      <point x="291" y="91" type="curve" smooth="yes"/>
      <point x="385.867" y="91"/>
      <point x="440.968" y="128.494"/>
      <point x="498.69" y="199.85" type="curve"/>
      <point x="487.53" y="208.504" type="line"/>
      <point x="495.449" y="24.8138"/>
      <point x="402.138" y="-71"/>
      <point x="292.949" y="-71" type="curve" smooth="yes"/>
      <point x="222.795" y="-71"/>
      <point x="177.795" y="-49"/>
      <point x="141.795" y="-12" type="curve"/>
    </contour>
    <contour>
      <point x="158" y="322" type="curve" smooth="yes"/>
      <point x="158" y="411"/>
      <point x="214" y="469"/>
      <point x="309" y="469" type="curve" smooth="yes"/>
      <point x="399" y="469"/>
      <point x="456" y="417"/>
      <point x="456" y="327" type="curve" smooth="yes"/>
      <point x="456" y="237"/>
      <point x="398" y="181"/>
      <point x="305" y="181" type="curve" smooth="yes"/>
      <point x="218" y="181"/>
      <point x="158" y="230"/>
    </contour>
  </outline>
</glyph>
<glyph name="nine.osf.ss12" format="2">
  <advance width="650"/>
  <outline>
    <contour>
      <point x="173" y="327" type="curve" smooth="yes"/>
      <point x="173" y="413"/>
      <point x="227" y="470"/>
      <point x="324" y="470" type="curve" smooth="yes"/>
      <point x="420" y="470"/>
      <point x="478" y="415"/>
      <point x="478" y="328" type="curve" smooth="yes"/>
      <point x="478" y="244"/>
      <point x="423" y="188"/>
      <point x="324" y="188" type="curve" smooth="yes"/>
      <point x="230" y="188"/>
      <point x="173" y="239"/>
    </contour>
    <contour>
      <point x="57" y="-45" type="line"/>
      <point x="132" y="-130"/>
      <point x="213" y="-170"/>
      <point x="319" y="-170" type="curve" smooth="yes"/>
      <point x="505" y="-170"/>
      <point x="610" y="-46"/>
      <point x="610" y="199" type="curve" smooth="yes"/>
      <point x="610" y="440"/>
      <point x="508" y="570"/>
      <point x="319" y="570" type="curve" smooth="yes"/>
      <point x="148" y="570"/>
      <point x="53" y="463"/>
      <point x="53" y="326" type="curve" smooth="yes"/>
      <point x="53" y="179"/>
      <point x="162" y="94"/>
      <point x="309" y="94" type="curve" smooth="yes"/>
      <point x="409" y="94"/>
      <point x="483" y="134"/>
      <point x="514" y="202" type="curve"/>
      <point x="514" y="-1"/>
      <point x="441" y="-70"/>
      <point x="304" y="-70" type="curve" smooth="yes"/>
      <point x="213" y="-70"/>
      <point x="144" y="-39"/>
      <point x="66" y="40" type="curve"/>
    </contour>
  </outline>
</glyph>
<glyph name="oe.ss10" format="2">
  <advance width="944"/>
  <outline>
    <contour>
      <point x="292.68" y="-20" type="curve" smooth="yes" name="dv01"/>
      <point x="453.96" y="-20"/>
      <point x="531.72" y="79"/>
      <point x="531.72" y="255" type="curve" smooth="yes"/>
      <point x="531.72" y="421"/>
      <point x="453" y="520"/>
      <point x="292.68" y="520" type="curve" smooth="yes" name="at01"/>
      <point x="142.92" y="520"/>
      <point x="53.64" y="421"/>
      <point x="53.64" y="255" type="curve" smooth="yes"/>
      <point x="53.64" y="79"/>
      <point x="143.88" y="-20"/>
    </contour>
    <contour>
      <point x="292.68" y="70" type="curve" smooth="yes" name="dv02"/>
      <point x="213" y="70"/>
      <point x="168.84" y="132.346"/>
      <point x="168.84" y="255.028" type="curve" smooth="yes"/>
      <point x="168.84" y="373.687"/>
      <point x="210.12" y="430"/>
      <point x="292.68" y="430" type="curve" smooth="yes" name="sv01"/>
      <point x="376.2" y="430"/>
      <point x="416.52" y="369.665"/>
      <point x="416.52" y="253.017" type="curve" smooth="yes"/>
      <point x="416.52" y="135.363"/>
      <point x="375.24" y="70"/>
    </contour>
    <contour>
      <point x="536.24" y="308" type="line"/>
      <point x="536.24" y="378"/>
      <point x="586.911" y="430"/>
      <point x="655.748" y="430" type="curve" smooth="yes"/>
      <point x="724.585" y="430"/>
      <point x="769.52" y="378"/>
      <point x="769.52" y="308" type="curve"/>
    </contour>
    <contour>
      <point x="844.4" y="182" type="line"/>
      <point x="800.185" y="93.4153"/>
      <point x="743.912" y="70"/>
      <point x="673.092" y="70" type="curve" smooth="yes"/>
      <point x="597.487" y="70"/>
      <point x="535.28" y="118"/>
      <point x="535.28" y="228" type="curve"/>
      <point x="890.48" y="228" type="line"/>
      <point x="900.48" y="410"/>
      <point x="804.256" y="520"/>
      <point x="658.633" y="520" type="curve" smooth="yes"/>
      <point x="512.052" y="520"/>
      <point x="420.08" y="410"/>
      <point x="420.08" y="255" type="curve" smooth="yes"/>
      <point x="420.08" y="90"/>
      <point x="513.962" y="-20"/>
      <point x="670.758" y="-20" type="curve" smooth="yes"/>
      <point x="759.203" y="-20"/>
      <point x="832.009" y="15"/>
      <point x="874.16" y="74" type="curve"/>
    </contour>
  </outline>
</glyph>
<glyph name="one.ss09" format="2">
  <advance width="514"/>
  <outline>
    <contour>
      <point x="221" y="0" type="line"/>
      <point x="341" y="0" type="line"/>
      <point x="341" y="700" type="line"/>
      <point x="227" y="700" type="line"/>
      <point x="227" y="616"/>
      <point x="157.8" y="560"/>
      <point x="48" y="560" type="curve"/>
      <point x="48" y="460" type="line"/>
      <point x="154.583" y="460"/>
      <point x="221" y="505.751"/>
      <point x="221" y="575" type="curve"/>
    </contour>
    <contour>
      <point x="41" y="0" type="line"/>
      <point x="483" y="0" type="line"/>
      <point x="483" y="100" type="line"/>
      <point x="41" y="100" type="line"/>
    </contour>
  </outline>
</glyph>
<glyph name="plus.case" format="2">
  <advance width="566"/>
  <outline>
    <contour>
      <point x="50" y="342" type="line"/>
      <point x="260" y="342" type="line"/>
      <point x="260" y="135" type="line"/>
      <point x="296" y="135" type="line"/>
      <point x="296" y="342" type="line"/>
      <point x="516" y="342" type="line"/>
      <point x="516" y="378" type="line"/>
      <point x="296" y="378" type="line"/>
      <point x="296" y="585" type="line"/>
      <point x="260" y="585" type="line"/>
      <point x="260" y="378" type="line"/>
      <point x="50" y="378" type="line"/>
    </contour>
  </outline>
</glyph>
<glyph name="scedilla.ss10" format="2">
  <advance width="522"/>
  <anchor x="248" y="520" name="top"/>
  <anchor x="245" y="-218" name="bottom"/>
  <outline>
    <contour>
      <point x="46" y="74" type="line"/>
      <point x="90" y="15"/>
      <point x="166" y="-20"/>
      <point x="264" y="-20" type="curve" smooth="yes"/>
      <point x="374" y="-20"/>
      <point x="464" y="30"/>
      <point x="464" y="138" type="curve" smooth="yes"/>
      <point x="464" y="232.31"/>
      <point x="373.067" y="259.977"/>
      <point x="292.691" y="284.432" type="curve" smooth="yes"/>
      <point x="229.035" y="303.799"/>
      <point x="172" y="321.153"/>
      <point x="172" y="368" type="curve" smooth="yes"/>
      <point x="172" y="407"/>
      <point x="204" y="430"/>
      <point x="255" y="430" type="curve" smooth="yes"/>
      <point x="318" y="430"/>
      <point x="370" y="395"/>
      <point x="420" y="322" type="curve"/>
      <point x="451" y="430" type="line"/>
      <point x="428" y="470"/>
      <point x="351" y="520"/>
      <point x="242" y="520" type="curve" smooth="yes"/>
      <point x="126" y="520"/>
      <point x="54" y="464"/>
      <point x="54" y="373" type="curve" smooth="yes"/>
      <point x="54" y="260.543"/>
      <point x="151.783" y="232.092"/>
      <point x="233.984" y="208.174" type="curve" smooth="yes"/>
      <point x="293.588" y="190.832"/>
      <point x="345" y="175.873"/>
      <point x="345" y="133" type="curve" smooth="yes"/>
      <point x="345" y="91"/>
      <point x="304" y="70"/>
      <point x="264" y="70" type="curve" smooth="yes"/>
      <point x="193" y="70"/>
      <point x="136" y="97"/>
      <point x="77" y="182" type="curve"/>
    </contour>
    <contour>
      <point x="138" y="-205" type="line"/>
      <point x="164" y="-211"/>
      <point x="193" y="-218"/>
      <point x="234" y="-218" type="curve" smooth="yes"/>
      <point x="317" y="-218"/>
      <point x="364" y="-189"/>
      <point x="364" y="-136" type="curve" smooth="yes"/>
      <point x="364" y="-89"/>
      <point x="328" y="-64"/>
      <point x="268" y="-64" type="curve"/>
      <point x="310.784" y="13.546" type="line"/>
      <point x="237.784" y="13.546" type="line"/>
      <point x="185" y="-90" type="line"/>
      <point x="200" y="-88"/>
      <point x="211" y="-86"/>
      <point x="224" y="-86" type="curve" smooth="yes"/>
      <point x="259" y="-86"/>
      <point x="280" y="-101"/>
      <point x="280" y="-130" type="curve" smooth="yes"/>
      <point x="280" y="-158"/>
      <point x="260" y="-177"/>
      <point x="224" y="-177" type="curve" smooth="yes"/>
      <point x="206" y="-177"/>
      <point x="178" y="-172"/>
      <point x="157" y="-166" type="curve"/>
    </contour>
  </outline>
</glyph>
<glyph name="shchacyr.loclBGR" format="2">
  <advance width="964"/>
  <outline>
    <component base="shacyr.loclBGR" xOffset="-3"/>
    <contour>
      <point x="795" y="0" type="line"/>
      <point x="863" y="0"/>
      <point x="848" y="-82"/>
      <point x="848" y="-140" type="curve"/>
      <point x="933" y="-140" type="line"/>
      <point x="933" y="52"/>
      <point x="915" y="89"/>
      <point x="795" y="89" type="curve"/>
    </contour>
  </outline>
</glyph>
<glyph name="sigmafinal.ss09" format="2">
  <advance width="582"/>
  <anchor x="296" y="519" name="topgr"/>
  <outline>
    <contour>
      <point x="512" y="-200" type="line"/>
      <point x="532" y="-181"/>
      <point x="554" y="-143"/>
      <point x="554" y="-91" type="curve" smooth="yes"/>
      <point x="554" y="9"/>
      <point x="476.198" y="70"/>
      <point x="347.525" y="70" type="curve" smooth="yes"/>
      <point x="205.886" y="70"/>
      <point x="161" y="143.203"/>
      <point x="161" y="256.518" type="curve" smooth="yes"/>
      <point x="161" y="372.841"/>
      <point x="214" y="430"/>
      <point x="298" y="430" type="curve" smooth="yes"/>
      <point x="369" y="430"/>
      <point x="412" y="389.592"/>
      <point x="418" y="331" type="curve"/>
      <point x="533" y="331" type="line"/>
      <point x="512" y="457"/>
      <point x="421" y="520"/>
      <point x="295" y="520" type="curve" smooth="yes"/>
      <point x="135" y="520"/>
      <point x="41" y="417"/>
      <point x="41" y="252" type="curve" smooth="yes"/>
      <point x="41" y="81"/>
      <point x="140.746" y="-20"/>
      <point x="305.327" y="-20" type="curve" smooth="yes"/>
      <point x="361.185" y="-20"/>
      <point x="434" y="-22"/>
      <point x="434" y="-104" type="curve" smooth="yes"/>
      <point x="434" y="-143"/>
      <point x="417" y="-166"/>
      <point x="392" y="-200" type="curve"/>
    </contour>
  </outline>
</glyph>
<glyph name="sigmafinal.ss12" format="2">
  <advance width="580"/>
  <anchor x="297" y="519" name="topgr"/>
  <outline>
    <contour>
      <point x="491" y="-200" type="line"/>
      <point x="509" y="-180.074"/>
      <point x="533" y="-144.207"/>
      <point x="533" y="-88.4133" type="curve" smooth="yes"/>
      <point x="533" y="9.22509"/>
      <point x="461.198" y="70"/>
      <point x="338.536" y="70" type="curve" smooth="yes"/>
      <point x="205.901" y="70"/>
      <point x="170" y="142.201"/>
      <point x="170" y="249.499" type="curve" smooth="yes"/>
      <point x="170" y="359.805"/>
      <point x="208" y="430"/>
      <point x="316" y="430" type="curve" smooth="yes"/>
      <point x="372" y="430"/>
      <point x="418" y="411"/>
      <point x="495" y="357" type="curve"/>
      <point x="502" y="431" type="line"/>
      <point x="450" y="490"/>
      <point x="384" y="520"/>
      <point x="301" y="520" type="curve" smooth="yes"/>
      <point x="141" y="520"/>
      <point x="50" y="410"/>
      <point x="50" y="253" type="curve" smooth="yes"/>
      <point x="50" y="99"/>
      <point x="136.761" y="-20"/>
      <point x="297.319" y="-20" type="curve" smooth="yes"/>
      <point x="383.082" y="-20"/>
      <point x="413" y="-54"/>
      <point x="413" y="-103" type="curve" smooth="yes"/>
      <point x="413" y="-142"/>
      <point x="392" y="-165"/>
      <point x="367" y="-200" type="curve"/>
    </contour>
  </outline>
</glyph>
<glyph name="six.ss09" format="2">
  <advance width="650"/>
  <outline>
    <contour>
      <point x="187" y="226" type="curve" smooth="yes"/>
      <point x="187" y="312"/>
      <point x="247" y="363"/>
      <point x="345" y="363" type="curve" smooth="yes"/>
      <point x="438" y="363"/>
      <point x="490" y="314"/>
      <point x="490" y="225" type="curve" smooth="yes"/>
      <point x="490" y="135"/>
      <point x="437" y="80"/>
      <point x="343" y="80" type="curve" smooth="yes"/>
      <point x="248" y="80"/>
      <point x="187" y="140"/>
    </contour>
    <contour>
      <point x="595" y="502" type="line"/>
      <point x="573.202" y="633"/>
      <point x="496" y="720"/>
      <point x="349" y="720" type="curve" smooth="yes"/>
      <point x="166" y="720"/>
      <point x="53" y="585"/>
      <point x="53" y="355" type="curve" smooth="yes"/>
      <point x="53" y="118"/>
      <point x="162" y="-20"/>
      <point x="354" y="-20" type="curve" smooth="yes"/>
      <point x="526" y="-20"/>
      <point x="610" y="90"/>
      <point x="610" y="222" type="curve" smooth="yes"/>
      <point x="610" y="377"/>
      <point x="503" y="454"/>
      <point x="361" y="454" type="curve" smooth="yes"/>
      <point x="277" y="454"/>
      <point x="193" y="421"/>
      <point x="152" y="358" type="curve"/>
      <point x="152" y="542"/>
      <point x="230" y="619"/>
      <point x="349" y="619" type="curve" smooth="yes"/>
      <point x="423" y="619"/>
      <point x="460.742" y="586"/>
      <point x="475" y="502" type="curve"/>
    </contour>
  </outline>
</glyph>
<glyph name="sterling.ss09" format="2">
  <advance width="660"/>
  <outline>
    <contour>
      <point x="48" y="370" type="line"/>
      <point x="464" y="370" type="line"/>
      <point x="454" y="300" type="line"/>
      <point x="38" y="300" type="line"/>
    </contour>
    <contour>
      <point x="327.752" y="620" type="curve" smooth="yes"/>
      <point x="241.594" y="620"/>
      <point x="190.5" y="574.911"/>
      <point x="190.5" y="498.761" type="curve" smooth="yes"/>
      <point x="190.5" y="391.549"/>
      <point x="293" y="334.437"/>
      <point x="293" y="231.233" type="curve" smooth="yes"/>
      <point x="293" y="181.134"/>
      <point x="269" y="139.051"/>
      <point x="231" y="113" type="curve"/>
      <point x="330" y="144"/>
      <point x="356" y="74"/>
      <point x="422" y="74" type="curve" smooth="yes"/>
      <point x="454" y="74"/>
      <point x="492" y="91"/>
      <point x="501" y="151" type="curve"/>
      <point x="621" y="151" type="line"/>
      <point x="604" y="44"/>
      <point x="548" y="-26"/>
      <point x="424" y="-26" type="curve" smooth="yes"/>
      <point x="297" y="-26"/>
      <point x="284" y="47"/>
      <point x="208" y="47" type="curve" smooth="yes"/>
      <point x="186" y="47"/>
      <point x="157" y="41"/>
      <point x="63" y="-39" type="curve"/>
      <point x="63" y="41" type="line"/>
      <point x="112" y="80"/>
      <point x="173" y="139"/>
      <point x="173" y="217" type="curve" smooth="yes"/>
      <point x="173" y="318"/>
      <point x="70.5" y="400"/>
      <point x="70.5" y="522" type="curve" smooth="yes"/>
      <point x="70.5" y="640"/>
      <point x="165.407" y="720"/>
      <point x="315.261" y="720" type="curve" smooth="yes"/>
      <point x="472.108" y="720"/>
      <point x="556.026" y="633"/>
      <point x="583" y="502" type="curve"/>
      <point x="463" y="502" type="line"/>
      <point x="445.969" y="586"/>
      <point x="400.886" y="620"/>
    </contour>
  </outline>
</glyph>
<glyph name="sterling.ss12" format="2">
  <advance width="600"/>
  <outline>
    <contour>
      <point x="369" y="-20" type="curve" smooth="yes"/>
      <point x="442" y="-20"/>
      <point x="499" y="11"/>
      <point x="557" y="80" type="curve"/>
      <point x="550" y="164" type="line"/>
      <point x="491" y="107"/>
      <point x="434" y="80"/>
      <point x="378" y="80" type="curve" smooth="yes"/>
      <point x="303" y="80"/>
      <point x="337" y="130"/>
      <point x="228" y="133" type="curve"/>
      <point x="273" y="176"/>
      <point x="286" y="221"/>
      <point x="269" y="280" type="curve"/>
      <point x="460" y="280" type="line"/>
      <point x="460" y="356" type="line"/>
      <point x="221" y="356" type="line"/>
      <point x="196" y="393"/>
      <point x="176" y="451.257"/>
      <point x="176" y="495.451" type="curve" smooth="yes"/>
      <point x="176" y="570.783"/>
      <point x="233" y="620"/>
      <point x="327" y="620" type="curve" smooth="yes"/>
      <point x="402" y="620"/>
      <point x="472" y="588.716"/>
      <point x="551" y="510" type="curve"/>
      <point x="560" y="595" type="line"/>
      <point x="484" y="678"/>
      <point x="399" y="720"/>
      <point x="302" y="720" type="curve" smooth="yes"/>
      <point x="160" y="720"/>
      <point x="56" y="630"/>
      <point x="56" y="509" type="curve" smooth="yes"/>
      <point x="56" y="451"/>
      <point x="80" y="404"/>
      <point x="106" y="356" type="curve"/>
      <point x="35" y="356" type="line"/>
      <point x="35" y="280" type="line"/>
      <point x="151" y="280" type="line"/>
      <point x="172" y="186"/>
      <point x="149" y="138"/>
      <point x="49" y="70" type="curve"/>
      <point x="49" y="0" type="line"/>
      <point x="117" y="41"/>
      <point x="150" y="50"/>
      <point x="176" y="50" type="curve" smooth="yes"/>
      <point x="251" y="50"/>
      <point x="258" y="-20"/>
    </contour>
  </outline>
</glyph>
<glyph name="three.osf.ss12" format="2">
  <advance width="550"/>
  <outline>
    <contour>
      <point x="192" y="175" type="line"/>
      <point x="394" y="175"/>
      <point x="490" y="248.475"/>
      <point x="490" y="376.464" type="curve" smooth="yes"/>
      <point x="490" y="495.472"/>
      <point x="407" y="568"/>
      <point x="282.203" y="568" type="curve" smooth="yes"/>
      <point x="185" y="568"/>
      <point x="102" y="524"/>
      <point x="34" y="443" type="curve"/>
      <point x="43" y="358" type="line"/>
      <point x="114" y="436"/>
      <point x="185" y="467"/>
      <point x="255" y="467" type="curve" smooth="yes"/>
      <point x="330" y="467"/>
      <point x="369" y="429.401"/>
      <point x="369" y="366.02" type="curve" smooth="yes"/>
      <point x="369" y="303.713"/>
      <point x="321" y="250"/>
      <point x="192" y="250" type="curve"/>
    </contour>
    <contour>
      <point x="34" y="-47" type="line"/>
      <point x="104" y="-128"/>
      <point x="181" y="-172"/>
      <point x="277.955" y="-172" type="curve" smooth="yes"/>
      <point x="413" y="-172"/>
      <point x="510" y="-86.638"/>
      <point x="510" y="36.108" type="curve" smooth="yes"/>
      <point x="510" y="161.979"/>
      <point x="408" y="226"/>
      <point x="192" y="226" type="curve"/>
      <point x="192" y="161" type="line"/>
      <point x="335" y="161"/>
      <point x="389" y="104.336"/>
      <point x="389" y="35.912" type="curve" smooth="yes"/>
      <point x="389" y="-30.373"/>
      <point x="337" y="-71"/>
      <point x="256" y="-71" type="curve" smooth="yes"/>
      <point x="183" y="-71"/>
      <point x="118" y="-40"/>
      <point x="43" y="38" type="curve"/>
    </contour>
  </outline>
</glyph>
<glyph name="tonos.case" format="2">
  <advance width="167"/>
  <anchor x="58" y="500" name="_topgr"/>
  <anchor x="58" y="699" name="topgr"/>
  <outline>
    <contour>
      <point x="18" y="549.462" type="line"/>
      <point x="91" y="549.462" type="line"/>
      <point x="151" y="700" type="line"/>
      <point x="58" y="700" type="line"/>
    </contour>
  </outline>
</glyph>
<glyph name="tshecyr.ss11" format="2">
  <advance width="665"/>
  <outline>
    <contour>
      <point x="114" y="0" type="line" name="ab03"/>
      <point x="234" y="0" type="line"/>
      <point x="234" y="700" type="line" name="ab01"/>
      <point x="114" y="700" type="line"/>
    </contour>
    <contour>
      <point x="234" y="197" type="line" name="iv01"/>
      <point x="234" y="324"/>
      <point x="282" y="408"/>
      <point x="370" y="408" type="curve" smooth="yes" name="sv01"/>
      <point x="429" y="408"/>
      <point x="461" y="378"/>
      <point x="461" y="270" type="curve" smooth="yes"/>
      <point x="461" y="0" type="line" name="ab01"/>
      <point x="581" y="0" type="line"/>
      <point x="581" y="294" type="line" smooth="yes"/>
      <point x="581" y="438"/>
      <point x="514" y="500"/>
      <point x="410" y="500" type="curve" smooth="yes" name="at01"/>
      <point x="317" y="500"/>
      <point x="240" y="432"/>
      <point x="226" y="335" type="curve"/>
      <point x="227" y="260" type="line"/>
    </contour>
    <contour>
      <point x="15" y="580" type="line"/>
      <point x="415" y="580" type="line"/>
      <point x="415" y="616" type="line"/>
      <point x="15" y="616" type="line"/>
    </contour>
  </outline>
</glyph>
<glyph name="uogonek.ss05" format="2">
  <advance width="600"/>
  <anchor x="300" y="-20" name="bottom"/>
  <anchor x="300" y="520" name="top"/>
  <outline>
    <contour>
      <point x="409" y="215" type="line"/>
      <point x="397" y="283" type="line"/>
      <point x="397" y="145.293"/>
      <point x="355" y="70"/>
      <point x="281" y="70" type="curve" smooth="yes"/>
      <point x="224" y="70"/>
      <point x="196" y="114.792"/>
      <point x="196" y="198.403" type="curve" smooth="yes"/>
      <point x="196" y="500" type="line"/>
      <point x="76" y="500" type="line"/>
      <point x="76" y="196" type="line" smooth="yes"/>
      <point x="76" y="51"/>
      <point x="134" y="-20"/>
      <point x="241" y="-20" type="curve" smooth="yes"/>
      <point x="335" y="-20"/>
      <point x="383" y="35"/>
      <point x="409" y="134" type="curve"/>
    </contour>
    <contour>
      <point x="397" y="0" type="line"/>
      <point x="517" y="0" type="line"/>
      <point x="517" y="500" type="line"/>
      <point x="397" y="500" type="line"/>
    </contour>
    <contour>
      <point x="518" y="-182" type="line"/>
      <point x="474" y="-168"/>
      <point x="452" y="-137"/>
      <point x="452" y="-103" type="curve" smooth="yes"/>
      <point x="452" y="-66"/>
      <point x="477" y="-24"/>
      <point x="517" y="0" type="curve"/>
      <point x="494" y="3" type="line"/>
      <point x="411" y="-13"/>
      <point x="359" y="-55"/>
      <point x="359" y="-109" type="curve" smooth="yes"/>
      <point x="359" y="-158"/>
      <point x="403" y="-195"/>
      <point x="471" y="-205" type="curve"/>
    </contour>
  </outline>
</glyph>
<glyph name="y.ss04" format="2">
  <advance width="586"/>
  <anchor x="574" y="0" name="bottom"/>
  <anchor x="294" y="520" name="top"/>
  <outline>
    <contour>
      <point x="413" y="263" type="line" name="iv01"/>
      <point x="413" y="151"/>
      <point x="368.122" y="90"/>
      <point x="280.454" y="90" type="curve" smooth="yes" name="sv01"/>
      <point x="193.83" y="90"/>
      <point x="174" y="140"/>
      <point x="174" y="248" type="curve" smooth="yes"/>
      <point x="174" y="500" type="line" name="av01"/>
      <point x="54" y="500" type="line"/>
      <point x="54" y="216" type="line" smooth="yes"/>
      <point x="54" y="83"/>
      <point x="124.896" y="0"/>
      <point x="241" y="0" type="curve" smooth="yes" name="ab01"/>
      <point x="343.747" y="0"/>
      <point x="407.451" y="66"/>
      <point x="428" y="147" type="curve"/>
    </contour>
    <contour>
      <point x="59" y="-130" type="line"/>
      <point x="101" y="-183"/>
      <point x="177" y="-220"/>
      <point x="279" y="-220" type="curve" smooth="yes" name="at01"/>
      <point x="447" y="-220"/>
      <point x="533" y="-121"/>
      <point x="533" y="52" type="curve" smooth="yes"/>
      <point x="533" y="500" type="line" name="av01"/>
      <point x="413" y="500" type="line"/>
      <point x="413" y="50.286" type="line" smooth="yes"/>
      <point x="413" y="-98.951"/>
      <point x="350" y="-130"/>
      <point x="278" y="-130" type="curve" smooth="yes" name="sv01"/>
      <point x="215" y="-130"/>
      <point x="158" y="-105.642"/>
      <point x="127" y="-62" type="curve"/>
    </contour>
  </outline>
</glyph>
<glyph name="yucyr.loclBGR.ss11" format="2">
  <advance width="837"/>
  <anchor x="418" y="-20" name="bottom"/>
  <anchor x="418" y="520" name="top"/>
  <outline>
    <contour>
      <point x="70" y="0" type="line" name="ab01"/>
      <point x="190" y="0" type="line"/>
      <point x="190" y="700" type="line"/>
      <point x="70" y="700" type="line" name="av01"/>
    </contour>
    <contour>
      <point x="160" y="210" type="line"/>
      <point x="336" y="210" type="line"/>
      <point x="336" y="300" type="line"/>
      <point x="160" y="300" type="line"/>
    </contour>
    <contour>
      <point x="539" y="-20" type="curve" smooth="yes" name="dv01"/>
      <point x="707" y="-20"/>
      <point x="788" y="79"/>
      <point x="788" y="255" type="curve" smooth="yes"/>
      <point x="788" y="421"/>
      <point x="706" y="520"/>
      <point x="539" y="520" type="curve" smooth="yes" name="at01"/>
      <point x="383" y="520"/>
      <point x="290" y="421"/>
      <point x="290" y="255" type="curve" smooth="yes"/>
      <point x="290" y="79"/>
      <point x="384" y="-20"/>
    </contour>
    <contour>
      <point x="539" y="70" type="curve" smooth="yes" name="dv02"/>
      <point x="456" y="70"/>
      <point x="410" y="132.346"/>
      <point x="410" y="255.028" type="curve" smooth="yes"/>
      <point x="410" y="373.687"/>
      <point x="453" y="430"/>
      <point x="539" y="430" type="curve" smooth="yes" name="sv01"/>
      <point x="626" y="430"/>
      <point x="668" y="369.665"/>
      <point x="668" y="253.017" type="curve" smooth="yes"/>
      <point x="668" y="135.363"/>
      <point x="625" y="70"/>
    </contour>
  </outline>
</glyph>
<glyph name="zecyr.loclBGR.ss09" format="2">
  <advance width="525"/>
  <outline>
    <contour>
      <point x="255.034" y="-132" type="curve" smooth="yes" name="dv02"/>
      <point x="317.319" y="-132"/>
      <point x="357" y="-93.3213"/>
      <point x="357" y="-16.9122" type="curve" smooth="yes"/>
      <point x="357" y="80.2711"/>
      <point x="304.622" y="136.081"/>
      <point x="178" y="122" type="curve"/>
      <point x="178" y="207" type="line"/>
      <point x="281.318" y="207"/>
      <point x="341.5" y="264.42"/>
      <point x="341.5" y="343.484" type="curve" smooth="yes"/>
      <point x="341.5" y="400.322"/>
      <point x="310.399" y="430"/>
      <point x="253.966" y="430" type="curve" smooth="yes"/>
      <point x="192.128" y="430"/>
      <point x="160.317" y="392.768"/>
      <point x="150" y="333" type="curve"/>
      <point x="38" y="333" type="line"/>
      <point x="55.8706" y="454.698"/>
      <point x="134.878" y="520"/>
      <point x="266.721" y="520" type="curve" smooth="yes"/>
      <point x="383.498" y="520"/>
      <point x="458.5" y="454.573"/>
      <point x="458.5" y="343.846" type="curve" smooth="yes"/>
      <point x="458.5" y="244.82"/>
      <point x="394.903" y="185.849"/>
      <point x="297" y="177" type="curve"/>
      <point x="383.935" y="177"/>
      <point x="477" y="117.842"/>
      <point x="477" y="-11.5402" type="curve" smooth="yes"/>
      <point x="477" y="-131.809"/>
      <point x="382.805" y="-222"/>
      <point x="257.196" y="-222" type="curve" smooth="yes" name="dv01"/>
      <point x="122.196" y="-222"/>
      <point x="49.2261" y="-149.033"/>
      <point x="38" y="-35.0834" type="curve"/>
      <point x="150" y="-35.0834" type="line"/>
      <point x="154.719" y="-95.0318"/>
      <point x="183.034" y="-132"/>
    </contour>
  </outline>
</glyph>
<glyph name="zecyr.loclBGR.ss10" format="2">
  <advance width="500"/>
  <outline>
    <contour>
      <point x="269.589" y="179.048" type="curve"/>
      <point x="383.836" y="179.048"/>
      <point x="460" y="102.813"/>
      <point x="460" y="-11.5401" type="curve" smooth="yes"/>
      <point x="460" y="-137.816"/>
      <point x="371.542" y="-222"/>
      <point x="238.856" y="-222" type="curve" smooth="yes" name="dv01"/>
      <point x="156.223" y="-222"/>
      <point x="74.9826" y="-187"/>
      <point x="37" y="-132" type="curve"/>
      <point x="68" y="-24" type="line"/>
      <point x="106.62" y="-96"/>
      <point x="164.549" y="-132"/>
      <point x="235.718" y="-132" type="curve" smooth="yes" name="dv02"/>
      <point x="296.44" y="-132"/>
      <point x="340" y="-93.3213"/>
      <point x="340" y="-16.9122" type="curve" smooth="yes"/>
      <point x="340" y="80.2711"/>
      <point x="289.67" y="136.081"/>
      <point x="168" y="122" type="curve"/>
      <point x="168" y="207" type="line"/>
      <point x="287" y="229.711"/>
      <point x="318" y="284.778"/>
      <point x="318" y="341.701" type="curve" smooth="yes"/>
      <point x="318" y="399.528"/>
      <point x="287.977" y="430"/>
      <point x="231" y="430" type="curve" smooth="yes"/>
      <point x="158" y="430"/>
      <point x="104" y="394"/>
      <point x="68" y="322" type="curve"/>
      <point x="37" y="430" type="line"/>
      <point x="73" y="485"/>
      <point x="150" y="520"/>
      <point x="239.114" y="520" type="curve" smooth="yes"/>
      <point x="358.14" y="520"/>
      <point x="435" y="457.56"/>
      <point x="435" y="345.849" type="curve" smooth="yes"/>
      <point x="435" y="251.174"/>
      <point x="364.95" y="189.56"/>
    </contour>
  </outline>
</glyph>
<glyph name="zecyr.loclBGR.ss12" format="2">
  <advance width="487"/>
  <outline>
    <contour>
      <point x="257.589" y="179.048" type="curve"/>
      <point x="371.835" y="179.048"/>
      <point x="448" y="102.816"/>
      <point x="448" y="-11.5315" type="curve" smooth="yes"/>
      <point x="448" y="-137.802"/>
      <point x="358.687" y="-221.982"/>
      <point x="226" y="-221.982" type="curve" smooth="yes"/>
      <point x="151" y="-221.982"/>
      <point x="87" y="-192.982"/>
      <point x="34" y="-132.982" type="curve"/>
      <point x="41" y="-58.9817" type="line"/>
      <point x="120.738" y="-112.995"/>
      <point x="165.718" y="-132"/>
      <point x="223.718" y="-132" type="curve" smooth="yes" name="dv02"/>
      <point x="284.44" y="-132"/>
      <point x="328" y="-93.3213"/>
      <point x="328" y="-16.9122" type="curve" smooth="yes"/>
      <point x="328" y="80.2711"/>
      <point x="277.67" y="136.081"/>
      <point x="156" y="122" type="curve"/>
      <point x="156" y="207" type="line"/>
      <point x="260.143" y="227.458"/>
      <point x="304" y="273.4"/>
      <point x="304" y="352.326" type="curve" smooth="yes"/>
      <point x="304" y="403.429"/>
      <point x="280" y="430"/>
      <point x="221.483" y="430" type="curve" smooth="yes"/>
      <point x="172" y="430"/>
      <point x="129" y="411"/>
      <point x="51" y="357" type="curve"/>
      <point x="44" y="431" type="line"/>
      <point x="97" y="491"/>
      <point x="161" y="520"/>
      <point x="236.764" y="520" type="curve" smooth="yes"/>
      <point x="353" y="520"/>
      <point x="421" y="451.742"/>
      <point x="421" y="355.187" type="curve" smooth="yes"/>
      <point x="421" y="269.567"/>
      <point x="359.668" y="203.546"/>
    </contour>
  </outline>
</glyph>
<glyph name="zecyr.ss09" format="2">
  <advance width="525"/>
  <anchor x="262" y="520" name="top"/>
  <anchor x="282" y="-20" name="bottom"/>
  <outline>
    <contour>
      <point x="458.5" y="383" type="curve" smooth="yes"/>
      <point x="458.5" y="472"/>
      <point x="385.587" y="520"/>
      <point x="272.721" y="520" type="curve" smooth="yes"/>
      <point x="140.878" y="520"/>
      <point x="56.9774" y="454.698"/>
      <point x="38" y="333" type="curve"/>
      <point x="150" y="333" type="line"/>
      <point x="162.031" y="392.768"/>
      <point x="199.128" y="430"/>
      <point x="269.312" y="430" type="curve" smooth="yes"/>
      <point x="322.45" y="430"/>
      <point x="341.5" y="408.85"/>
      <point x="341.5" y="377.629" type="curve" smooth="yes"/>
      <point x="341.5" y="321.229"/>
      <point x="282.318" y="289"/>
      <point x="179" y="289" type="curve"/>
      <point x="179" y="209" type="line"/>
      <point x="292" y="209"/>
      <point x="358" y="190.87"/>
      <point x="358" y="132.449" type="curve" smooth="yes"/>
      <point x="358" y="93.1667"/>
      <point x="327" y="70"/>
      <point x="264" y="70" type="curve" smooth="yes"/>
      <point x="192" y="70"/>
      <point x="156" y="107"/>
      <point x="150" y="167" type="curve"/>
      <point x="38" y="167" type="line"/>
      <point x="50" y="53"/>
      <point x="128" y="-20"/>
      <point x="263" y="-20" type="curve" smooth="yes"/>
      <point x="399" y="-20"/>
      <point x="478" y="38"/>
      <point x="478" y="141" type="curve" smooth="yes"/>
      <point x="478" y="223"/>
      <point x="419" y="263"/>
      <point x="307" y="261" type="curve"/>
      <point x="417.635" y="271"/>
      <point x="458.5" y="316"/>
    </contour>
  </outline>
</glyph>
<glyph name="zecyr.ss10" format="2">
  <advance width="481"/>
  <anchor x="257" y="-20" name="bottom"/>
  <anchor x="250" y="520" name="top"/>
  <outline>
    <contour>
      <point x="37" y="70" type="line"/>
      <point x="73" y="15"/>
      <point x="150" y="-20"/>
      <point x="234" y="-20" type="curve" smooth="yes"/>
      <point x="369" y="-20"/>
      <point x="453" y="40"/>
      <point x="453" y="137" type="curve" smooth="yes"/>
      <point x="453" y="226"/>
      <point x="382" y="251"/>
      <point x="258" y="260" type="curve"/>
      <point x="385" y="274"/>
      <point x="435" y="320"/>
      <point x="435" y="386" type="curve" smooth="yes"/>
      <point x="435" y="455"/>
      <point x="385" y="520"/>
      <point x="234" y="520" type="curve" smooth="yes"/>
      <point x="150" y="520"/>
      <point x="73" y="485"/>
      <point x="37" y="430" type="curve"/>
      <point x="68" y="322" type="line"/>
      <point x="104" y="394"/>
      <point x="158" y="430"/>
      <point x="231" y="430" type="curve" smooth="yes"/>
      <point x="291" y="430"/>
      <point x="318" y="398"/>
      <point x="318" y="367" type="curve" smooth="yes"/>
      <point x="318" y="317"/>
      <point x="281" y="298"/>
      <point x="170" y="298" type="curve"/>
      <point x="170" y="218" type="line"/>
      <point x="301" y="218"/>
      <point x="333" y="188"/>
      <point x="333" y="130" type="curve" smooth="yes"/>
      <point x="333" y="91"/>
      <point x="287" y="70"/>
      <point x="231" y="70" type="curve" smooth="yes"/>
      <point x="158" y="70"/>
      <point x="104" y="106"/>
      <point x="68" y="178" type="curve"/>
    </contour>
  </outline>
</glyph>
<glyph name="zero.osf" format="2">
  <advance width="616"/>
  <outline>
    <contour>
      <point x="308" y="-20" type="curve" smooth="yes" name="dv01"/>
      <point x="476" y="-20"/>
      <point x="557" y="87.433"/>
      <point x="557" y="278.426" type="curve" smooth="yes"/>
      <point x="557" y="458.567"/>
      <point x="475" y="566"/>
      <point x="308" y="566" type="curve" smooth="yes" name="at01"/>
      <point x="152" y="566"/>
      <point x="59" y="458.567"/>
      <point x="59" y="278.426" type="curve" smooth="yes"/>
      <point x="59" y="87.433"/>
      <point x="153" y="-20"/>
    </contour>
    <contour>
      <point x="308" y="80" type="curve" smooth="yes" name="dv02"/>
      <point x="225" y="80"/>
      <point x="179" y="146.849"/>
      <point x="179" y="278.391" type="curve" smooth="yes"/>
      <point x="179" y="405.62"/>
      <point x="222" y="466"/>
      <point x="308" y="466" type="curve" smooth="yes" name="sv01"/>
      <point x="395" y="466"/>
      <point x="437" y="401.307"/>
      <point x="437" y="276.235" type="curve" smooth="yes"/>
      <point x="437" y="150.084"/>
      <point x="394" y="80"/>
    </contour>
  </outline>
</glyph>
